<svg width="375" height="317" viewBox="0 0 375 317" fill="none" xmlns="http://www.w3.org/2000/svg">
<path d="M335.634 102.975L330.834 104.025C330.487 104.105 330.247 103.979 330.114 103.645C308.414 47.6754 257.314 9.67536 197.514 5.52536C116.174 -0.124642 44.7736 59.8253 35.4236 140.655C35.377 141.035 35.5203 141.132 35.8536 140.945C42.5536 137.119 48.9403 134.699 55.0136 133.685C64.927 132.032 78.3436 130.505 95.2636 129.105C127.904 126.399 160.567 124.039 193.254 122.025C227.547 119.912 261.794 117.185 295.994 113.845C308.754 112.599 321.424 110.732 334.004 108.245C346.634 105.745 360.514 102.075 372.204 95.3154C364.87 116.209 357.474 136.972 350.014 157.605C349.024 160.345 344.834 163.985 344.914 168.005C344.96 169.892 344.954 171.125 344.894 171.705C341.387 208.672 327.25 240.288 302.484 266.555C248.704 323.565 160.914 332.625 96.5936 287.765C70.0669 269.265 50.8203 244.365 38.8536 213.065L43.5836 211.775C43.9436 211.675 44.1903 211.799 44.3236 212.145C65.6336 267.515 115.324 305.255 174.274 310.435C216.914 314.185 259.364 299.645 290.664 270.635C319.41 243.975 335.78 210.579 339.774 170.445C339.807 170.105 339.687 170.032 339.414 170.225C332.687 174.772 325.3 177.729 317.254 179.095C301.424 181.795 282.934 183.335 269.264 184.325C209.084 188.665 148.874 191.955 88.7736 197.385C64.1236 199.605 38.5736 204.035 15.0836 211.955L0.523595 217.425C0.453813 217.451 0.378219 217.456 0.305699 217.44C0.233179 217.423 0.166749 217.387 0.114228 217.335C0.0617072 217.282 0.0252768 217.216 0.00922109 217.143C-0.00683464 217.071 -0.00184859 216.995 0.0235949 216.925C5.92359 200.285 11.7869 183.808 17.6136 167.495C21.3236 157.145 22.6336 152.095 29.1436 145.975C29.5436 145.602 29.7769 145.062 29.8436 144.355C33.6236 104.895 49.2669 71.7285 76.7736 44.8552C132.444 -9.53485 219.834 -15.0149 282.154 31.4451C306.574 49.6518 324.4 73.4954 335.634 102.975ZM318.274 152.535C317.64 152.689 317.434 152.459 317.654 151.845L327.814 123.335C327.838 123.27 327.843 123.2 327.83 123.132C327.817 123.064 327.786 123.001 327.74 122.949C327.693 122.898 327.634 122.86 327.568 122.84C327.501 122.82 327.431 122.818 327.364 122.835C318.054 125.095 314.374 125.145 310.754 135.155C307.067 145.329 303.454 155.555 299.914 165.835C299.787 166.209 299.92 166.375 300.314 166.335C309.26 165.382 318.12 163.939 326.894 162.005C327.154 161.947 327.396 161.825 327.597 161.648C327.798 161.472 327.951 161.247 328.044 160.995L332.194 149.635C332.214 149.585 332.219 149.529 332.209 149.476C332.199 149.422 332.174 149.372 332.137 149.331C332.1 149.29 332.052 149.26 331.999 149.243C331.945 149.226 331.888 149.223 331.834 149.235L318.274 152.535ZM282.394 162.865L281.944 167.575C281.897 167.989 282.08 168.175 282.494 168.135L296.924 166.705C297.244 166.679 297.404 166.502 297.404 166.175L296.974 127.625C296.974 127.479 296.904 127.412 296.764 127.425C292.704 127.759 288.63 128.142 284.544 128.575C282.277 128.815 280.417 129.422 278.964 130.395C276.91 131.762 275.354 133.342 274.294 135.135C267.327 146.949 260.03 158.575 252.404 170.015C252.366 170.073 252.345 170.141 252.344 170.21C252.343 170.279 252.361 170.347 252.396 170.406C252.432 170.465 252.483 170.514 252.544 170.545C252.606 170.577 252.675 170.591 252.744 170.585L267.074 169.385C267.301 169.364 267.52 169.288 267.71 169.164C267.9 169.041 268.056 168.873 268.164 168.675L270.894 163.715C271.087 163.362 271.38 163.169 271.774 163.135L281.774 162.225C282.234 162.185 282.44 162.399 282.394 162.865ZM241.504 152.625L240.334 132.825C240.314 132.559 240.17 132.425 239.904 132.425C233.704 132.455 227.074 132.685 222.914 137.285C221.667 138.659 220.4 141.189 219.114 144.875C215.86 154.175 212.507 163.499 209.054 172.845C209.026 172.916 209.018 172.993 209.029 173.069C209.04 173.144 209.07 173.215 209.117 173.276C209.164 173.337 209.226 173.386 209.297 173.417C209.368 173.448 209.446 173.461 209.524 173.455L221.624 172.525C221.97 172.499 222.204 172.322 222.324 171.995L230.054 150.165C230.48 148.959 230.72 148.995 230.774 150.275L231.604 171.425C231.617 171.745 231.784 171.895 232.104 171.875L248.194 170.835C248.38 170.824 248.559 170.757 248.709 170.643C248.858 170.529 248.971 170.373 249.034 170.195L263.034 130.825C263.049 130.78 263.052 130.731 263.044 130.684C263.036 130.637 263.016 130.592 262.986 130.555C262.956 130.517 262.918 130.487 262.874 130.468C262.83 130.449 262.781 130.441 262.734 130.445L250.464 131.435C250.144 131.462 249.93 131.629 249.824 131.935L242.394 152.755C241.887 154.162 241.59 154.119 241.504 152.625ZM211.763 138.231C210.298 136.638 208.367 135.502 206.08 134.889C203.793 134.276 201.194 134.197 198.433 134.657C195.672 135.117 192.802 136.107 189.988 137.57C187.173 139.033 184.469 140.941 182.029 143.184C177.101 147.715 173.551 153.339 172.159 158.818C170.766 164.297 171.646 169.182 174.605 172.4C176.069 173.993 178 175.128 180.288 175.741C182.575 176.355 185.173 176.434 187.934 175.974C190.695 175.514 193.565 174.524 196.379 173.061C199.194 171.598 201.899 169.69 204.339 167.446C209.266 162.915 212.816 157.292 214.209 151.813C215.601 146.334 214.721 141.448 211.763 138.231ZM163.834 175.935L177.624 137.265C177.79 136.799 177.627 136.575 177.134 136.595C171.794 136.805 166.464 137.015 162.444 140.855C160.964 142.269 159.574 144.812 158.274 148.485C154.914 158.025 151.527 167.542 148.114 177.035C147.987 177.402 148.117 177.569 148.504 177.535L163.234 176.395C163.365 176.387 163.491 176.339 163.598 176.257C163.704 176.175 163.786 176.064 163.834 175.935ZM135.374 165.085L134.114 168.395C133.987 168.715 133.767 168.942 133.454 169.075C130.284 170.395 124.884 171.155 126.344 165.845C127.854 160.355 131.224 146.485 139.414 149.175C139.622 149.243 139.813 149.354 139.975 149.501C140.137 149.647 140.267 149.826 140.356 150.026C140.444 150.226 140.49 150.442 140.49 150.661C140.489 150.88 140.443 151.096 140.354 151.295L139.904 152.285C139.878 152.343 139.868 152.406 139.874 152.469C139.881 152.532 139.904 152.593 139.941 152.645C139.978 152.697 140.028 152.739 140.086 152.767C140.144 152.795 140.209 152.808 140.274 152.805L153.064 151.945C153.284 151.93 153.496 151.859 153.682 151.738C153.867 151.617 154.019 151.451 154.124 151.255C159.544 141.065 148.454 137.925 141.004 138.595C128.144 139.762 118.914 146.155 113.314 157.775C109.714 165.245 109.084 174.755 117.364 178.505C124.194 181.585 136.764 178.985 144.644 176.945C144.977 176.865 145.2 176.662 145.314 176.335L152.534 156.175C152.68 155.762 152.534 155.565 152.094 155.585C148.26 155.805 144.537 156.052 140.924 156.325C134.694 156.795 131.534 158.425 129.124 164.005C129.082 164.102 129.066 164.208 129.077 164.313C129.088 164.417 129.127 164.517 129.188 164.603C129.249 164.689 129.332 164.757 129.428 164.801C129.523 164.845 129.629 164.864 129.734 164.855L134.904 164.455C134.982 164.448 135.061 164.461 135.134 164.493C135.206 164.525 135.269 164.575 135.316 164.638C135.363 164.702 135.393 164.776 135.403 164.854C135.413 164.933 135.403 165.012 135.374 165.085ZM99.5136 153.385C99.5878 153.179 99.7196 152.999 99.8934 152.866C100.067 152.733 100.276 152.653 100.494 152.635L113.874 151.545C114.334 151.505 114.64 151.272 114.794 150.845L118.264 141.105C118.28 141.056 118.285 141.004 118.276 140.953C118.268 140.902 118.247 140.854 118.215 140.813C118.183 140.773 118.142 140.741 118.094 140.72C118.047 140.699 117.995 140.691 117.944 140.695C111.09 141.195 104.284 141.785 97.5236 142.465C89.9736 143.215 87.2736 147.205 84.7336 154.335C81.287 164.022 77.8536 173.672 74.4336 183.285C74.3269 183.572 74.427 183.702 74.7336 183.675L103.664 180.875C103.957 180.842 104.154 180.689 104.254 180.415L107.634 171.045C107.787 170.619 107.64 170.425 107.194 170.465L93.3936 171.655C93.3533 171.66 93.3127 171.654 93.2754 171.638C93.2382 171.622 93.2056 171.596 93.1806 171.563C93.1557 171.53 93.1392 171.491 93.1327 171.449C93.1263 171.408 93.13 171.365 93.1436 171.325L94.4136 167.725C94.4736 167.559 94.5903 167.469 94.7636 167.455L101.704 167.035C102.133 167.009 102.545 166.856 102.889 166.596C103.232 166.336 103.491 165.981 103.634 165.575L106.654 157.075C106.673 157.013 106.678 156.946 106.667 156.882C106.656 156.817 106.629 156.757 106.59 156.705C106.55 156.654 106.499 156.613 106.44 156.587C106.382 156.561 106.317 156.55 106.254 156.555L98.7636 157.165C98.337 157.199 98.197 157.015 98.3436 156.615L99.5136 153.385ZM70.5136 166.445C69.387 166.445 69.3236 166.202 70.3236 165.715C75.0503 163.435 78.167 159.655 79.6736 154.375C81.6736 147.355 74.1536 144.355 68.4836 145.135C57.1236 146.705 48.2036 146.405 43.7236 158.735C39.917 169.215 36.0836 179.932 32.2236 190.885C32.0503 191.359 32.2103 191.542 32.7036 191.435L46.8636 188.235C47.1503 188.169 47.3436 187.995 47.4436 187.715L51.4736 176.365C52.0203 174.812 53.1103 173.899 54.7436 173.625L56.5836 173.325C56.8998 173.272 57.2243 173.302 57.5252 173.413C57.8261 173.524 58.0928 173.711 58.2989 173.957C58.505 174.202 58.6434 174.497 58.7004 174.813C58.7574 175.128 58.7309 175.453 58.6236 175.755L56.0236 183.085C55.8488 183.572 55.8105 184.095 55.913 184.595C56.0155 185.095 56.2547 185.552 56.6036 185.915C56.9236 186.242 57.567 186.325 58.5336 186.165C62.6336 185.459 66.7736 184.812 70.9536 184.225C71.2936 184.179 71.3636 184.015 71.1636 183.735C68.2036 179.495 75.3136 172.655 73.2236 167.785C73.0836 167.465 72.867 167.215 72.5736 167.035C71.9403 166.642 71.2536 166.445 70.5136 166.445Z" fill="#91121A"/>
<path d="M335.634 102.975C348.274 100.395 363.304 96.1754 373.984 88.6954C374.357 88.4354 374.47 88.522 374.324 88.9554L372.204 95.3154C360.514 102.075 346.634 105.745 334.004 108.245C321.424 110.732 308.754 112.599 295.994 113.845C261.794 117.185 227.547 119.912 193.254 122.025C160.567 124.039 127.904 126.399 95.2636 129.105C78.3436 130.505 64.927 132.032 55.0136 133.685C48.9403 134.699 42.5536 137.119 35.8536 140.945C35.5203 141.132 35.377 141.035 35.4236 140.655C44.7736 59.8253 116.174 -0.124642 197.514 5.52536C257.314 9.67536 308.414 47.6754 330.114 103.645C330.247 103.979 330.487 104.105 330.834 104.025L335.634 102.975ZM172.454 26.6854L185.204 25.8954C185.57 25.8687 185.904 25.9687 186.204 26.1954L186.554 26.4654C186.611 26.5124 186.681 26.5416 186.755 26.5494C186.828 26.5572 186.903 26.5432 186.969 26.5091C187.035 26.4751 187.089 26.4225 187.126 26.3579C187.162 26.2933 187.179 26.2194 187.174 26.1454L186.954 21.8154C186.94 21.5154 186.79 21.422 186.504 21.5354C185.164 22.0654 184.124 22.5354 182.644 22.5854C177.41 22.772 172.18 23.1787 166.954 23.8054C166.54 23.8587 166.47 24.042 166.744 24.3554C167.344 25.0354 167.554 25.3154 167.604 26.2754C167.877 31.7754 168.31 37.2654 168.904 42.7454C168.944 43.092 168.87 43.4154 168.684 43.7154C168.55 43.9354 168.374 44.1054 168.154 44.2254C167.334 44.6854 167.37 44.882 168.264 44.8154L186.904 43.4054C187.264 43.3787 187.577 43.4854 187.844 43.7254L188.394 44.2054C189.027 44.7654 189.224 44.6387 188.984 43.8254C188.517 42.2787 188.354 40.6887 188.494 39.0554C188.499 39.0059 188.49 38.956 188.469 38.9108C188.449 38.8656 188.416 38.8268 188.376 38.7983C188.335 38.7698 188.287 38.7526 188.238 38.7486C188.188 38.7446 188.138 38.7538 188.094 38.7754C187.967 38.842 187.89 38.9254 187.864 39.0254C187.777 39.5054 187.49 39.7687 187.004 39.8154L173.734 40.9654C173.434 40.992 173.277 40.8554 173.264 40.5554L173.034 35.6054C173.02 35.392 173.117 35.2754 173.324 35.2554L181.384 34.3854C181.75 34.3454 182.04 34.4787 182.254 34.7854L182.594 35.2854C182.634 35.3435 182.693 35.387 182.76 35.4092C182.828 35.4315 182.901 35.4314 182.968 35.4089C183.036 35.3865 183.094 35.3428 183.135 35.2845C183.175 35.2262 183.196 35.1564 183.194 35.0854L182.964 31.1854C182.944 30.8654 182.774 30.7254 182.454 30.7654L172.964 31.9354C172.65 31.9754 172.487 31.8387 172.474 31.5254L172.244 26.9154C172.242 26.8865 172.247 26.8576 172.256 26.8304C172.266 26.8032 172.281 26.7782 172.301 26.7568C172.32 26.7354 172.344 26.7181 172.37 26.7059C172.396 26.6936 172.425 26.6866 172.454 26.6854ZM218.554 28.5254C211.354 21.8254 195.974 21.0754 195.324 34.1654C194.764 45.3854 207.504 47.5554 215.974 44.2854C216.238 44.1821 216.529 44.175 216.794 44.2654L217.254 44.4154C217.7 44.562 217.83 44.422 217.644 43.9954L215.874 39.8654C215.7 39.4654 215.497 39.4487 215.264 39.8154C213.274 42.8754 207.454 42.7254 204.774 41.6254C193.204 36.8654 204.164 20.4854 215.524 30.6654C216.134 31.2054 216.184 31.5754 216.314 32.3554C216.394 32.8554 216.614 32.9254 216.974 32.5654L219.834 29.6954C220.374 29.1554 220.26 28.882 219.494 28.8754C219.4 28.8754 219.31 28.8687 219.224 28.8554C218.964 28.8154 218.74 28.7054 218.554 28.5254ZM150.104 42.5154L141.244 32.6654C141.03 32.432 140.964 32.162 141.044 31.8554L141.324 30.8654C141.424 30.4987 141.29 30.3687 140.924 30.4754L134.634 32.3154C134.569 32.3351 134.511 32.3727 134.467 32.4237C134.423 32.4748 134.394 32.5373 134.383 32.604C134.373 32.6708 134.381 32.7392 134.408 32.8013C134.435 32.8634 134.478 32.9168 134.534 32.9554C134.694 33.062 134.874 33.132 135.074 33.1654C135.387 33.2187 135.654 33.3654 135.874 33.6054L148.714 47.6454C148.738 47.6753 148.77 47.7349 148.807 47.8188C148.843 47.9027 148.883 48.0081 148.924 48.1254C149.03 48.4587 149.037 48.7687 148.944 49.0554C148.677 49.8887 148.964 50.1754 149.804 49.9154L155.234 48.1954C156.1 47.922 156.117 47.6054 155.284 47.2454L154.774 47.0154C154.434 46.8754 154.294 46.622 154.354 46.2554C155.234 40.3887 155.987 34.502 156.614 28.5954C156.68 27.942 157.057 26.962 157.744 25.6554C157.964 25.242 157.85 25.1054 157.404 25.2454L151.304 27.1154C150.744 27.2887 150.7 27.552 151.174 27.9054L151.764 28.3354C152.084 28.5754 152.224 28.892 152.184 29.2854L150.724 42.3254C150.664 42.8454 150.457 42.9087 150.104 42.5154ZM232.624 39.0954L234.424 35.1054C234.497 34.932 234.62 34.882 234.794 34.9554C238.867 36.6287 242.76 38.2954 246.474 39.9554C247.12 40.242 247.437 40.472 247.424 40.6454C247.37 41.9254 247.597 41.9787 248.104 40.8054L249.714 37.0554C250.034 36.3154 249.827 36.1154 249.094 36.4554C249.034 36.4887 248.957 36.5254 248.864 36.5654C248.524 36.7187 248.18 36.722 247.834 36.5754L231.104 29.4854C230.764 29.3387 230.627 29.4487 230.694 29.8154C230.874 30.8254 230.934 31.3054 230.504 32.2954C228.504 36.902 226.6 41.5487 224.794 46.2354C224.367 47.3354 223.634 48.0854 222.594 48.4854C222.545 48.5018 222.503 48.5329 222.472 48.5743C222.442 48.6157 222.425 48.6655 222.424 48.7168C222.423 48.7682 222.437 48.8187 222.466 48.8613C222.495 48.904 222.536 48.9368 222.584 48.9554L240.364 56.4754C240.57 56.562 240.66 56.7187 240.634 56.9454C240.614 57.112 240.617 57.232 240.644 57.3054C240.674 57.3991 240.733 57.4807 240.811 57.5391C240.89 57.5976 240.986 57.6301 241.085 57.6323C241.184 57.6344 241.282 57.6062 241.366 57.5513C241.45 57.4964 241.515 57.4176 241.554 57.3254L243.194 53.3254C243.367 52.8987 243.227 52.732 242.774 52.8254L241.834 53.0254C241.567 53.0787 241.31 53.052 241.064 52.9454L229.284 47.9154C229.09 47.8354 229.034 47.6987 229.114 47.5054L231.064 42.8454C231.137 42.672 231.26 42.6187 231.434 42.6854C234.344 43.8154 237.584 44.7254 240.034 46.9554C240.24 47.1487 240.397 47.1154 240.504 46.8554L242.134 43.0354C242.3 42.6354 242.174 42.472 241.754 42.5454L241.164 42.6354C240.737 42.702 240.324 42.652 239.924 42.4854L232.754 39.4154C232.6 39.3554 232.557 39.2487 232.624 39.0954ZM129.074 49.0454C132.924 45.1254 131.364 39.7754 126.364 38.4854C122.624 37.5154 114.534 43.3054 108.634 46.9954C108.38 47.1554 108.337 47.3587 108.504 47.6054C108.564 47.7054 108.65 47.7287 108.764 47.6754C109.197 47.4487 109.54 47.5454 109.794 47.9654C112.707 52.8787 115.634 57.7887 118.574 62.6954C119.084 63.5354 119.084 64.1754 118.814 65.0654C118.795 65.1203 118.795 65.1792 118.812 65.2342C118.829 65.2891 118.864 65.3373 118.911 65.3723C118.958 65.4073 119.015 65.4273 119.075 65.4297C119.134 65.432 119.193 65.4165 119.244 65.3854L124.284 62.2554C124.804 61.9354 124.76 61.752 124.154 61.7054C124.04 61.6987 123.924 61.692 123.804 61.6854C123.664 61.676 123.529 61.632 123.409 61.5571C123.288 61.4822 123.187 61.3787 123.114 61.2554L119.824 55.6454C119.637 55.3254 119.697 55.0687 120.004 54.8754L123.854 52.4554C123.985 52.3694 124.137 52.3188 124.295 52.3083C124.452 52.2978 124.61 52.3278 124.754 52.3954L131.534 55.5654C131.947 55.7587 132.197 56.0787 132.284 56.5254C132.304 56.6387 132.327 56.7487 132.354 56.8554C132.447 57.202 132.65 57.2854 132.964 57.1054L138.264 54.0754C138.844 53.742 138.81 53.4887 138.164 53.3154C135.017 52.4887 132.017 51.2854 129.164 49.7054C128.844 49.5254 128.814 49.3054 129.074 49.0454ZM265.034 62.3554C270.334 65.5154 275.924 59.5554 273.724 54.8254C273.15 53.5854 271.774 52.142 269.594 50.4954C266.2 47.922 262.767 45.3754 259.294 42.8554C259.007 42.6487 258.83 42.7187 258.764 43.0654C258.724 43.2654 258.727 43.4654 258.774 43.6654C258.814 43.835 258.817 44.0114 258.783 44.1824C258.748 44.3534 258.677 44.5148 258.574 44.6554L248.134 58.7754C247.907 59.0754 247.607 59.2687 247.234 59.3554L246.884 59.4354C246.364 59.5487 246.32 59.762 246.754 60.0754L251.214 63.2554C251.494 63.4554 251.64 63.382 251.654 63.0354C251.66 62.902 251.647 62.7687 251.614 62.6354C251.573 62.479 251.567 62.3169 251.597 62.1611C251.626 62.0053 251.69 61.8598 251.784 61.7354L255.654 56.5354C255.86 56.2687 256.1 56.2354 256.374 56.4354L260.044 59.0854C260.324 59.292 260.47 59.5654 260.484 59.9054C260.574 62.1854 261.024 67.1454 259.254 68.8354C259.074 69.0087 259.084 69.1687 259.284 69.3154L264.164 72.9254C265.057 73.5787 265.344 73.3787 265.024 72.3254C265.01 72.2654 264.874 72.0987 264.614 71.8254C264.4 71.6054 264.297 71.3387 264.304 71.0254L264.554 62.6154C264.557 62.5607 264.573 62.5076 264.603 62.4613C264.632 62.415 264.673 62.3769 264.721 62.3509C264.769 62.3248 264.823 62.3115 264.878 62.3123C264.933 62.3131 264.986 62.3279 265.034 62.3554ZM97.6436 72.7654C97.497 72.6054 97.5036 72.452 97.6636 72.3054L103.544 66.6954C103.81 66.442 104.124 66.342 104.484 66.3954L104.964 66.4654C105.03 66.4726 105.097 66.4595 105.156 66.4276C105.215 66.3957 105.263 66.3467 105.293 66.287C105.324 66.2273 105.335 66.1598 105.326 66.0934C105.318 66.027 105.289 65.9649 105.244 65.9154L102.094 62.6754C101.794 62.3687 101.58 62.4187 101.454 62.8254C101.394 63.0054 101.38 63.2087 101.414 63.4354C101.447 63.7487 101.35 64.0154 101.124 64.2354L95.3836 69.7554C95.1103 70.022 94.8403 70.0187 94.5736 69.7454L91.9536 67.1054C91.6936 66.8387 91.6903 66.572 91.9436 66.3054C94.4836 63.6554 98.9936 58.1554 102.374 57.0054C102.74 56.8854 102.787 56.692 102.514 56.4254L99.2536 53.2754C98.9336 52.962 98.767 53.0287 98.7536 53.4754C98.747 53.6354 98.7603 53.7987 98.7936 53.9654C98.8536 54.312 98.7603 54.6087 98.5136 54.8554L85.4936 67.5854C84.947 68.1254 85.0569 68.3254 85.8236 68.1854C85.8769 68.172 86.0403 68.2087 86.3136 68.2954C86.467 68.342 86.6036 68.4254 86.7236 68.5454C90.977 72.792 95.1936 77.082 99.3736 81.4154C99.6203 81.6687 99.6969 81.9654 99.6036 82.3054C99.5569 82.4587 99.5436 82.6154 99.5636 82.7754C99.617 83.182 99.7903 83.242 100.084 82.9554L113.864 69.5954C113.968 69.4937 114.102 69.4275 114.248 69.406C114.393 69.3845 114.542 69.4087 114.674 69.4754C114.867 69.582 115.064 69.6154 115.264 69.5754C115.697 69.4954 115.73 69.3354 115.364 69.0954C114.044 68.2087 112.96 67.092 112.114 65.7454C111.727 65.1254 111.477 65.1887 111.364 65.9354C111.35 65.9887 111.414 66.112 111.554 66.3054C111.687 66.5054 111.667 66.692 111.494 66.8654L101.684 76.5154C101.504 76.6887 101.327 76.682 101.154 76.4954L97.6436 72.7654ZM269.514 111.595C269.46 111.702 269.407 111.809 269.354 111.915C269.338 111.95 269.331 111.988 269.334 112.026C269.336 112.064 269.348 112.1 269.368 112.131C269.388 112.162 269.416 112.187 269.449 112.204C269.481 112.221 269.517 112.228 269.554 112.225L273.374 112.005C273.827 111.979 273.944 111.765 273.724 111.365C242.884 54.4354 166.614 42.8754 119.724 86.8054C108.017 97.7787 99.4703 111.075 94.0836 126.695C93.957 127.069 94.0903 127.265 94.4836 127.285C95.8503 127.345 97.1903 127.162 98.5036 126.735C98.5382 126.725 98.5701 126.707 98.597 126.682C98.6239 126.658 98.6452 126.628 98.6595 126.595C98.6738 126.562 98.6806 126.526 98.6796 126.49C98.6786 126.453 98.6697 126.418 98.6536 126.385C98.5936 126.272 98.537 126.162 98.4836 126.055C98.3703 125.855 98.3536 125.649 98.4336 125.435C120.714 65.7154 193.584 44.3654 244.414 82.6854C254.534 90.312 262.9 99.852 269.514 111.305C269.567 111.399 269.567 111.495 269.514 111.595ZM282.644 63.7454L280.494 65.6254C280.444 65.6711 280.409 65.7307 280.393 65.7964C280.377 65.8621 280.382 65.931 280.405 65.9943C280.429 66.0576 280.471 66.1125 280.526 66.1518C280.581 66.1912 280.646 66.2133 280.714 66.2154C281.254 66.2087 281.75 66.0687 282.204 65.7954C282.47 65.6287 282.75 65.5954 283.044 65.6954L287.024 67.0054C287.55 67.1787 287.624 67.0654 287.244 66.6654L283.134 62.2254C283.103 62.1917 283.066 62.1652 283.024 62.1481C282.982 62.131 282.937 62.1236 282.891 62.1265C282.846 62.1294 282.802 62.1424 282.763 62.1648C282.723 62.1871 282.689 62.2181 282.664 62.2554C282.49 62.5154 282.507 62.7754 282.714 63.0354C282.797 63.1394 282.837 63.2719 282.823 63.4046C282.81 63.5374 282.746 63.6597 282.644 63.7454ZM272.654 79.8054L284.584 68.4454C284.655 68.3763 284.706 68.2887 284.731 68.1924C284.756 68.0962 284.754 67.9949 284.725 67.8997C284.696 67.8045 284.641 67.7192 284.567 67.6532C284.493 67.5871 284.402 67.5429 284.304 67.5253L280.604 66.8654C279.937 66.7454 279.354 66.9154 278.854 67.3754C275.814 70.1954 271.024 75.9854 268.044 76.8154C267.87 76.862 267.844 76.952 267.964 77.0854L271.734 81.2254C271.784 81.2828 271.851 81.323 271.925 81.34C271.999 81.357 272.077 81.35 272.147 81.3199C272.217 81.2899 272.276 81.2384 272.315 81.1729C272.354 81.1074 272.371 81.0312 272.364 80.9554L272.334 80.6553C272.307 80.3153 272.414 80.032 272.654 79.8054ZM265.984 112.315C227.214 46.4454 129.064 54.8253 102.034 126.015C102.003 126.096 101.993 126.183 102.005 126.269C102.017 126.354 102.051 126.435 102.103 126.504C102.155 126.573 102.223 126.628 102.302 126.663C102.381 126.698 102.468 126.713 102.554 126.705L265.804 112.665C265.843 112.663 265.881 112.65 265.914 112.628C265.947 112.606 265.974 112.576 265.992 112.541C266.01 112.506 266.019 112.467 266.018 112.427C266.016 112.388 266.004 112.349 265.984 112.315ZM80.8936 77.6354C80.8705 77.5799 80.8289 77.5341 80.7758 77.5059C80.7228 77.4776 80.6616 77.4686 80.6026 77.4804C80.5437 77.4922 80.4907 77.524 80.4526 77.5705C80.4144 77.617 80.3936 77.6753 80.3936 77.7354C80.3803 77.9954 80.2836 78.2254 80.1036 78.4254C79.7503 78.812 79.4903 79.042 79.3236 79.1154C72.4036 82.1454 66.5236 91.2454 70.9236 98.3854C72.757 101.359 75.3436 103.052 78.6836 103.465C85.1536 104.255 90.0936 99.6254 92.1836 93.8054C92.577 92.6987 92.977 90.132 93.3836 86.1054C93.4103 85.8454 93.2936 85.7187 93.0336 85.7254L89.0036 85.8054C88.5503 85.8187 88.447 86.012 88.6936 86.3854L89.2936 87.2954C89.5003 87.6087 89.597 87.952 89.5836 88.3254C89.4336 93.7854 85.8636 99.6254 79.7436 98.8054C77.4236 98.492 75.697 97.2654 74.5636 95.1254C73.6036 93.3254 73.4603 91.4187 74.1336 89.4054C75.1136 86.4654 78.6236 81.8354 82.3536 82.3254C82.7736 82.3787 82.9003 82.212 82.7336 81.8254L80.8936 77.6354ZM286.624 98.8554C286.417 98.8554 286.22 98.812 286.034 98.7254C285.943 98.6863 285.843 98.6773 285.747 98.6997C285.651 98.722 285.565 98.7746 285.501 98.8496C285.437 98.9246 285.399 99.0181 285.392 99.1163C285.386 99.2146 285.411 99.3124 285.464 99.3954L289.054 104.805C289.747 105.852 290.054 105.789 289.974 104.615C289.94 104.215 290.114 103.662 290.494 102.955C293.427 97.462 296.467 92.0154 299.614 86.6154C299.8 86.2954 300.08 86.122 300.454 86.0954L301.234 86.0454C301.8 86.0054 301.924 85.7487 301.604 85.2754L298.264 80.3554C297.677 79.482 297.297 79.512 297.124 80.4454C297.077 80.6987 296.91 80.942 296.624 81.1754C296.43 81.3287 296.174 81.432 295.854 81.4854C289.554 82.4254 283.244 83.332 276.924 84.2054C276.808 84.2243 276.688 84.2171 276.574 84.1843C276.46 84.1514 276.354 84.0938 276.264 84.0154C276.097 83.8687 275.9 83.7787 275.674 83.7454C275.114 83.6587 274.99 83.852 275.304 84.3254L278.694 89.4354C278.947 89.8154 279.17 89.802 279.364 89.3954C279.484 89.142 279.554 88.8687 279.574 88.5754C279.587 88.396 279.662 88.2263 279.785 88.0939C279.909 87.9614 280.074 87.8739 280.254 87.8454L283.144 87.3654C283.31 87.3358 283.482 87.355 283.638 87.4207C283.794 87.4863 283.928 87.5956 284.024 87.7354L288.864 94.7354C288.974 94.8942 289.036 95.0813 289.043 95.2745C289.05 95.4677 289.002 95.6589 288.904 95.8254L287.404 98.4154C287.23 98.7154 286.97 98.862 286.624 98.8554Z" fill="#F6B334"/>
<path d="M172.454 26.6854C172.425 26.6866 172.396 26.6936 172.37 26.7059C172.344 26.7181 172.32 26.7354 172.301 26.7568C172.281 26.7782 172.266 26.8032 172.256 26.8304C172.247 26.8576 172.242 26.8865 172.244 26.9154L172.474 31.5254C172.487 31.8387 172.65 31.9754 172.964 31.9354L182.454 30.7654C182.774 30.7254 182.944 30.8654 182.964 31.1854L183.194 35.0854C183.196 35.1564 183.175 35.2262 183.135 35.2845C183.094 35.3428 183.036 35.3865 182.968 35.4089C182.901 35.4314 182.828 35.4315 182.76 35.4092C182.693 35.387 182.634 35.3435 182.594 35.2854L182.254 34.7854C182.04 34.4787 181.75 34.3454 181.384 34.3854L173.324 35.2554C173.117 35.2754 173.02 35.392 173.034 35.6054L173.264 40.5554C173.277 40.8554 173.434 40.992 173.734 40.9654L187.004 39.8154C187.49 39.7687 187.777 39.5054 187.864 39.0254C187.89 38.9254 187.967 38.842 188.094 38.7754C188.138 38.7538 188.188 38.7446 188.238 38.7486C188.287 38.7526 188.335 38.7698 188.376 38.7983C188.416 38.8268 188.449 38.8656 188.469 38.9108C188.49 38.956 188.499 39.0059 188.494 39.0554C188.354 40.6887 188.517 42.2787 188.984 43.8254C189.224 44.6387 189.027 44.7654 188.394 44.2054L187.844 43.7254C187.577 43.4854 187.264 43.3787 186.904 43.4054L168.264 44.8154C167.37 44.882 167.334 44.6854 168.154 44.2254C168.374 44.1054 168.55 43.9354 168.684 43.7154C168.87 43.4154 168.944 43.092 168.904 42.7454C168.31 37.2654 167.877 31.7754 167.604 26.2754C167.554 25.3154 167.344 25.0354 166.744 24.3554C166.47 24.042 166.54 23.8587 166.954 23.8054C172.18 23.1787 177.41 22.772 182.644 22.5854C184.124 22.5354 185.164 22.0654 186.504 21.5354C186.79 21.422 186.94 21.5154 186.954 21.8154L187.174 26.1454C187.179 26.2194 187.162 26.2933 187.126 26.3579C187.089 26.4225 187.035 26.4751 186.969 26.5091C186.903 26.5432 186.828 26.5572 186.755 26.5494C186.681 26.5416 186.611 26.5124 186.554 26.4654L186.204 26.1954C185.904 25.9687 185.57 25.8687 185.204 25.8954L172.454 26.6854Z" fill="black"/>
<path d="M219.224 28.8554C219.31 28.8687 219.4 28.8754 219.494 28.8754C220.26 28.882 220.374 29.1554 219.834 29.6954L216.974 32.5654C216.614 32.9254 216.394 32.8554 216.314 32.3554C216.184 31.5754 216.134 31.2054 215.524 30.6654C204.164 20.4854 193.204 36.8654 204.774 41.6254C207.454 42.7254 213.274 42.8754 215.264 39.8154C215.497 39.4487 215.7 39.4654 215.874 39.8654L217.644 43.9954C217.83 44.422 217.7 44.562 217.254 44.4154L216.794 44.2654C216.529 44.175 216.238 44.1821 215.974 44.2854C207.504 47.5554 194.764 45.3854 195.324 34.1654C195.974 21.0754 211.354 21.8254 218.554 28.5254C218.74 28.7054 218.964 28.8154 219.224 28.8554Z" fill="black"/>
<path d="M150.724 42.3254L152.184 29.2854C152.224 28.892 152.084 28.5754 151.764 28.3354L151.174 27.9054C150.7 27.552 150.744 27.2887 151.304 27.1154L157.404 25.2454C157.85 25.1054 157.964 25.242 157.744 25.6554C157.057 26.962 156.68 27.942 156.614 28.5954C155.987 34.502 155.234 40.3887 154.354 46.2554C154.294 46.622 154.434 46.8754 154.774 47.0154L155.284 47.2454C156.117 47.6054 156.1 47.922 155.234 48.1954L149.804 49.9154C148.964 50.1754 148.677 49.8887 148.944 49.0554C149.037 48.7687 149.03 48.4587 148.924 48.1254C148.883 48.0081 148.843 47.9027 148.807 47.8188C148.77 47.7349 148.738 47.6753 148.714 47.6454L135.874 33.6054C135.654 33.3654 135.387 33.2187 135.074 33.1654C134.874 33.132 134.694 33.062 134.534 32.9554C134.478 32.9168 134.435 32.8634 134.408 32.8013C134.381 32.7392 134.373 32.6708 134.383 32.604C134.394 32.5373 134.423 32.4748 134.467 32.4237C134.511 32.3727 134.569 32.3351 134.634 32.3154L140.924 30.4754C141.29 30.3687 141.424 30.4987 141.324 30.8654L141.044 31.8554C140.964 32.162 141.03 32.432 141.244 32.6654L150.104 42.5154C150.457 42.9087 150.664 42.8454 150.724 42.3254Z" fill="black"/>
<path d="M232.754 39.4154L239.924 42.4854C240.324 42.652 240.737 42.702 241.164 42.6354L241.754 42.5454C242.174 42.472 242.3 42.6354 242.134 43.0354L240.504 46.8554C240.397 47.1154 240.24 47.1487 240.034 46.9554C237.584 44.7254 234.344 43.8154 231.434 42.6854C231.26 42.6187 231.137 42.672 231.064 42.8454L229.114 47.5054C229.034 47.6987 229.09 47.8354 229.284 47.9154L241.064 52.9454C241.31 53.052 241.567 53.0787 241.834 53.0254L242.774 52.8254C243.227 52.732 243.367 52.8987 243.194 53.3254L241.554 57.3254C241.515 57.4176 241.45 57.4964 241.366 57.5513C241.282 57.6062 241.184 57.6344 241.085 57.6323C240.986 57.6301 240.89 57.5976 240.811 57.5391C240.733 57.4807 240.674 57.3991 240.644 57.3054C240.617 57.232 240.614 57.112 240.634 56.9454C240.66 56.7187 240.57 56.562 240.364 56.4754L222.584 48.9554C222.536 48.9368 222.495 48.904 222.466 48.8613C222.437 48.8187 222.423 48.7682 222.424 48.7168C222.425 48.6655 222.442 48.6157 222.472 48.5743C222.503 48.5329 222.545 48.5018 222.594 48.4854C223.634 48.0854 224.367 47.3354 224.794 46.2354C226.6 41.5487 228.504 36.902 230.504 32.2954C230.934 31.3054 230.874 30.8254 230.694 29.8154C230.627 29.4487 230.764 29.3387 231.104 29.4854L247.834 36.5754C248.18 36.722 248.524 36.7187 248.864 36.5654C248.957 36.5254 249.034 36.4887 249.094 36.4554C249.827 36.1154 250.034 36.3154 249.714 37.0554L248.104 40.8054C247.597 41.9787 247.37 41.9254 247.424 40.6454C247.437 40.472 247.12 40.242 246.474 39.9554C242.76 38.2954 238.867 36.6287 234.794 34.9554C234.62 34.882 234.497 34.932 234.424 35.1054L232.624 39.0954C232.557 39.2487 232.6 39.3554 232.754 39.4154Z" fill="black"/>
<path d="M129.164 49.7054C132.017 51.2854 135.017 52.4887 138.164 53.3154C138.81 53.4887 138.844 53.742 138.264 54.0754L132.964 57.1054C132.65 57.2854 132.447 57.202 132.354 56.8554C132.327 56.7487 132.304 56.6387 132.284 56.5254C132.197 56.0787 131.947 55.7587 131.534 55.5654L124.754 52.3954C124.61 52.3278 124.452 52.2978 124.295 52.3083C124.137 52.3188 123.985 52.3694 123.854 52.4554L120.004 54.8754C119.697 55.0687 119.637 55.3254 119.824 55.6454L123.114 61.2554C123.187 61.3787 123.288 61.4822 123.409 61.5571C123.529 61.632 123.664 61.676 123.804 61.6854C123.924 61.692 124.04 61.6987 124.154 61.7054C124.76 61.752 124.804 61.9354 124.284 62.2554L119.244 65.3854C119.193 65.4165 119.134 65.432 119.075 65.4297C119.015 65.4273 118.958 65.4073 118.911 65.3723C118.864 65.3373 118.829 65.2891 118.812 65.2342C118.795 65.1792 118.795 65.1203 118.814 65.0654C119.084 64.1754 119.084 63.5354 118.574 62.6954C115.634 57.7887 112.707 52.8787 109.794 47.9654C109.54 47.5454 109.197 47.4487 108.764 47.6754C108.65 47.7287 108.564 47.7054 108.504 47.6054C108.337 47.3587 108.38 47.1554 108.634 46.9954C114.534 43.3054 122.624 37.5154 126.364 38.4854C131.364 39.7754 132.924 45.1254 129.074 49.0454C128.814 49.3054 128.844 49.5254 129.164 49.7054ZM115.114 47.7754L117.424 51.6354C117.458 51.6921 117.502 51.7415 117.555 51.7808C117.609 51.8201 117.669 51.8485 117.733 51.8643C117.797 51.8801 117.864 51.883 117.929 51.8729C117.995 51.8628 118.057 51.8398 118.114 51.8054L125.054 47.6254C125.727 47.2221 126.232 46.5995 126.457 45.8944C126.682 45.1893 126.609 44.4594 126.254 43.8654L126.104 43.6254C125.747 43.0329 125.137 42.6254 124.41 42.4923C123.682 42.3591 122.896 42.5113 122.224 42.9154L115.284 47.0854C115.227 47.1193 115.177 47.1641 115.138 47.2172C115.099 47.2704 115.071 47.3307 115.055 47.3949C115.039 47.4591 115.036 47.5257 115.046 47.591C115.056 47.6563 115.079 47.719 115.114 47.7754Z" fill="black"/>
<path d="M115.114 47.7754C115.079 47.719 115.056 47.6563 115.046 47.591C115.036 47.5257 115.039 47.4591 115.055 47.3949C115.071 47.3307 115.099 47.2704 115.138 47.2172C115.177 47.1641 115.227 47.1193 115.284 47.0854L122.224 42.9154C122.896 42.5113 123.682 42.3591 124.41 42.4923C125.137 42.6254 125.747 43.0329 126.104 43.6254L126.254 43.8654C126.609 44.4594 126.682 45.1893 126.457 45.8944C126.232 46.5995 125.727 47.2221 125.054 47.6254L118.114 51.8054C118.057 51.8398 117.995 51.8628 117.929 51.8729C117.864 51.883 117.797 51.8801 117.733 51.8643C117.669 51.8485 117.609 51.8201 117.555 51.7808C117.502 51.7415 117.458 51.6921 117.424 51.6354L115.114 47.7754Z" fill="#F6B334"/>
<path d="M265.034 62.3554C264.986 62.3279 264.933 62.3131 264.878 62.3123C264.823 62.3115 264.769 62.3248 264.721 62.3509C264.673 62.3769 264.632 62.415 264.603 62.4613C264.573 62.5076 264.557 62.5607 264.554 62.6154L264.304 71.0254C264.297 71.3387 264.4 71.6054 264.614 71.8254C264.874 72.0987 265.01 72.2654 265.024 72.3254C265.344 73.3787 265.057 73.5787 264.164 72.9254L259.284 69.3154C259.084 69.1687 259.074 69.0087 259.254 68.8354C261.024 67.1454 260.574 62.1854 260.484 59.9054C260.47 59.5654 260.324 59.292 260.044 59.0854L256.374 56.4354C256.1 56.2354 255.86 56.2687 255.654 56.5354L251.784 61.7354C251.69 61.8598 251.626 62.0053 251.597 62.1611C251.567 62.3169 251.573 62.479 251.614 62.6354C251.647 62.7687 251.66 62.902 251.654 63.0354C251.64 63.382 251.494 63.4554 251.214 63.2554L246.754 60.0754C246.32 59.762 246.364 59.5487 246.884 59.4354L247.234 59.3554C247.607 59.2687 247.907 59.0754 248.134 58.7754L258.574 44.6554C258.677 44.5148 258.748 44.3534 258.783 44.1824C258.817 44.0114 258.814 43.835 258.774 43.6654C258.727 43.4654 258.724 43.2654 258.764 43.0654C258.83 42.7187 259.007 42.6487 259.294 42.8554C262.767 45.3754 266.2 47.922 269.594 50.4954C271.774 52.142 273.15 53.5854 273.724 54.8254C275.924 59.5554 270.334 65.5154 265.034 62.3554ZM260.964 49.1754L258.344 52.7354C258.256 52.8565 258.22 53.0071 258.242 53.1549C258.264 53.3027 258.344 53.4357 258.464 53.5254L264.594 58.0454C265.302 58.5654 266.134 58.8554 266.908 58.8516C267.682 58.8479 268.335 58.5508 268.724 58.0254L269.094 57.5254C269.287 57.2647 269.409 56.9554 269.454 56.6153C269.498 56.2752 269.463 55.9108 269.352 55.543C269.241 55.1753 269.054 54.8113 268.804 54.472C268.554 54.1326 268.244 53.8246 267.894 53.5654L261.764 49.0554C261.703 49.0104 261.635 48.9779 261.562 48.9596C261.489 48.9414 261.413 48.9377 261.339 48.9488C261.264 48.96 261.193 48.9857 261.128 49.0246C261.064 49.0635 261.008 49.1147 260.964 49.1754Z" fill="black"/>
<path d="M260.964 49.1754C261.008 49.1147 261.064 49.0635 261.128 49.0246C261.193 48.9857 261.264 48.96 261.339 48.9488C261.413 48.9377 261.489 48.9414 261.562 48.9596C261.635 48.9779 261.703 49.0104 261.764 49.0554L267.894 53.5654C268.244 53.8246 268.554 54.1326 268.804 54.472C269.054 54.8113 269.241 55.1753 269.352 55.543C269.463 55.9108 269.498 56.2752 269.454 56.6153C269.409 56.9554 269.287 57.2647 269.094 57.5254L268.724 58.0254C268.335 58.5508 267.682 58.8479 266.908 58.8516C266.134 58.8554 265.302 58.5654 264.594 58.0454L258.464 53.5254C258.344 53.4357 258.264 53.3027 258.242 53.1549C258.22 53.0071 258.256 52.8565 258.344 52.7354L260.964 49.1754Z" fill="#F6B334"/>
<path d="M101.684 76.5154L111.494 66.8654C111.667 66.692 111.687 66.5054 111.554 66.3054C111.414 66.112 111.35 65.9887 111.364 65.9354C111.477 65.1887 111.727 65.1254 112.114 65.7454C112.96 67.092 114.044 68.2087 115.364 69.0954C115.73 69.3354 115.697 69.4954 115.264 69.5754C115.064 69.6154 114.867 69.582 114.674 69.4754C114.542 69.4087 114.393 69.3845 114.248 69.406C114.102 69.4275 113.968 69.4937 113.864 69.5954L100.084 82.9554C99.7903 83.242 99.617 83.182 99.5636 82.7754C99.5436 82.6154 99.5569 82.4587 99.6036 82.3054C99.6969 81.9654 99.6203 81.6687 99.3736 81.4154C95.1936 77.082 90.977 72.792 86.7236 68.5454C86.6036 68.4254 86.467 68.342 86.3136 68.2954C86.0403 68.2087 85.8769 68.172 85.8236 68.1854C85.0569 68.3254 84.947 68.1254 85.4936 67.5854L98.5136 54.8554C98.7603 54.6087 98.8536 54.312 98.7936 53.9654C98.7603 53.7987 98.747 53.6354 98.7536 53.4754C98.767 53.0287 98.9336 52.962 99.2536 53.2754L102.514 56.4254C102.787 56.692 102.74 56.8854 102.374 57.0054C98.9936 58.1554 94.4836 63.6554 91.9436 66.3054C91.6903 66.572 91.6936 66.8387 91.9536 67.1054L94.5736 69.7454C94.8403 70.0187 95.1103 70.022 95.3836 69.7554L101.124 64.2354C101.35 64.0154 101.447 63.7487 101.414 63.4354C101.38 63.2087 101.394 63.0054 101.454 62.8254C101.58 62.4187 101.794 62.3687 102.094 62.6754L105.244 65.9154C105.289 65.9649 105.318 66.027 105.326 66.0934C105.335 66.1598 105.324 66.2273 105.293 66.287C105.263 66.3467 105.215 66.3957 105.156 66.4276C105.097 66.4595 105.03 66.4726 104.964 66.4654L104.484 66.3954C104.124 66.342 103.81 66.442 103.544 66.6954L97.6636 72.3054C97.5036 72.452 97.497 72.6054 97.6436 72.7654L101.154 76.4954C101.327 76.682 101.504 76.6887 101.684 76.5154Z" fill="black"/>
<path d="M269.514 111.305C262.9 99.852 254.534 90.312 244.414 82.6854C193.584 44.3654 120.714 65.7154 98.4336 125.435C98.3536 125.649 98.3703 125.855 98.4836 126.055C98.537 126.162 98.5936 126.272 98.6536 126.385C98.6697 126.418 98.6786 126.453 98.6796 126.49C98.6806 126.526 98.6738 126.562 98.6595 126.595C98.6452 126.628 98.6239 126.658 98.597 126.682C98.5701 126.707 98.5382 126.725 98.5036 126.735C97.1903 127.162 95.8503 127.345 94.4836 127.285C94.0903 127.265 93.957 127.069 94.0836 126.695C99.4703 111.075 108.017 97.7787 119.724 86.8054C166.614 42.8754 242.884 54.4354 273.724 111.365C273.944 111.765 273.827 111.979 273.374 112.005L269.554 112.225C269.517 112.228 269.481 112.221 269.449 112.204C269.416 112.187 269.388 112.162 269.368 112.131C269.348 112.1 269.336 112.064 269.334 112.026C269.331 111.988 269.338 111.95 269.354 111.915C269.407 111.809 269.46 111.702 269.514 111.595C269.567 111.495 269.567 111.399 269.514 111.305Z" fill="white"/>
<path d="M282.714 63.0354C282.507 62.7754 282.49 62.5154 282.664 62.2554C282.689 62.2181 282.723 62.1871 282.763 62.1648C282.802 62.1424 282.846 62.1294 282.891 62.1265C282.937 62.1236 282.982 62.131 283.024 62.1481C283.066 62.1652 283.103 62.1917 283.134 62.2254L287.244 66.6654C287.624 67.0654 287.55 67.1787 287.024 67.0054L283.044 65.6954C282.75 65.5954 282.47 65.6287 282.204 65.7954C281.75 66.0687 281.254 66.2087 280.714 66.2154C280.646 66.2133 280.581 66.1912 280.526 66.1518C280.471 66.1125 280.429 66.0576 280.405 65.9943C280.382 65.931 280.377 65.8621 280.393 65.7964C280.409 65.7307 280.444 65.6711 280.494 65.6254L282.644 63.7454C282.746 63.6597 282.81 63.5374 282.823 63.4046C282.837 63.2719 282.797 63.1394 282.714 63.0354Z" fill="black"/>
<path d="M272.334 80.6553L272.364 80.9554C272.371 81.0312 272.354 81.1074 272.315 81.1729C272.276 81.2384 272.217 81.2899 272.147 81.3199C272.077 81.35 271.999 81.357 271.925 81.34C271.851 81.323 271.784 81.2828 271.734 81.2254L267.964 77.0854C267.844 76.952 267.87 76.862 268.044 76.8154C271.024 75.9854 275.814 70.1954 278.854 67.3754C279.354 66.9154 279.937 66.7454 280.604 66.8654L284.304 67.5253C284.402 67.5429 284.493 67.5871 284.567 67.6532C284.641 67.7192 284.696 67.8045 284.725 67.8997C284.754 67.9949 284.756 68.0962 284.731 68.1924C284.706 68.2887 284.655 68.3763 284.584 68.4454L272.654 79.8054C272.414 80.032 272.307 80.3153 272.334 80.6553Z" fill="black"/>
<path d="M102.034 126.015C129.064 54.8253 227.214 46.4454 265.984 112.315C266.004 112.349 266.016 112.388 266.018 112.427C266.019 112.467 266.01 112.506 265.992 112.541C265.974 112.576 265.947 112.606 265.914 112.628C265.881 112.65 265.843 112.663 265.804 112.665L102.554 126.705C102.468 126.713 102.381 126.698 102.302 126.663C102.223 126.628 102.155 126.573 102.103 126.504C102.051 126.435 102.017 126.354 102.005 126.269C101.993 126.183 102.003 126.096 102.034 126.015Z" fill="white"/>
<path d="M80.8936 77.6354L82.7336 81.8254C82.9003 82.212 82.7736 82.3787 82.3536 82.3254C78.6236 81.8354 75.1136 86.4654 74.1336 89.4054C73.4603 91.4187 73.6036 93.3254 74.5636 95.1254C75.697 97.2654 77.4236 98.492 79.7436 98.8054C85.8636 99.6254 89.4336 93.7854 89.5836 88.3254C89.597 87.952 89.5003 87.6087 89.2936 87.2954L88.6936 86.3854C88.447 86.012 88.5503 85.8187 89.0036 85.8054L93.0336 85.7254C93.2936 85.7187 93.4103 85.8454 93.3836 86.1054C92.977 90.132 92.577 92.6987 92.1836 93.8054C90.0936 99.6254 85.1536 104.255 78.6836 103.465C75.3436 103.052 72.757 101.359 70.9236 98.3854C66.5236 91.2454 72.4036 82.1454 79.3236 79.1154C79.4903 79.042 79.7503 78.812 80.1036 78.4254C80.2836 78.2254 80.3803 77.9954 80.3936 77.7354C80.3936 77.6753 80.4144 77.617 80.4526 77.5705C80.4907 77.524 80.5437 77.4922 80.6026 77.4804C80.6616 77.4686 80.7228 77.4776 80.7758 77.5059C80.8289 77.5341 80.8705 77.5799 80.8936 77.6354Z" fill="black"/>
<path d="M287.404 98.4154L288.904 95.8254C289.002 95.6589 289.05 95.4677 289.043 95.2745C289.036 95.0813 288.974 94.8942 288.864 94.7354L284.024 87.7354C283.928 87.5956 283.794 87.4863 283.638 87.4207C283.482 87.355 283.31 87.3358 283.144 87.3654L280.254 87.8454C280.074 87.8739 279.909 87.9614 279.785 88.0939C279.662 88.2263 279.587 88.396 279.574 88.5754C279.554 88.8687 279.484 89.142 279.364 89.3954C279.17 89.802 278.947 89.8154 278.694 89.4354L275.304 84.3254C274.99 83.852 275.114 83.6587 275.674 83.7454C275.9 83.7787 276.097 83.8687 276.264 84.0154C276.354 84.0938 276.46 84.1514 276.574 84.1843C276.688 84.2171 276.808 84.2243 276.924 84.2054C283.244 83.332 289.554 82.4254 295.854 81.4854C296.174 81.432 296.43 81.3287 296.624 81.1754C296.91 80.942 297.077 80.6987 297.124 80.4454C297.297 79.512 297.677 79.482 298.264 80.3554L301.604 85.2754C301.924 85.7487 301.8 86.0054 301.234 86.0454L300.454 86.0954C300.08 86.122 299.8 86.2954 299.614 86.6154C296.467 92.0154 293.427 97.462 290.494 102.955C290.114 103.662 289.94 104.215 289.974 104.615C290.054 105.789 289.747 105.852 289.054 104.805L285.464 99.3954C285.411 99.3124 285.386 99.2146 285.392 99.1163C285.399 99.0181 285.437 98.9246 285.501 98.8496C285.565 98.7746 285.651 98.722 285.747 98.6997C285.843 98.6773 285.943 98.6863 286.034 98.7254C286.22 98.812 286.417 98.8554 286.624 98.8554C286.97 98.862 287.23 98.7154 287.404 98.4154ZM287.604 86.7854C287.552 86.7933 287.503 86.8141 287.462 86.846C287.42 86.8778 287.387 86.9196 287.366 86.9675C287.345 87.0154 287.337 87.0679 287.342 87.1199C287.346 87.172 287.364 87.222 287.394 87.2654L290.654 92.1454C290.682 92.1904 290.722 92.2273 290.769 92.2526C290.816 92.2778 290.868 92.2906 290.921 92.2896C290.975 92.2886 291.027 92.2738 291.073 92.2468C291.119 92.2198 291.157 92.1814 291.184 92.1354L294.774 86.1954C294.805 86.145 294.821 86.0868 294.82 86.0276C294.819 85.9684 294.802 85.9106 294.769 85.8612C294.736 85.8117 294.69 85.7726 294.636 85.7486C294.582 85.7245 294.522 85.7165 294.464 85.7254L287.604 86.7854Z" fill="black"/>
<path d="M287.604 86.7854L294.464 85.7254C294.522 85.7165 294.582 85.7245 294.636 85.7486C294.69 85.7726 294.736 85.8117 294.769 85.8612C294.802 85.9106 294.819 85.9684 294.82 86.0276C294.821 86.0868 294.805 86.145 294.774 86.1954L291.184 92.1354C291.157 92.1814 291.119 92.2198 291.073 92.2468C291.027 92.2738 290.975 92.2886 290.921 92.2896C290.868 92.2906 290.816 92.2778 290.769 92.2526C290.722 92.2273 290.682 92.1904 290.654 92.1454L287.394 87.2654C287.364 87.222 287.346 87.172 287.342 87.1199C287.337 87.0679 287.345 87.0154 287.366 86.9675C287.387 86.9196 287.42 86.8778 287.462 86.846C287.503 86.8141 287.552 86.7933 287.604 86.7854Z" fill="#F6B334"/>
<path d="M346.034 93.7554C346.034 95.1929 345.463 96.5715 344.446 97.588C343.43 98.6044 342.051 99.1754 340.614 99.1754C339.902 99.1754 339.197 99.0353 338.539 98.7629C337.882 98.4905 337.284 98.0913 336.781 97.588C336.278 97.0847 335.879 96.4872 335.606 95.8296C335.334 95.172 335.194 94.4672 335.194 93.7554C335.194 93.0437 335.334 92.3389 335.606 91.6813C335.879 91.0237 336.278 90.4262 336.781 89.9229C337.284 89.4196 337.882 89.0204 338.539 88.748C339.197 88.4756 339.902 88.3354 340.614 88.3354C342.051 88.3354 343.43 88.9065 344.446 89.9229C345.463 90.9394 346.034 92.318 346.034 93.7554ZM342.344 96.8854C341.877 95.9054 341.204 95.1021 340.324 94.4754C339.877 94.1621 339.687 94.2754 339.754 94.8154C339.847 95.5754 339.727 96.3021 339.394 96.9954C339.352 97.079 339.283 97.147 339.199 97.1884C339.115 97.2299 339.019 97.2423 338.928 97.2239C338.837 97.2055 338.756 97.1572 338.697 97.0867C338.638 97.0163 338.605 96.9278 338.604 96.8354L338.464 91.6854C338.457 91.3654 338.604 91.1588 338.904 91.0654C340.37 90.5921 341.657 90.8654 342.764 91.8854C342.897 92.0093 342.976 92.1806 342.983 92.3622C342.991 92.5438 342.926 92.7211 342.804 92.8554L342.334 93.3654C342.067 93.6588 342.044 93.9654 342.264 94.2854C342.704 94.9188 342.954 95.6188 343.014 96.3854C343.04 96.7521 343.2 96.8254 343.494 96.6054C346.334 94.4854 343.724 89.3554 340.294 89.5754C333.954 89.9754 336.674 100.895 342.684 97.2354C342.697 97.229 342.708 97.2188 342.715 97.206C342.722 97.1932 342.726 97.1782 342.725 97.1628C342.724 97.1473 342.718 97.1319 342.709 97.1183C342.7 97.1046 342.688 97.0933 342.674 97.0854L342.434 96.9754C342.394 96.9554 342.364 96.9254 342.344 96.8854ZM339.794 92.2754C339.76 92.3954 339.744 92.5221 339.744 92.6554C339.744 93.0288 339.93 93.2154 340.304 93.2154C340.55 93.2221 340.77 93.1554 340.964 93.0154C341.034 92.9649 341.09 92.8977 341.128 92.8198C341.166 92.742 341.183 92.656 341.179 92.5696C341.175 92.4832 341.15 92.3992 341.105 92.3251C341.06 92.2511 340.998 92.1893 340.924 92.1454L340.564 91.9354C340.157 91.7021 339.9 91.8154 339.794 92.2754Z" fill="#91121A"/>
<path d="M318.274 152.535L331.834 149.235C331.888 149.223 331.945 149.226 331.999 149.243C332.052 149.26 332.1 149.29 332.137 149.331C332.174 149.372 332.199 149.422 332.209 149.476C332.219 149.529 332.214 149.585 332.194 149.635L328.044 160.995C327.951 161.247 327.798 161.472 327.597 161.648C327.396 161.825 327.154 161.947 326.894 162.005C318.12 163.939 309.26 165.382 300.314 166.335C299.92 166.375 299.787 166.209 299.914 165.835C303.454 155.555 307.067 145.329 310.754 135.155C314.374 125.145 318.054 125.095 327.364 122.835C327.431 122.818 327.501 122.82 327.568 122.84C327.634 122.86 327.693 122.898 327.74 122.949C327.786 123.001 327.817 123.064 327.83 123.132C327.843 123.2 327.838 123.27 327.814 123.335L317.654 151.845C317.434 152.459 317.64 152.689 318.274 152.535Z" fill="white"/>
<path d="M281.774 162.225L271.774 163.135C271.38 163.169 271.087 163.362 270.894 163.715L268.164 168.675C268.056 168.873 267.9 169.041 267.71 169.164C267.52 169.288 267.301 169.364 267.074 169.385L252.744 170.585C252.675 170.591 252.606 170.577 252.544 170.545C252.483 170.514 252.432 170.465 252.396 170.406C252.361 170.347 252.343 170.279 252.344 170.21C252.345 170.141 252.366 170.073 252.404 170.015C260.03 158.575 267.327 146.949 274.294 135.135C275.354 133.342 276.91 131.762 278.964 130.395C280.417 129.422 282.277 128.815 284.544 128.575C288.63 128.142 292.704 127.759 296.764 127.425C296.904 127.412 296.974 127.479 296.974 127.625L297.404 166.175C297.404 166.502 297.244 166.679 296.924 166.705L282.494 168.135C282.08 168.175 281.897 167.989 281.944 167.575L282.394 162.865C282.44 162.399 282.234 162.185 281.774 162.225ZM283.024 151.835L284.494 138.795C284.527 138.469 284.417 138.412 284.164 138.625C284.05 138.712 283.954 138.839 283.874 139.005C281.674 143.405 279.42 147.819 277.114 152.245C276.854 152.739 277 152.965 277.554 152.925L282.284 152.555C282.724 152.515 282.97 152.275 283.024 151.835Z" fill="white"/>
<path d="M241.504 152.625C241.59 154.119 241.887 154.162 242.394 152.755L249.824 131.935C249.93 131.629 250.144 131.462 250.464 131.435L262.734 130.445C262.781 130.441 262.83 130.449 262.874 130.468C262.918 130.487 262.956 130.517 262.986 130.555C263.016 130.592 263.036 130.637 263.044 130.684C263.052 130.731 263.049 130.78 263.034 130.825L249.034 170.195C248.971 170.373 248.858 170.529 248.709 170.643C248.559 170.757 248.38 170.824 248.194 170.835L232.104 171.875C231.784 171.895 231.617 171.745 231.604 171.425L230.774 150.275C230.72 148.995 230.48 148.959 230.054 150.165L222.324 171.995C222.204 172.322 221.97 172.499 221.624 172.525L209.524 173.455C209.446 173.461 209.368 173.448 209.297 173.417C209.226 173.386 209.164 173.337 209.117 173.276C209.07 173.215 209.04 173.144 209.029 173.069C209.018 172.993 209.026 172.916 209.054 172.845C212.507 163.499 215.86 154.175 219.114 144.875C220.4 141.189 221.667 138.659 222.914 137.285C227.074 132.685 233.704 132.455 239.904 132.425C240.17 132.425 240.314 132.559 240.334 132.825L241.504 152.625Z" fill="white"/>
<path d="M211.763 138.231C214.721 141.448 215.601 146.334 214.209 151.813C212.816 157.292 209.266 162.915 204.339 167.446C201.899 169.69 199.194 171.598 196.379 173.061C193.565 174.524 190.695 175.514 187.934 175.974C185.173 176.434 182.575 176.355 180.288 175.741C178 175.128 176.069 173.993 174.605 172.4C171.646 169.182 170.766 164.297 172.159 158.818C173.551 153.339 177.101 147.715 182.029 143.184C184.469 140.941 187.173 139.033 189.988 137.57C192.802 136.107 195.672 135.117 198.433 134.657C201.194 134.197 203.793 134.276 206.08 134.889C208.367 135.502 210.298 136.638 211.763 138.231ZM198.104 145.285C192.274 142.955 188.124 158.185 187.274 162.095C186.88 163.915 187.344 165.129 188.664 165.735C188.912 165.85 189.183 165.906 189.456 165.897C189.728 165.888 189.995 165.816 190.234 165.685C195.554 162.745 198.264 152.915 199.264 147.375C199.343 146.947 199.27 146.504 199.059 146.122C198.847 145.741 198.509 145.445 198.104 145.285Z" fill="white"/>
<path d="M177.624 137.265L163.834 175.935C163.786 176.064 163.704 176.175 163.598 176.257C163.491 176.339 163.365 176.387 163.234 176.395L148.504 177.535C148.117 177.569 147.987 177.402 148.114 177.035C151.527 167.542 154.914 158.025 158.274 148.485C159.574 144.812 160.964 142.269 162.444 140.855C166.464 137.015 171.794 136.805 177.134 136.595C177.627 136.575 177.79 136.799 177.624 137.265Z" fill="white"/>
<path d="M284.494 138.795L283.024 151.835C282.97 152.275 282.724 152.515 282.284 152.555L277.554 152.925C277 152.965 276.854 152.739 277.114 152.245C279.42 147.819 281.674 143.405 283.874 139.005C283.954 138.839 284.05 138.712 284.164 138.625C284.417 138.412 284.527 138.469 284.494 138.795Z" fill="#91121A"/>
<path d="M134.904 164.455L129.734 164.855C129.629 164.864 129.523 164.845 129.428 164.801C129.332 164.757 129.249 164.689 129.188 164.603C129.127 164.517 129.088 164.417 129.077 164.313C129.066 164.208 129.082 164.102 129.124 164.005C131.534 158.425 134.694 156.795 140.924 156.325C144.537 156.052 148.26 155.805 152.094 155.585C152.534 155.565 152.68 155.762 152.534 156.175L145.314 176.335C145.2 176.662 144.977 176.865 144.644 176.945C136.764 178.985 124.194 181.585 117.364 178.505C109.084 174.755 109.714 165.245 113.314 157.775C118.914 146.155 128.144 139.762 141.004 138.595C148.454 137.925 159.544 141.065 154.124 151.255C154.019 151.451 153.867 151.617 153.682 151.738C153.496 151.859 153.284 151.93 153.064 151.945L140.274 152.805C140.209 152.808 140.144 152.795 140.086 152.767C140.028 152.739 139.978 152.697 139.941 152.645C139.904 152.593 139.881 152.532 139.874 152.469C139.868 152.406 139.878 152.343 139.904 152.285L140.354 151.295C140.443 151.096 140.489 150.88 140.49 150.661C140.49 150.442 140.444 150.226 140.356 150.026C140.267 149.826 140.137 149.647 139.975 149.501C139.813 149.354 139.622 149.243 139.414 149.175C131.224 146.485 127.854 160.355 126.344 165.845C124.884 171.155 130.284 170.395 133.454 169.075C133.767 168.942 133.987 168.715 134.114 168.395L135.374 165.085C135.403 165.012 135.413 164.933 135.403 164.854C135.393 164.776 135.363 164.702 135.316 164.638C135.269 164.575 135.206 164.525 135.134 164.493C135.061 164.461 134.982 164.448 134.904 164.455Z" fill="white"/>
<path d="M98.7636 157.165L106.254 156.555C106.317 156.55 106.382 156.561 106.44 156.587C106.499 156.613 106.55 156.654 106.59 156.705C106.629 156.757 106.656 156.817 106.667 156.882C106.678 156.946 106.673 157.013 106.654 157.075L103.634 165.575C103.491 165.981 103.232 166.336 102.889 166.596C102.545 166.856 102.133 167.009 101.704 167.035L94.7636 167.455C94.5903 167.469 94.4736 167.559 94.4136 167.725L93.1436 171.325C93.13 171.365 93.1263 171.408 93.1327 171.449C93.1392 171.491 93.1557 171.53 93.1806 171.563C93.2056 171.596 93.2382 171.622 93.2754 171.638C93.3127 171.654 93.3533 171.66 93.3936 171.655L107.194 170.465C107.64 170.425 107.787 170.619 107.634 171.045L104.254 180.415C104.154 180.689 103.957 180.842 103.664 180.875L74.7336 183.675C74.427 183.702 74.3269 183.572 74.4336 183.285C77.8536 173.672 81.287 164.022 84.7336 154.335C87.2736 147.205 89.9736 143.215 97.5236 142.465C104.284 141.785 111.09 141.195 117.944 140.695C117.995 140.691 118.047 140.699 118.094 140.72C118.142 140.741 118.183 140.773 118.215 140.813C118.247 140.854 118.268 140.902 118.276 140.953C118.285 141.004 118.28 141.056 118.264 141.105L114.794 150.845C114.64 151.272 114.334 151.505 113.874 151.545L100.494 152.635C100.276 152.653 100.067 152.733 99.8934 152.866C99.7196 152.999 99.5878 153.179 99.5136 153.385L98.3436 156.615C98.197 157.015 98.337 157.199 98.7636 157.165Z" fill="white"/>
<path d="M70.5136 166.445C71.2536 166.445 71.9403 166.642 72.5736 167.035C72.867 167.215 73.0836 167.465 73.2236 167.785C75.3136 172.655 68.2036 179.495 71.1636 183.735C71.3636 184.015 71.2936 184.179 70.9536 184.225C66.7736 184.812 62.6336 185.459 58.5336 186.165C57.567 186.325 56.9236 186.242 56.6036 185.915C56.2547 185.552 56.0155 185.095 55.913 184.595C55.8105 184.095 55.8488 183.572 56.0236 183.085L58.6236 175.755C58.7309 175.453 58.7574 175.128 58.7004 174.813C58.6434 174.497 58.505 174.202 58.2989 173.957C58.0928 173.711 57.8261 173.524 57.5252 173.413C57.2243 173.302 56.8998 173.272 56.5836 173.325L54.7436 173.625C53.1103 173.899 52.0203 174.812 51.4736 176.365L47.4436 187.715C47.3436 187.995 47.1503 188.169 46.8636 188.235L32.7036 191.435C32.2103 191.542 32.0503 191.359 32.2236 190.885C36.0836 179.932 39.917 169.215 43.7236 158.735C48.2036 146.405 57.1236 146.705 68.4836 145.135C74.1536 144.355 81.6736 147.355 79.6736 154.375C78.167 159.655 75.0503 163.435 70.3236 165.715C69.3236 166.202 69.387 166.445 70.5136 166.445ZM57.5436 164.695L59.4636 164.015C61.0969 163.442 62.4536 162.479 63.5336 161.125C64.4869 159.925 64.9636 158.555 64.9636 157.015C64.9638 156.837 64.912 156.662 64.8145 156.511C64.717 156.36 64.5778 156.24 64.4136 156.165C62.567 155.339 60.7403 155.385 58.9336 156.305C58.6736 156.439 58.497 156.642 58.4036 156.915L56.1436 163.305C55.6369 164.745 56.1036 165.209 57.5436 164.695Z" fill="white"/>
<path d="M187.274 162.095C188.124 158.185 192.274 142.955 198.104 145.285C198.509 145.445 198.847 145.741 199.059 146.122C199.27 146.504 199.343 146.947 199.264 147.375C198.264 152.915 195.554 162.745 190.234 165.685C189.995 165.816 189.728 165.888 189.456 165.897C189.183 165.906 188.912 165.85 188.664 165.735C187.344 165.129 186.88 163.915 187.274 162.095Z" fill="#91121A"/>
<path d="M56.1436 163.305L58.4036 156.915C58.497 156.642 58.6736 156.439 58.9336 156.305C60.7403 155.385 62.567 155.339 64.4136 156.165C64.5778 156.24 64.717 156.36 64.8145 156.511C64.912 156.662 64.9638 156.837 64.9636 157.015C64.9636 158.555 64.4869 159.925 63.5336 161.125C62.4536 162.479 61.0969 163.442 59.4636 164.015L57.5436 164.695C56.1036 165.209 55.6369 164.745 56.1436 163.305Z" fill="#91121A"/>
<path d="M38.8536 213.065C29.9336 215.479 21.0903 218.565 12.3236 222.325C11.9903 222.465 11.8769 222.365 11.9836 222.025L15.0836 211.955C38.5736 204.035 64.1236 199.605 88.7736 197.385C148.874 191.955 209.084 188.665 269.264 184.325C282.934 183.335 301.424 181.795 317.254 179.095C325.3 177.729 332.687 174.772 339.414 170.225C339.687 170.032 339.807 170.105 339.774 170.445C335.78 210.579 319.41 243.975 290.664 270.635C259.364 299.645 216.914 314.185 174.274 310.435C115.324 305.255 65.6336 267.515 44.3236 212.145C44.1903 211.799 43.9436 211.675 43.5836 211.775L38.8536 213.065ZM111.734 209.325C121.534 223.645 134.367 234.319 150.234 241.345C150.269 241.361 150.308 241.369 150.347 241.367C150.387 241.366 150.425 241.355 150.459 241.337C150.494 241.319 150.524 241.293 150.547 241.262C150.571 241.23 150.586 241.194 150.594 241.155C152.814 229.035 158.78 220.062 168.494 214.235C188.624 202.165 213.184 211.415 221.704 232.625C222.754 235.225 223.324 238.175 223.854 241.065C223.927 241.459 224.147 241.569 224.514 241.395C247.174 230.822 263.104 213.862 272.304 190.515C272.764 189.355 273.314 188.229 273.954 187.135C274.05 186.971 274.099 186.783 274.095 186.592C274.092 186.401 274.036 186.215 273.933 186.054C273.831 185.893 273.687 185.763 273.516 185.679C273.345 185.594 273.154 185.559 272.964 185.575C242.664 188.415 212.314 190.655 181.984 193.155C157.264 195.195 132.584 198.005 107.854 200.965C107.766 200.975 107.683 201.005 107.61 201.053C107.536 201.101 107.476 201.166 107.433 201.242C107.39 201.318 107.366 201.404 107.362 201.491C107.359 201.579 107.376 201.666 107.414 201.745C108.614 204.339 110.054 206.865 111.734 209.325ZM280.394 186.615L278.974 186.655C278.16 186.682 277.62 187.079 277.354 187.845C267.974 214.592 250.39 233.805 224.604 245.485C224.237 245.652 224.047 245.935 224.034 246.335L223.924 249.025C223.91 249.425 224.087 249.545 224.454 249.385C252.427 237.185 271.36 216.652 281.254 187.785C281.527 186.979 281.24 186.589 280.394 186.615ZM102.634 208.005C102.634 208.099 102.637 208.192 102.644 208.285C102.664 208.459 102.727 208.635 102.834 208.815C114.274 227.429 130.06 240.925 150.194 249.305C150.42 249.399 150.53 249.325 150.524 249.085L150.494 246.085C150.494 245.799 150.36 245.595 150.094 245.475C129.494 236.362 113.867 221.872 103.214 202.005C103.04 201.685 102.77 201.535 102.404 201.555L99.7536 201.705C99.367 201.732 99.2503 201.925 99.4036 202.285C100.204 204.152 101.22 205.882 102.454 207.475C102.574 207.629 102.634 207.805 102.634 208.005ZM221.674 245.715C221.674 236.595 218.05 227.847 211.601 221.398C205.152 214.949 196.404 211.325 187.284 211.325C178.163 211.325 169.416 214.949 162.966 221.398C156.517 227.847 152.894 236.595 152.894 245.715C152.894 254.836 156.517 263.583 162.966 270.033C169.416 276.482 178.163 280.105 187.284 280.105C196.404 280.105 205.152 276.482 211.601 270.033C218.05 263.583 221.674 254.836 221.674 245.715ZM96.6136 260.585C96.6136 260.047 96.3997 259.531 96.0191 259.15C95.6384 258.769 95.122 258.555 94.5836 258.555C94.0452 258.555 93.5289 258.769 93.1482 259.15C92.7675 259.531 92.5536 260.047 92.5536 260.585C92.5536 261.124 92.7675 261.64 93.1482 262.021C93.5289 262.401 94.0452 262.615 94.5836 262.615C95.122 262.615 95.6384 262.401 96.0191 262.021C96.3997 261.64 96.6136 261.124 96.6136 260.585ZM281.849 260.319C281.787 259.792 281.507 259.313 281.07 258.987C280.634 258.66 280.076 258.514 279.52 258.579C279.245 258.611 278.979 258.695 278.736 258.824C278.494 258.954 278.28 259.128 278.107 259.335C277.934 259.542 277.805 259.779 277.728 260.033C277.651 260.286 277.627 260.551 277.658 260.812C277.72 261.338 278 261.818 278.437 262.144C278.874 262.47 279.431 262.617 279.987 262.552C280.262 262.519 280.529 262.436 280.771 262.306C281.014 262.177 281.227 262.003 281.4 261.796C281.573 261.589 281.702 261.351 281.779 261.098C281.856 260.845 281.88 260.58 281.849 260.319ZM108.324 265.475L102.874 273.645C102.839 273.697 102.825 273.761 102.836 273.823C102.848 273.884 102.883 273.939 102.934 273.975L107.654 277.125C108.194 277.487 108.801 277.739 109.438 277.867C110.076 277.996 110.732 277.997 111.369 277.871C112.006 277.746 112.612 277.496 113.152 277.137C113.691 276.777 114.154 276.314 114.514 275.775L114.754 275.405C115.113 274.867 115.363 274.262 115.488 273.627C115.613 272.991 115.612 272.336 115.484 271.7C115.356 271.064 115.103 270.459 114.741 269.919C114.379 269.38 113.914 268.916 113.374 268.555L108.654 265.415C108.602 265.38 108.538 265.367 108.476 265.378C108.415 265.389 108.36 265.424 108.324 265.475ZM267.884 271.715C268.704 274.165 266.574 276.215 264.164 275.895C263.864 275.855 263.71 275.985 263.704 276.285L263.674 277.835C263.667 278.082 263.784 278.172 264.024 278.105C268.864 276.735 273.404 272.335 267.944 267.855C261.764 262.785 255.624 274.845 263.364 274.445C265.114 274.355 266.414 273.005 267.274 271.645C267.527 271.239 267.73 271.262 267.884 271.715ZM124.584 282.505C124.612 282.419 124.658 282.34 124.719 282.273C124.78 282.206 124.855 282.153 124.938 282.117C125.021 282.081 125.111 282.063 125.202 282.065C125.292 282.066 125.382 282.087 125.464 282.125L128.734 283.695C129.174 283.909 129.537 283.815 129.824 283.415L130.074 283.075C130.34 282.702 130.26 282.425 129.834 282.245L126.614 280.915C126.08 280.689 125.9 280.299 126.074 279.745L126.364 278.825C126.394 278.729 126.446 278.641 126.514 278.567C126.583 278.493 126.667 278.435 126.76 278.396C126.854 278.358 126.954 278.341 127.055 278.346C127.156 278.351 127.254 278.378 127.344 278.425L132.914 281.405C133.054 281.485 133.157 281.452 133.224 281.305L134.014 279.615C134.04 279.549 134.02 279.505 133.954 279.485C131.014 278.379 128.147 277.092 125.354 275.625C125.29 275.593 125.217 275.584 125.147 275.6C125.077 275.617 125.016 275.657 124.974 275.715C124.854 275.882 124.857 276.025 124.984 276.145C125.03 276.189 125.062 276.247 125.074 276.309C125.087 276.372 125.079 276.437 125.054 276.495L121.174 284.545C121.06 284.779 121.12 284.955 121.354 285.075L129.774 289.255C129.834 289.289 129.874 289.272 129.894 289.205L130.444 287.565C130.47 287.485 130.447 287.425 130.374 287.385L124.554 284.745C124.147 284.559 124.014 284.255 124.154 283.835L124.584 282.505ZM249.184 284.165C250.684 281.995 254.404 278.785 250.934 276.405C248.104 274.465 244.884 277.465 243.784 279.915C243.67 280.182 243.74 280.379 243.994 280.505L245.304 281.175C245.704 281.382 245.917 281.259 245.944 280.805C246.037 279.325 246.77 278.395 248.144 278.015C248.624 277.889 249.037 277.945 249.384 278.185C249.844 278.505 250.034 278.945 249.954 279.505C249.9 279.899 249.627 280.385 249.134 280.965C247.284 283.145 246.104 284.915 246.924 287.755C246.99 287.982 247.13 288.042 247.344 287.935L255.324 283.915C255.664 283.749 255.74 283.502 255.554 283.175L255.044 282.285C254.937 282.099 254.784 282.055 254.584 282.155L249.684 284.735C249.606 284.776 249.517 284.789 249.431 284.773C249.345 284.757 249.267 284.713 249.209 284.647C249.152 284.581 249.118 284.498 249.113 284.411C249.108 284.323 249.133 284.237 249.184 284.165ZM234.654 289.035C234.7 289.522 234.58 289.965 234.294 290.365C233.114 291.992 231.56 292.499 229.634 291.885C229.287 291.772 229.047 291.885 228.914 292.225C228.827 292.432 228.794 292.715 228.814 293.075C228.82 293.272 228.87 293.464 228.96 293.639C229.05 293.813 229.178 293.966 229.334 294.085C229.489 294.205 229.67 294.288 229.862 294.33C230.054 294.371 230.252 294.37 230.444 294.325C234.257 293.419 236.267 291.609 236.474 288.895C236.814 284.365 232.134 281.395 228.264 284.205C223.074 287.975 229.814 293.425 234.124 288.455C234.16 288.414 234.207 288.384 234.26 288.369C234.313 288.355 234.369 288.356 234.422 288.373C234.474 288.39 234.52 288.422 234.554 288.465C234.588 288.508 234.609 288.561 234.614 288.615L234.654 289.035ZM146.024 292.785C143.914 293.175 141.864 291.625 140.784 290.025C140.69 289.885 140.584 289.879 140.464 290.005L139.254 291.325C139.154 291.439 139.157 291.549 139.264 291.655C140.804 293.229 142.634 294.192 144.754 294.545C146.874 294.895 149.544 293.835 149.234 291.345C148.964 289.255 145.864 288.165 144.104 287.455C143.987 287.408 143.88 287.338 143.791 287.25C143.701 287.161 143.63 287.056 143.582 286.939C143.534 286.823 143.509 286.698 143.509 286.572C143.509 286.446 143.535 286.321 143.584 286.205C144.177 284.759 146.004 285.349 149.064 287.975C149.55 288.395 149.927 288.312 150.194 287.725L150.404 287.275C150.617 286.809 150.51 286.432 150.084 286.145C145.057 282.699 142.127 282.892 141.294 286.725C141.189 287.207 141.249 287.709 141.465 288.152C141.681 288.595 142.04 288.952 142.484 289.165L146.264 290.985C146.448 291.07 146.601 291.212 146.699 291.39C146.797 291.568 146.835 291.773 146.808 291.974C146.781 292.175 146.691 292.363 146.549 292.509C146.408 292.655 146.224 292.752 146.024 292.785ZM212.724 289.705C212.604 289.692 212.484 289.655 212.364 289.595C212.07 289.462 211.934 289.559 211.954 289.885L212.044 291.365C212.064 291.705 212.227 291.799 212.534 291.645L213.034 291.405C213.407 291.219 213.664 291.322 213.804 291.715C214.504 293.789 214.844 295.915 214.824 298.095C214.824 298.242 214.897 298.299 215.044 298.265L217.254 297.815C217.36 297.789 217.404 297.722 217.384 297.615L215.314 287.745C215.28 287.585 215.184 287.539 215.024 287.605C214.55 287.805 214.05 287.915 213.524 287.935C213.441 287.938 213.361 287.96 213.289 287.998C213.216 288.037 213.153 288.092 213.105 288.158C213.057 288.225 213.024 288.301 213.01 288.382C212.996 288.463 213.001 288.546 213.024 288.625L213.194 289.155C213.327 289.582 213.17 289.765 212.724 289.705ZM159.864 288.155L158.284 297.835C158.272 297.911 158.291 297.988 158.336 298.05C158.381 298.112 158.448 298.153 158.524 298.165L163.894 299.045C165.278 299.27 166.691 298.955 167.824 298.17C168.956 297.384 169.715 296.192 169.934 294.855L169.964 294.695C170.183 293.358 169.844 291.986 169.021 290.879C168.198 289.773 166.958 289.023 165.574 288.795L160.204 287.915C160.165 287.908 160.126 287.909 160.088 287.917C160.05 287.925 160.015 287.941 159.983 287.963C159.951 287.986 159.924 288.014 159.904 288.047C159.883 288.08 159.87 288.117 159.864 288.155ZM182.024 294.345L182.014 292.765C182.014 292.372 182.21 292.182 182.604 292.195L189.074 292.405C189.154 292.405 189.197 292.365 189.204 292.285L189.254 290.905C189.26 290.779 189.2 290.715 189.074 290.715L180.154 290.555C179.874 290.549 179.734 290.685 179.734 290.965L179.644 300.345C179.637 300.652 179.787 300.785 180.094 300.745C182.987 300.345 185.834 300.519 188.634 301.265C189.027 301.372 189.22 301.222 189.214 300.815L189.204 299.555C189.204 299.242 189.047 299.082 188.734 299.075L182.704 298.985C182.25 298.979 182.02 298.745 182.014 298.285V297.045C182.014 296.592 182.237 296.342 182.684 296.295C183.95 296.149 185.207 296.215 186.454 296.495C186.82 296.575 187.007 296.429 187.014 296.055L187.024 295.115C187.03 294.789 186.87 294.632 186.544 294.645L182.524 294.825C182.19 294.839 182.024 294.679 182.024 294.345Z" fill="#F6B334"/>
<path d="M111.734 209.325C110.054 206.865 108.614 204.339 107.414 201.745C107.376 201.666 107.359 201.579 107.362 201.491C107.366 201.404 107.39 201.318 107.433 201.242C107.476 201.166 107.536 201.101 107.61 201.053C107.683 201.005 107.766 200.975 107.854 200.965C132.584 198.005 157.264 195.195 181.984 193.155C212.314 190.655 242.664 188.415 272.964 185.575C273.154 185.559 273.345 185.594 273.516 185.679C273.687 185.763 273.831 185.893 273.933 186.054C274.036 186.215 274.092 186.401 274.095 186.592C274.099 186.783 274.05 186.971 273.954 187.135C273.314 188.229 272.764 189.355 272.304 190.515C263.104 213.862 247.174 230.822 224.514 241.395C224.147 241.569 223.927 241.459 223.854 241.065C223.324 238.175 222.754 235.225 221.704 232.625C213.184 211.415 188.624 202.165 168.494 214.235C158.78 220.062 152.814 229.035 150.594 241.155C150.586 241.194 150.571 241.23 150.547 241.262C150.524 241.293 150.494 241.319 150.459 241.337C150.425 241.355 150.387 241.366 150.347 241.367C150.308 241.369 150.269 241.361 150.234 241.345C134.367 234.319 121.534 223.645 111.734 209.325Z" fill="white"/>
<path d="M280.394 186.615C281.24 186.589 281.527 186.979 281.254 187.785C271.36 216.652 252.427 237.185 224.454 249.385C224.087 249.545 223.91 249.425 223.924 249.025L224.034 246.335C224.047 245.935 224.237 245.652 224.604 245.485C250.39 233.805 267.974 214.592 277.354 187.845C277.62 187.079 278.16 186.682 278.974 186.655L280.394 186.615Z" fill="white"/>
<path d="M102.454 207.475C101.22 205.882 100.204 204.152 99.4036 202.285C99.2503 201.925 99.367 201.732 99.7536 201.705L102.404 201.555C102.77 201.535 103.04 201.685 103.214 202.005C113.867 221.872 129.494 236.362 150.094 245.475C150.36 245.595 150.494 245.799 150.494 246.085L150.524 249.085C150.53 249.325 150.42 249.399 150.194 249.305C130.06 240.925 114.274 227.429 102.834 208.815C102.727 208.635 102.664 208.459 102.644 208.285C102.637 208.192 102.634 208.099 102.634 208.005C102.634 207.805 102.574 207.629 102.454 207.475Z" fill="white"/>
<path d="M221.674 245.715C221.674 254.836 218.05 263.583 211.601 270.033C205.152 276.482 196.404 280.105 187.284 280.105C178.163 280.105 169.416 276.482 162.966 270.033C156.517 263.583 152.894 254.836 152.894 245.715C152.894 236.595 156.517 227.847 162.966 221.398C169.416 214.949 178.163 211.325 187.284 211.325C196.404 211.325 205.152 214.949 211.601 221.398C218.05 227.847 221.674 236.595 221.674 245.715ZM180.454 229.115L181.604 235.065C181.635 235.229 181.7 235.383 181.795 235.518C181.89 235.652 182.012 235.764 182.154 235.845C184.614 237.299 186.25 239.379 187.064 242.085C187.25 242.692 187.424 242.689 187.584 242.075C188.177 239.849 189.217 238.172 190.704 237.045C191.964 236.085 192.774 235.835 193.104 234.165C193.464 232.339 193.814 230.512 194.154 228.685C194.18 228.539 194.267 228.475 194.414 228.495L194.664 228.535C194.67 228.535 194.674 228.539 194.674 228.545L193.204 241.385C193.177 241.608 193.216 241.833 193.314 242.035C193.56 242.529 193.707 243.039 193.754 243.565C194.274 249.305 192.517 254.135 188.484 258.055C188.37 258.165 188.282 258.299 188.223 258.447C188.164 258.595 188.137 258.755 188.144 258.915L188.364 263.495C188.384 263.882 188.587 264.079 188.974 264.085C195.574 264.185 202.1 264.925 208.554 266.305C208.767 266.354 208.99 266.342 209.198 266.272C209.407 266.201 209.592 266.074 209.734 265.905C214.427 260.312 216.97 254.199 217.364 247.565C218.444 229.445 203.204 214.015 184.694 215.575C159.504 217.705 148.684 247.595 165.004 266.045C165.257 266.332 165.57 266.439 165.944 266.365C172.094 265.175 178.354 264.265 185.704 264.105C186.044 264.092 186.227 263.919 186.254 263.585L186.594 259.125C186.62 258.779 186.524 258.475 186.304 258.215C184.074 255.565 182.474 254.555 181.414 250.465C181.027 248.965 180.65 246.149 180.284 242.015C180.281 241.986 180.284 241.957 180.293 241.929C180.303 241.901 180.318 241.875 180.338 241.854C180.357 241.832 180.381 241.815 180.408 241.803C180.435 241.791 180.464 241.785 180.494 241.785H180.804C180.815 241.785 180.827 241.789 180.836 241.796C180.845 241.804 180.851 241.814 180.854 241.825C181.007 243.445 181.39 245.012 182.004 246.525C182.137 246.845 182.354 247.085 182.654 247.245C184.814 248.419 186.3 250.162 187.114 252.475C187.137 252.544 187.182 252.602 187.243 252.641C187.304 252.68 187.376 252.698 187.447 252.691C187.519 252.684 187.586 252.653 187.638 252.603C187.69 252.553 187.724 252.487 187.734 252.415C188.284 248.075 194.054 247.955 193.024 243.025C192.757 241.739 192.474 241.735 192.174 243.015C191.744 244.815 188.704 248.845 186.354 247.745C180.714 245.095 180.094 234.575 180.434 229.115C180.434 229.049 180.44 229.049 180.454 229.115Z" fill="#91121A"/>
<path d="M180.434 229.115C180.094 234.575 180.714 245.095 186.354 247.745C188.704 248.845 191.744 244.815 192.174 243.015C192.474 241.735 192.757 241.739 193.024 243.025C194.054 247.955 188.284 248.075 187.734 252.415C187.724 252.487 187.69 252.553 187.638 252.603C187.586 252.653 187.519 252.684 187.447 252.691C187.376 252.698 187.304 252.68 187.243 252.641C187.182 252.602 187.137 252.544 187.114 252.475C186.3 250.162 184.814 248.419 182.654 247.245C182.354 247.085 182.137 246.845 182.004 246.525C181.39 245.012 181.007 243.445 180.854 241.825C180.851 241.814 180.845 241.804 180.836 241.796C180.827 241.789 180.815 241.785 180.804 241.785H180.494C180.464 241.785 180.435 241.791 180.408 241.803C180.381 241.815 180.357 241.832 180.338 241.854C180.318 241.875 180.303 241.901 180.293 241.929C180.284 241.957 180.281 241.986 180.284 242.015C180.65 246.149 181.027 248.965 181.414 250.465C182.474 254.555 184.074 255.565 186.304 258.215C186.524 258.475 186.62 258.779 186.594 259.125L186.254 263.585C186.227 263.919 186.044 264.092 185.704 264.105C178.354 264.265 172.094 265.175 165.944 266.365C165.57 266.439 165.257 266.332 165.004 266.045C148.684 247.595 159.504 217.705 184.694 215.575C203.204 214.015 218.444 229.445 217.364 247.565C216.97 254.199 214.427 260.312 209.734 265.905C209.592 266.074 209.407 266.201 209.198 266.272C208.99 266.342 208.767 266.354 208.554 266.305C202.1 264.925 195.574 264.185 188.974 264.085C188.587 264.079 188.384 263.882 188.364 263.495L188.144 258.915C188.137 258.755 188.164 258.595 188.223 258.447C188.282 258.299 188.37 258.165 188.484 258.055C192.517 254.135 194.274 249.305 193.754 243.565C193.707 243.039 193.56 242.529 193.314 242.035C193.216 241.833 193.177 241.608 193.204 241.385L194.674 228.545C194.674 228.539 194.67 228.535 194.664 228.535L194.414 228.495C194.267 228.475 194.18 228.539 194.154 228.685C193.814 230.512 193.464 232.339 193.104 234.165C192.774 235.835 191.964 236.085 190.704 237.045C189.217 238.172 188.177 239.849 187.584 242.075C187.424 242.689 187.25 242.692 187.064 242.085C186.25 239.379 184.614 237.299 182.154 235.845C182.012 235.764 181.89 235.652 181.795 235.518C181.7 235.383 181.635 235.229 181.604 235.065L180.454 229.115C180.44 229.049 180.434 229.049 180.434 229.115ZM187.424 220.395C186.214 226.745 181.914 231.895 187.154 237.905C187.178 237.931 187.207 237.951 187.239 237.965C187.271 237.979 187.305 237.985 187.34 237.984C187.374 237.983 187.407 237.975 187.437 237.96C187.467 237.944 187.493 237.922 187.514 237.895C190.084 234.535 190.674 231.285 189.004 227.225C188.11 225.072 187.687 222.809 187.734 220.435C187.734 220.342 187.687 220.289 187.594 220.275H187.584C187.497 220.269 187.444 220.309 187.424 220.395ZM177.984 238.745C171.104 234.355 158.374 235.075 158.164 245.325C157.944 256.185 170.384 257.635 177.464 253.065C177.75 252.879 178.064 252.769 178.404 252.735L179.024 252.675C179.537 252.629 179.65 252.392 179.364 251.965L177.294 248.925C177.007 248.505 176.75 248.522 176.524 248.975L176.274 249.495C176.114 249.815 175.887 250.079 175.594 250.285C172.24 252.645 168.894 252.905 165.554 251.065C161.894 249.035 161.674 243.915 164.794 241.265C167.984 238.565 174.114 238.985 176.674 242.605C176.887 242.912 177.1 242.912 177.314 242.605L179.554 239.315C179.602 239.249 179.627 239.17 179.627 239.088C179.626 239.006 179.599 238.927 179.549 238.862C179.5 238.797 179.431 238.749 179.352 238.726C179.274 238.704 179.19 238.707 179.114 238.735L178.824 238.845C178.524 238.945 178.244 238.912 177.984 238.745ZM201.014 247.565L204.454 247.575C204.639 247.576 204.82 247.622 204.983 247.709C205.145 247.796 205.283 247.922 205.384 248.075L208.624 252.835C208.817 253.122 208.877 253.432 208.804 253.765C208.784 253.872 208.757 253.972 208.724 254.065C208.577 254.432 208.704 254.615 209.104 254.615H214.024C214.577 254.609 214.687 254.385 214.354 253.945L209.894 248.065C209.6 247.692 209.684 247.439 210.144 247.305C215.804 245.655 214.934 237.525 210.004 237.165C208.064 237.025 203.52 237.025 196.374 237.165C196.294 237.166 196.216 237.189 196.149 237.232C196.081 237.275 196.028 237.336 195.994 237.409C195.961 237.481 195.948 237.562 195.959 237.641C195.969 237.72 196.002 237.794 196.054 237.855L196.294 238.165C196.455 238.365 196.544 238.612 196.544 238.865V252.855C196.544 253.222 196.43 253.545 196.204 253.825L196.004 254.075C195.965 254.121 195.941 254.176 195.933 254.235C195.925 254.294 195.935 254.354 195.96 254.407C195.985 254.461 196.025 254.506 196.076 254.538C196.126 254.57 196.184 254.586 196.244 254.585L201.054 254.555C201.5 254.549 201.57 254.382 201.264 254.055L200.864 253.625C200.61 253.359 200.484 253.042 200.484 252.675V248.095C200.484 247.742 200.66 247.565 201.014 247.565Z" fill="#F6B334"/>
<path d="M187.424 220.395C187.444 220.309 187.497 220.269 187.584 220.275H187.594C187.687 220.289 187.734 220.342 187.734 220.435C187.687 222.809 188.11 225.072 189.004 227.225C190.674 231.285 190.084 234.535 187.514 237.895C187.493 237.922 187.467 237.944 187.437 237.96C187.407 237.975 187.374 237.983 187.34 237.984C187.305 237.985 187.271 237.979 187.239 237.965C187.207 237.951 187.178 237.931 187.154 237.905C181.914 231.895 186.214 226.745 187.424 220.395Z" fill="#91121A"/>
<path d="M178.824 238.845L179.114 238.735C179.19 238.707 179.274 238.704 179.352 238.726C179.431 238.749 179.5 238.797 179.549 238.862C179.599 238.927 179.626 239.006 179.627 239.088C179.627 239.17 179.602 239.249 179.554 239.315L177.314 242.605C177.1 242.912 176.887 242.912 176.674 242.605C174.114 238.985 167.984 238.565 164.794 241.265C161.674 243.915 161.894 249.035 165.554 251.065C168.894 252.905 172.24 252.645 175.594 250.285C175.887 250.079 176.114 249.815 176.274 249.495L176.524 248.975C176.75 248.522 177.007 248.505 177.294 248.925L179.364 251.965C179.65 252.392 179.537 252.629 179.024 252.675L178.404 252.735C178.064 252.769 177.75 252.879 177.464 253.065C170.384 257.635 157.944 256.185 158.164 245.325C158.374 235.075 171.104 234.355 177.984 238.745C178.244 238.912 178.524 238.945 178.824 238.845Z" fill="#91121A"/>
<path d="M200.484 248.095V252.675C200.484 253.042 200.61 253.359 200.864 253.625L201.264 254.055C201.57 254.382 201.5 254.549 201.054 254.555L196.244 254.585C196.184 254.586 196.126 254.57 196.076 254.538C196.025 254.506 195.985 254.461 195.96 254.407C195.935 254.354 195.925 254.294 195.933 254.235C195.941 254.176 195.965 254.121 196.004 254.075L196.204 253.825C196.43 253.545 196.544 253.222 196.544 252.855V238.865C196.544 238.612 196.455 238.365 196.294 238.165L196.054 237.855C196.002 237.794 195.969 237.72 195.959 237.641C195.948 237.562 195.961 237.481 195.994 237.409C196.028 237.336 196.081 237.275 196.149 237.232C196.216 237.189 196.294 237.166 196.374 237.165C203.52 237.025 208.064 237.025 210.004 237.165C214.934 237.525 215.804 245.655 210.144 247.305C209.684 247.439 209.6 247.692 209.894 248.065L214.354 253.945C214.687 254.385 214.577 254.609 214.024 254.615H209.104C208.704 254.615 208.577 254.432 208.724 254.065C208.757 253.972 208.784 253.872 208.804 253.765C208.877 253.432 208.817 253.122 208.624 252.835L205.384 248.075C205.283 247.922 205.145 247.796 204.983 247.709C204.82 247.622 204.639 247.576 204.454 247.575L201.014 247.565C200.66 247.565 200.484 247.742 200.484 248.095ZM200.464 240.635V243.795C200.464 243.952 200.526 244.102 200.636 244.213C200.747 244.323 200.897 244.385 201.054 244.385H207.434C208.052 244.385 208.644 244.17 209.081 243.788C209.518 243.405 209.764 242.886 209.764 242.345V242.085C209.764 241.544 209.518 241.025 209.081 240.643C208.644 240.26 208.052 240.045 207.434 240.045H201.054C200.897 240.045 200.747 240.108 200.636 240.218C200.526 240.329 200.464 240.479 200.464 240.635Z" fill="#91121A"/>
<path d="M200.464 240.635C200.464 240.479 200.526 240.329 200.636 240.218C200.747 240.108 200.897 240.045 201.054 240.045H207.434C208.052 240.045 208.644 240.26 209.081 240.643C209.518 241.025 209.764 241.544 209.764 242.085V242.345C209.764 242.886 209.518 243.405 209.081 243.788C208.644 244.17 208.052 244.385 207.434 244.385H201.054C200.897 244.385 200.747 244.323 200.636 244.213C200.526 244.102 200.464 243.952 200.464 243.795V240.635Z" fill="#F6B334"/>
<path d="M94.5836 262.615C95.7048 262.615 96.6136 261.706 96.6136 260.585C96.6136 259.464 95.7048 258.555 94.5836 258.555C93.4625 258.555 92.5536 259.464 92.5536 260.585C92.5536 261.706 93.4625 262.615 94.5836 262.615Z" fill="black"/>
<path d="M279.987 262.552C281.144 262.416 281.978 261.416 281.849 260.319C281.72 259.222 280.678 258.443 279.52 258.579C278.363 258.715 277.529 259.715 277.658 260.812C277.787 261.909 278.83 262.688 279.987 262.552Z" fill="black"/>
<path d="M108.324 265.475C108.36 265.424 108.415 265.389 108.476 265.378C108.538 265.367 108.602 265.38 108.654 265.415L113.374 268.555C113.914 268.916 114.379 269.38 114.741 269.919C115.103 270.459 115.356 271.064 115.484 271.7C115.612 272.336 115.613 272.991 115.488 273.627C115.363 274.262 115.113 274.867 114.754 275.405L114.514 275.775C114.154 276.314 113.691 276.777 113.152 277.137C112.612 277.496 112.006 277.746 111.369 277.871C110.732 277.997 110.076 277.996 109.438 277.867C108.801 277.739 108.194 277.487 107.654 277.125L102.934 273.975C102.883 273.939 102.848 273.884 102.836 273.823C102.825 273.761 102.839 273.697 102.874 273.645L108.324 265.475ZM109.064 268.615L106.054 273.065C105.999 273.145 105.96 273.234 105.94 273.328C105.92 273.423 105.918 273.52 105.936 273.615C105.954 273.71 105.99 273.8 106.043 273.881C106.095 273.962 106.164 274.031 106.244 274.085L108.004 275.275C108.37 275.524 108.78 275.7 109.211 275.794C109.642 275.887 110.084 275.897 110.513 275.822C110.942 275.746 111.349 275.588 111.712 275.355C112.074 275.122 112.384 274.82 112.624 274.465L112.794 274.195C113.034 273.841 113.2 273.441 113.282 273.019C113.363 272.596 113.36 272.159 113.271 271.733C113.181 271.307 113.009 270.9 112.762 270.535C112.516 270.169 112.2 269.854 111.834 269.605L110.084 268.415C110.004 268.361 109.914 268.323 109.819 268.303C109.724 268.284 109.627 268.283 109.532 268.302C109.437 268.321 109.347 268.358 109.266 268.412C109.186 268.466 109.117 268.535 109.064 268.615Z" fill="black"/>
<path d="M267.274 271.645C266.414 273.005 265.114 274.355 263.364 274.445C255.624 274.845 261.764 262.785 267.944 267.855C273.404 272.335 268.864 276.735 264.024 278.105C263.784 278.172 263.667 278.082 263.674 277.835L263.704 276.285C263.71 275.985 263.864 275.855 264.164 275.895C266.574 276.215 268.704 274.165 267.884 271.715C267.73 271.262 267.527 271.239 267.274 271.645ZM265.841 269.011C265.703 268.846 265.52 268.721 265.302 268.643C265.085 268.565 264.837 268.537 264.574 268.559C264.31 268.581 264.035 268.653 263.766 268.771C263.496 268.889 263.236 269.051 263.002 269.247C262.767 269.443 262.562 269.67 262.398 269.915C262.234 270.159 262.114 270.417 262.046 270.673C261.977 270.928 261.962 271.177 262 271.405C262.037 271.632 262.128 271.835 262.266 272C262.404 272.165 262.587 272.29 262.805 272.368C263.022 272.445 263.27 272.474 263.534 272.452C263.797 272.43 264.072 272.358 264.341 272.24C264.611 272.122 264.871 271.96 265.106 271.764C265.34 271.567 265.546 271.34 265.71 271.096C265.874 270.851 265.993 270.594 266.061 270.338C266.13 270.083 266.145 269.834 266.108 269.606C266.07 269.378 265.979 269.176 265.841 269.011Z" fill="black"/>
<path d="M109.064 268.615C109.117 268.535 109.186 268.466 109.266 268.412C109.347 268.358 109.437 268.321 109.532 268.302C109.627 268.283 109.724 268.284 109.819 268.303C109.914 268.323 110.004 268.361 110.084 268.415L111.834 269.605C112.2 269.854 112.516 270.169 112.762 270.535C113.009 270.9 113.181 271.307 113.271 271.733C113.36 272.159 113.363 272.596 113.282 273.019C113.2 273.441 113.034 273.841 112.794 274.195L112.624 274.465C112.384 274.82 112.074 275.122 111.712 275.355C111.349 275.588 110.942 275.746 110.513 275.822C110.084 275.897 109.642 275.887 109.211 275.794C108.78 275.7 108.37 275.524 108.004 275.275L106.244 274.085C106.164 274.031 106.095 273.962 106.043 273.881C105.99 273.8 105.954 273.71 105.936 273.615C105.918 273.52 105.92 273.423 105.94 273.328C105.96 273.234 105.999 273.145 106.054 273.065L109.064 268.615Z" fill="#F6B334"/>
<path d="M265.106 271.764C266.093 270.938 266.422 269.706 265.841 269.011C265.26 268.316 263.989 268.422 263.002 269.247C262.014 270.073 261.685 271.305 262.266 272C262.847 272.695 264.118 272.589 265.106 271.764Z" fill="#F6B334"/>
<path d="M124.554 284.745L130.374 287.385C130.447 287.425 130.47 287.485 130.444 287.565L129.894 289.205C129.874 289.272 129.834 289.289 129.774 289.255L121.354 285.075C121.12 284.955 121.06 284.779 121.174 284.545L125.054 276.495C125.079 276.437 125.087 276.372 125.074 276.309C125.062 276.247 125.03 276.189 124.984 276.145C124.857 276.025 124.854 275.882 124.974 275.715C125.016 275.657 125.077 275.617 125.147 275.6C125.217 275.584 125.29 275.593 125.354 275.625C128.147 277.092 131.014 278.379 133.954 279.485C134.02 279.505 134.04 279.549 134.014 279.615L133.224 281.305C133.157 281.452 133.054 281.485 132.914 281.405L127.344 278.425C127.254 278.378 127.156 278.351 127.055 278.346C126.954 278.341 126.854 278.358 126.76 278.396C126.667 278.435 126.583 278.493 126.514 278.567C126.446 278.641 126.394 278.729 126.364 278.825L126.074 279.745C125.9 280.299 126.08 280.689 126.614 280.915L129.834 282.245C130.26 282.425 130.34 282.702 130.074 283.075L129.824 283.415C129.537 283.815 129.174 283.909 128.734 283.695L125.464 282.125C125.382 282.087 125.292 282.066 125.202 282.065C125.111 282.063 125.021 282.081 124.938 282.117C124.855 282.153 124.78 282.206 124.719 282.273C124.658 282.34 124.612 282.419 124.584 282.505L124.154 283.835C124.014 284.255 124.147 284.559 124.554 284.745Z" fill="black"/>
<path d="M249.684 284.735L254.584 282.155C254.784 282.055 254.937 282.099 255.044 282.285L255.554 283.175C255.74 283.502 255.664 283.749 255.324 283.915L247.344 287.935C247.13 288.042 246.99 287.982 246.924 287.755C246.104 284.915 247.284 283.145 249.134 280.965C249.627 280.385 249.9 279.899 249.954 279.505C250.034 278.945 249.844 278.505 249.384 278.185C249.037 277.945 248.624 277.889 248.144 278.015C246.77 278.395 246.037 279.325 245.944 280.805C245.917 281.259 245.704 281.382 245.304 281.175L243.994 280.505C243.74 280.379 243.67 280.182 243.784 279.915C244.884 277.465 248.104 274.465 250.934 276.405C254.404 278.785 250.684 281.995 249.184 284.165C249.133 284.237 249.108 284.323 249.113 284.411C249.118 284.498 249.152 284.581 249.209 284.647C249.267 284.713 249.345 284.757 249.431 284.773C249.517 284.789 249.606 284.776 249.684 284.735Z" fill="black"/>
<path d="M234.124 288.455C229.814 293.425 223.074 287.975 228.264 284.205C232.134 281.395 236.814 284.365 236.474 288.895C236.267 291.609 234.257 293.419 230.444 294.325C230.252 294.37 230.054 294.371 229.862 294.33C229.67 294.288 229.489 294.205 229.334 294.085C229.178 293.966 229.05 293.813 228.96 293.639C228.87 293.464 228.82 293.272 228.814 293.075C228.794 292.715 228.827 292.432 228.914 292.225C229.047 291.885 229.287 291.772 229.634 291.885C231.56 292.499 233.114 291.992 234.294 290.365C234.58 289.965 234.7 289.522 234.654 289.035L234.614 288.615C234.609 288.561 234.588 288.508 234.554 288.465C234.52 288.422 234.474 288.39 234.422 288.373C234.369 288.356 234.313 288.355 234.26 288.369C234.207 288.384 234.16 288.414 234.124 288.455ZM233.066 286.084C232.922 285.665 232.551 285.343 232.034 285.19C231.517 285.037 230.897 285.064 230.31 285.266C229.723 285.468 229.218 285.829 228.905 286.268C228.592 286.706 228.497 287.188 228.641 287.607C228.785 288.026 229.157 288.347 229.674 288.501C230.19 288.654 230.811 288.626 231.397 288.424C231.984 288.222 232.49 287.862 232.803 287.423C233.115 286.984 233.21 286.502 233.066 286.084Z" fill="black"/>
<path d="M146.024 292.785C146.224 292.752 146.408 292.655 146.549 292.509C146.691 292.363 146.781 292.175 146.808 291.974C146.835 291.773 146.797 291.568 146.699 291.39C146.601 291.212 146.448 291.07 146.264 290.985L142.484 289.165C142.04 288.952 141.681 288.595 141.465 288.152C141.249 287.709 141.189 287.207 141.294 286.725C142.127 282.892 145.057 282.699 150.084 286.145C150.51 286.432 150.617 286.809 150.404 287.275L150.194 287.725C149.927 288.312 149.55 288.395 149.064 287.975C146.004 285.349 144.177 284.759 143.584 286.205C143.535 286.321 143.509 286.446 143.509 286.572C143.509 286.698 143.534 286.823 143.582 286.939C143.63 287.056 143.701 287.161 143.791 287.25C143.88 287.338 143.987 287.408 144.104 287.455C145.864 288.165 148.964 289.255 149.234 291.345C149.544 293.835 146.874 294.895 144.754 294.545C142.634 294.192 140.804 293.229 139.264 291.655C139.157 291.549 139.154 291.439 139.254 291.325L140.464 290.005C140.584 289.879 140.69 289.885 140.784 290.025C141.864 291.625 143.914 293.175 146.024 292.785Z" fill="black"/>
<path d="M231.397 288.424C232.619 288.004 233.366 286.956 233.066 286.084C232.766 285.211 231.532 284.846 230.31 285.266C229.088 285.687 228.341 286.735 228.641 287.607C228.941 288.479 230.175 288.845 231.397 288.424Z" fill="#F6B334"/>
<path d="M213.194 289.155L213.024 288.625C213.001 288.546 212.996 288.463 213.01 288.382C213.024 288.301 213.057 288.225 213.105 288.158C213.153 288.092 213.216 288.037 213.289 287.998C213.361 287.96 213.441 287.938 213.524 287.935C214.05 287.915 214.55 287.805 215.024 287.605C215.184 287.539 215.28 287.585 215.314 287.745L217.384 297.615C217.404 297.722 217.36 297.789 217.254 297.815L215.044 298.265C214.897 298.299 214.824 298.242 214.824 298.095C214.844 295.915 214.504 293.789 213.804 291.715C213.664 291.322 213.407 291.219 213.034 291.405L212.534 291.645C212.227 291.799 212.064 291.705 212.044 291.365L211.954 289.885C211.934 289.559 212.07 289.462 212.364 289.595C212.484 289.655 212.604 289.692 212.724 289.705C213.17 289.765 213.327 289.582 213.194 289.155Z" fill="black"/>
<path d="M159.864 288.155C159.87 288.117 159.883 288.08 159.904 288.047C159.924 288.014 159.951 287.986 159.983 287.963C160.015 287.941 160.05 287.925 160.088 287.917C160.126 287.909 160.165 287.908 160.204 287.915L165.574 288.795C166.958 289.023 168.198 289.773 169.021 290.879C169.844 291.986 170.183 293.358 169.964 294.695L169.934 294.855C169.715 296.192 168.956 297.384 167.824 298.17C166.691 298.955 165.278 299.27 163.894 299.045L158.524 298.165C158.448 298.153 158.381 298.112 158.336 298.05C158.291 297.988 158.272 297.911 158.284 297.835L159.864 288.155ZM161.684 290.925L161.034 295.815C161.017 295.94 161.025 296.066 161.057 296.187C161.089 296.308 161.145 296.422 161.221 296.521C161.297 296.62 161.392 296.704 161.501 296.766C161.609 296.829 161.729 296.869 161.854 296.885L163.964 297.165C164.391 297.222 164.825 297.2 165.24 297.101C165.655 297.002 166.043 296.827 166.382 296.588C166.721 296.348 167.004 296.048 167.216 295.704C167.427 295.361 167.562 294.98 167.614 294.585L167.714 293.815C167.818 293.02 167.577 292.212 167.042 291.569C166.508 290.926 165.724 290.5 164.864 290.385L162.754 290.105C162.629 290.089 162.503 290.096 162.382 290.129C162.261 290.161 162.147 290.216 162.048 290.293C161.949 290.369 161.865 290.464 161.803 290.573C161.74 290.681 161.7 290.801 161.684 290.925Z" fill="black"/>
<path d="M161.684 290.925C161.7 290.801 161.74 290.681 161.803 290.573C161.865 290.464 161.949 290.369 162.048 290.293C162.147 290.216 162.261 290.161 162.382 290.129C162.503 290.096 162.629 290.089 162.754 290.105L164.864 290.385C165.724 290.5 166.508 290.926 167.042 291.569C167.577 292.212 167.818 293.02 167.714 293.815L167.614 294.585C167.562 294.98 167.427 295.361 167.216 295.704C167.004 296.048 166.721 296.348 166.382 296.588C166.043 296.827 165.655 297.002 165.24 297.101C164.825 297.2 164.391 297.222 163.964 297.165L161.854 296.885C161.729 296.869 161.609 296.829 161.501 296.766C161.392 296.704 161.297 296.62 161.221 296.521C161.145 296.422 161.089 296.308 161.057 296.187C161.025 296.066 161.017 295.94 161.034 295.815L161.684 290.925Z" fill="#F6B334"/>
<path d="M182.524 294.825L186.544 294.645C186.87 294.632 187.03 294.789 187.024 295.115L187.014 296.055C187.007 296.429 186.82 296.575 186.454 296.495C185.207 296.215 183.95 296.149 182.684 296.295C182.237 296.342 182.014 296.592 182.014 297.045V298.285C182.02 298.745 182.25 298.979 182.704 298.985L188.734 299.075C189.047 299.082 189.204 299.242 189.204 299.555L189.214 300.815C189.22 301.222 189.027 301.372 188.634 301.265C185.834 300.519 182.987 300.345 180.094 300.745C179.787 300.785 179.637 300.652 179.644 300.345L179.734 290.965C179.734 290.685 179.874 290.549 180.154 290.555L189.074 290.715C189.2 290.715 189.26 290.779 189.254 290.905L189.204 292.285C189.197 292.365 189.154 292.405 189.074 292.405L182.604 292.195C182.21 292.182 182.014 292.372 182.014 292.765L182.024 294.345C182.024 294.679 182.19 294.839 182.524 294.825Z" fill="black"/>
</svg>
