<?xml version="1.0" encoding="UTF-8" standalone="no"?>
<!DOCTYPE svg PUBLIC "-//W3C//DTD SVG 1.1//EN" "http://www.w3.org/Graphics/SVG/1.1/DTD/svg11.dtd">
<svg xmlns="http://www.w3.org/2000/svg" version="1.1" viewBox="0.00 0.00 454.00 454.00">
<g stroke-width="2.00" fill="none" stroke-linecap="butt">
<path stroke="#c46327" vector-effect="non-scaling-stroke" d="
  M 375.62 171.88
  L 370.82 172.93
  Q 370.30 173.05 370.10 172.55
  C 348.40 116.58 297.30 78.58 237.50 74.43
  C 156.16 68.78 84.76 128.73 75.41 209.56
  Q 75.34 210.13 75.84 209.85
  Q 85.89 204.11 95.00 202.59
  Q 109.87 200.11 135.25 198.01
  Q 184.21 193.95 233.24 190.93
  Q 284.68 187.76 335.98 182.75
  Q 355.12 180.88 373.99 177.15
  C 386.62 174.65 400.50 170.98 412.19 164.22"
/>
<path stroke="#c46327" vector-effect="non-scaling-stroke" d="
  M 78.84 281.97
  L 83.57 280.68
  Q 84.11 280.53 84.31 281.05
  C 105.62 336.42 155.31 374.16 214.26 379.34
  C 256.90 383.09 299.35 368.55 330.65 339.54
  Q 373.77 299.55 379.76 239.35
  Q 379.81 238.84 379.40 239.13
  Q 369.31 245.95 357.24 248.00
  C 341.41 250.70 322.92 252.24 309.25 253.23
  C 249.07 257.57 188.86 260.86 128.76 266.29
  C 104.11 268.51 78.56 272.94 55.07 280.86"
/>
<path stroke="#c8898d" vector-effect="non-scaling-stroke" d="
  M 358.26 221.44
  Q 357.31 221.67 357.64 220.75
  L 367.80 192.24
  A 0.38 0.38 0.0 0 0 367.35 191.74
  C 358.04 194.00 354.36 194.05 350.74 204.06
  Q 345.21 219.32 339.90 234.74
  Q 339.71 235.30 340.30 235.24
  Q 353.72 233.81 366.88 230.91
  A 1.60 1.59 -86.2 0 0 368.03 229.90
  L 372.18 218.54
  A 0.31 0.30 3.5 0 0 371.82 218.14
  L 358.26 221.44"
/>
<path stroke="#c8898d" vector-effect="non-scaling-stroke" d="
  M 322.38 231.77
  L 321.93 236.48
  Q 321.86 237.10 322.48 237.04
  L 336.91 235.61
  Q 337.39 235.57 337.39 235.08
  L 336.96 196.53
  Q 336.96 196.31 336.75 196.33
  Q 330.66 196.83 324.53 197.48
  Q 321.13 197.84 318.95 199.30
  Q 315.87 201.35 314.28 204.04
  Q 303.83 221.76 292.39 238.92
  A 0.37 0.37 0.0 0 0 292.73 239.49
  L 307.06 238.29
  A 1.40 1.37 11.3 0 0 308.15 237.58
  L 310.88 232.62
  Q 311.17 232.09 311.76 232.04
  L 321.76 231.13
  Q 322.45 231.07 322.38 231.77"
/>
<path stroke="#c8898d" vector-effect="non-scaling-stroke" d="
  M 281.49 221.53
  L 280.32 201.73
  Q 280.29 201.33 279.89 201.33
  C 273.69 201.36 267.06 201.59 262.90 206.19
  Q 261.03 208.25 259.10 213.78
  Q 254.22 227.73 249.04 241.75
  A 0.46 0.45 7.7 0 0 249.51 242.36
  L 261.61 241.43
  Q 262.13 241.39 262.31 240.90
  L 270.04 219.07
  Q 270.68 217.26 270.76 219.18
  L 271.59 240.33
  Q 271.61 240.81 272.09 240.78
  L 288.18 239.74
  A 0.96 0.95 -82.1 0 0 289.02 239.10
  L 303.02 199.73
  A 0.29 0.29 0.0 0 0 302.72 199.35
  L 290.45 200.34
  Q 289.97 200.38 289.81 200.84
  L 282.38 221.66
  Q 281.62 223.77 281.49 221.53"
/>
<path stroke="#c8898d" vector-effect="non-scaling-stroke" d="
  M 251.7491 207.1357
  A 25.24 16.48 -42.6 0 0 222.0151 212.0891
  A 25.24 16.48 -42.6 0 0 214.5909 241.3043
  A 25.24 16.48 -42.6 0 0 244.3249 236.3509
  A 25.24 16.48 -42.6 0 0 251.7491 207.1357"
/>
<path stroke="#c8898d" vector-effect="non-scaling-stroke" d="
  M 203.82 244.84
  L 217.61 206.17
  Q 217.86 205.47 217.12 205.50
  C 211.78 205.71 206.45 205.92 202.43 209.76
  Q 200.21 211.88 198.26 217.39
  Q 193.22 231.70 188.10 245.94
  Q 187.91 246.49 188.49 246.44
  L 203.22 245.30
  A 0.71 0.68 -81.2 0 0 203.82 244.84"
/>
<path stroke="#c8898d" vector-effect="non-scaling-stroke" d="
  M 175.36 233.99
  L 174.10 237.30
  Q 173.91 237.78 173.44 237.98
  C 170.27 239.30 164.87 240.06 166.33 234.75
  C 167.84 229.26 171.21 215.39 179.40 218.08
  A 1.56 1.56 0.0 0 1 180.34 220.20
  L 179.89 221.19
  A 0.38 0.37 10.0 0 0 180.26 221.71
  L 193.05 220.85
  A 1.31 1.30 -77.9 0 0 194.11 220.16
  C 199.53 209.97 188.44 206.83 180.99 207.50
  Q 161.70 209.25 153.30 226.68
  C 149.70 234.15 149.07 243.66 157.35 247.41
  C 164.18 250.49 176.75 247.89 184.63 245.85
  Q 185.13 245.73 185.30 245.24
  L 192.52 225.08
  Q 192.74 224.46 192.08 224.49
  Q 186.33 224.82 180.91 225.23
  C 174.68 225.70 171.52 227.33 169.11 232.91
  A 0.61 0.61 0.0 0 0 169.72 233.76
  L 174.89 233.36
  A 0.46 0.46 0.0 0 1 175.36 233.99"
/>
<path stroke="#c8898d" vector-effect="non-scaling-stroke" d="
  M 139.50 222.29
  A 1.14 1.14 0.0 0 1 140.48 221.54
  L 153.86 220.45
  Q 154.55 220.39 154.78 219.75
  L 158.25 210.01
  A 0.31 0.31 0.0 0 0 157.93 209.60
  Q 147.65 210.35 137.51 211.37
  C 129.96 212.12 127.26 216.11 124.72 223.24
  Q 119.55 237.77 114.42 252.19
  Q 114.26 252.62 114.72 252.58
  L 143.65 249.78
  Q 144.09 249.73 144.24 249.32
  L 147.62 239.95
  Q 147.85 239.31 147.18 239.37
  L 133.38 240.56
  A 0.25 0.24 -83.0 0 1 133.13 240.23
  L 134.40 236.63
  Q 134.49 236.38 134.75 236.36
  L 141.69 235.94
  A 2.19 2.19 0.0 0 0 143.62 234.48
  L 146.64 225.98
  A 0.40 0.39 -83.0 0 0 146.24 225.46
  L 138.75 226.07
  Q 138.11 226.12 138.33 225.52
  L 139.50 222.29"
/>
<path stroke="#c8898d" vector-effect="non-scaling-stroke" d="
  M 110.50 235.35
  Q 108.81 235.35 110.31 234.62
  Q 117.40 231.20 119.66 223.28
  C 121.66 216.26 114.14 213.26 108.47 214.04
  C 97.11 215.61 88.19 215.31 83.71 227.64
  Q 78.00 243.36 72.21 259.79
  Q 71.95 260.50 72.69 260.34
  L 86.85 257.14
  Q 87.28 257.04 87.43 256.62
  L 91.46 245.27
  Q 92.28 242.94 94.73 242.53
  L 96.57 242.23
  A 1.84 1.84 0.0 0 1 98.61 244.66
  L 96.01 251.99
  A 2.78 2.70 -57.4 0 0 96.59 254.82
  Q 97.07 255.31 98.52 255.07
  Q 104.67 254.01 110.94 253.13
  Q 111.45 253.06 111.15 252.64
  C 108.19 248.40 115.30 241.56 113.21 236.69
  Q 113.00 236.21 112.56 235.94
  Q 111.61 235.35 110.50 235.35"
/>
<path stroke="#7b5a1a" vector-effect="non-scaling-stroke" d="
  M 212.44 95.59
  L 225.19 94.80
  Q 225.74 94.76 226.19 95.10
  L 226.54 95.37
  A 0.38 0.38 0.0 0 0 227.16 95.05
  L 226.94 90.72
  Q 226.92 90.27 226.49 90.44
  C 225.15 90.97 224.11 91.44 222.63 91.49
  Q 214.78 91.77 206.94 92.71
  Q 206.32 92.79 206.73 93.26
  C 207.33 93.94 207.54 94.22 207.59 95.18
  Q 208.00 103.43 208.89 111.65
  Q 208.95 112.17 208.67 112.62
  Q 208.47 112.95 208.14 113.13
  Q 206.91 113.82 208.25 113.72
  L 226.89 112.31
  Q 227.43 112.27 227.83 112.63
  L 228.38 113.11
  Q 229.33 113.95 228.97 112.73
  Q 228.27 110.41 228.48 107.96
  A 0.28 0.28 0.0 0 0 228.08 107.68
  Q 227.89 107.78 227.85 107.93
  Q 227.72 108.65 226.99 108.72
  L 213.72 109.87
  Q 213.27 109.91 213.25 109.46
  L 213.02 104.51
  Q 213.00 104.19 213.31 104.16
  L 221.37 103.29
  Q 221.92 103.23 222.24 103.69
  L 222.58 104.19
  A 0.33 0.33 0.0 0 0 223.18 103.99
  L 222.95 100.09
  Q 222.92 99.61 222.44 99.67
  L 212.95 100.84
  Q 212.48 100.90 212.46 100.43
  L 212.23 95.82
  A 0.22 0.22 0.0 0 1 212.44 95.59"
/>
<path stroke="#7b5a1a" vector-effect="non-scaling-stroke" d="
  M 258.54 97.43
  C 251.34 90.73 235.96 89.98 235.31 103.07
  C 234.75 114.29 247.49 116.46 255.96 113.19
  A 1.21 1.18 -45.7 0 1 256.78 113.17
  L 257.24 113.32
  Q 257.91 113.54 257.63 112.90
  L 255.86 108.77
  Q 255.60 108.17 255.25 108.72
  C 253.26 111.78 247.44 111.63 244.76 110.53
  C 233.19 105.77 244.15 89.39 255.51 99.57
  C 256.12 100.11 256.17 100.48 256.30 101.26
  Q 256.42 102.01 256.96 101.47
  L 259.82 98.60
  Q 260.63 97.79 259.48 97.78
  Q 259.34 97.78 259.21 97.76
  Q 258.82 97.70 258.54 97.43"
/>
<path stroke="#7b5a1a" vector-effect="non-scaling-stroke" d="
  M 190.09 111.42
  L 181.23 101.57
  Q 180.91 101.22 181.03 100.76
  L 181.31 99.77
  Q 181.46 99.22 180.91 99.38
  L 174.62 101.22
  A 0.36 0.36 0.0 0 0 174.52 101.86
  Q 174.76 102.02 175.06 102.07
  Q 175.53 102.15 175.86 102.51
  L 188.70 116.55
  A 0.77 0.09 73.1 0 1 188.91 117.03
  Q 189.07 117.53 188.93 117.96
  Q 188.53 119.21 189.79 118.82
  L 195.22 117.10
  Q 196.52 116.69 195.27 116.15
  L 194.76 115.92
  Q 194.25 115.71 194.34 115.16
  Q 195.66 106.36 196.60 97.50
  Q 196.70 96.52 197.73 94.56
  Q 198.06 93.94 197.39 94.15
  L 191.29 96.02
  Q 190.45 96.28 191.16 96.81
  L 191.75 97.24
  Q 192.23 97.60 192.17 98.19
  L 190.71 111.23
  Q 190.62 112.01 190.09 111.42"
/>
<path stroke="#7b5a1a" vector-effect="non-scaling-stroke" d="
  M 272.61 108.00
  L 274.41 104.01
  Q 274.52 103.75 274.78 103.86
  Q 280.89 106.37 286.46 108.86
  Q 287.43 109.29 287.41 109.55
  Q 287.33 111.47 288.09 109.71
  L 289.70 105.96
  Q 290.18 104.85 289.08 105.36
  Q 288.99 105.41 288.85 105.47
  Q 288.34 105.70 287.82 105.48
  L 271.09 98.39
  Q 270.58 98.17 270.68 98.72
  C 270.86 99.73 270.92 100.21 270.49 101.20
  Q 267.49 108.11 264.78 115.14
  Q 264.14 116.79 262.58 117.39
  A 0.25 0.25 0.0 0 0 262.57 117.86
  L 280.35 125.38
  Q 280.66 125.51 280.62 125.85
  Q 280.59 126.10 280.63 126.21
  A 0.49 0.48 -42.9 0 0 281.54 126.23
  L 283.18 122.23
  Q 283.44 121.59 282.76 121.73
  L 281.82 121.93
  Q 281.42 122.01 281.05 121.85
  L 269.27 116.82
  Q 268.98 116.70 269.10 116.41
  L 271.05 111.75
  Q 271.16 111.49 271.42 111.59
  C 274.33 112.72 277.57 113.63 280.02 115.86
  Q 280.33 116.15 280.49 115.76
  L 282.12 111.94
  Q 282.37 111.34 281.74 111.45
  L 281.15 111.54
  Q 280.51 111.64 279.91 111.39
  L 272.74 108.32
  Q 272.51 108.23 272.61 108.00"
/>
<path stroke="#7b5a1a" vector-effect="non-scaling-stroke" d="
  M 169.06 117.95
  C 172.91 114.03 171.35 108.68 166.35 107.39
  C 162.61 106.42 154.52 112.21 148.62 115.90
  Q 148.24 116.14 148.49 116.51
  Q 148.58 116.66 148.75 116.58
  Q 149.40 116.24 149.78 116.87
  Q 154.15 124.24 158.56 131.60
  C 159.07 132.44 159.07 133.08 158.80 133.97
  A 0.29 0.28 -7.8 0 0 159.23 134.29
  L 164.27 131.16
  Q 165.05 130.68 164.14 130.61
  Q 163.97 130.60 163.79 130.59
  A 0.89 0.86 75.8 0 1 163.10 130.16
  L 159.81 124.55
  Q 159.53 124.07 159.99 123.78
  L 163.84 121.36
  A 0.93 0.92 40.8 0 1 164.74 121.30
  L 171.52 124.47
  Q 172.14 124.76 172.27 125.43
  Q 172.30 125.60 172.34 125.76
  Q 172.48 126.28 172.95 126.01
  L 178.25 122.98
  Q 179.12 122.48 178.15 122.22
  Q 173.43 120.98 169.15 118.61
  Q 168.67 118.34 169.06 117.95"
/>
<path stroke="#7b5a1a" vector-effect="non-scaling-stroke" d="
  M 305.02 131.26
  C 310.32 134.42 315.91 128.46 313.71 123.73
  Q 312.85 121.87 309.58 119.40
  Q 304.49 115.54 299.28 111.76
  Q 298.85 111.45 298.75 111.97
  Q 298.69 112.27 298.76 112.57
  A 1.20 1.20 0.0 0 1 298.56 113.56
  L 288.12 127.68
  Q 287.78 128.13 287.22 128.26
  L 286.87 128.34
  Q 286.09 128.51 286.74 128.98
  L 291.20 132.16
  Q 291.62 132.46 291.64 131.94
  Q 291.65 131.74 291.60 131.54
  A 1.08 1.03 56.9 0 1 291.77 130.64
  L 295.64 125.44
  Q 295.95 125.04 296.36 125.34
  L 300.03 127.99
  Q 300.45 128.30 300.47 128.81
  C 300.56 131.09 301.01 136.05 299.24 137.74
  Q 298.97 138.00 299.27 138.22
  L 304.15 141.83
  Q 305.49 142.81 305.01 141.23
  Q 304.99 141.14 304.60 140.73
  Q 304.28 140.40 304.29 139.93
  L 304.54 131.52
  A 0.32 0.32 0.0 0 1 305.02 131.26"
/>
<path stroke="#7b5a1a" vector-effect="non-scaling-stroke" d="
  M 137.63 141.67
  Q 137.41 141.43 137.65 141.21
  L 143.53 135.60
  Q 143.93 135.22 144.47 135.30
  L 144.95 135.37
  A 0.33 0.33 0.0 0 0 145.23 134.82
  L 142.08 131.58
  Q 141.63 131.12 141.44 131.73
  Q 141.35 132.00 141.40 132.34
  Q 141.45 132.81 141.11 133.14
  L 135.37 138.66
  Q 134.96 139.06 134.56 138.65
  L 131.94 136.01
  Q 131.55 135.61 131.93 135.21
  C 134.47 132.56 138.98 127.06 142.36 125.91
  Q 142.91 125.73 142.50 125.33
  L 139.24 122.18
  Q 138.76 121.71 138.74 122.38
  Q 138.73 122.62 138.78 122.87
  Q 138.87 123.39 138.50 123.76
  L 125.48 136.49
  Q 124.66 137.30 125.81 137.09
  Q 125.89 137.07 126.30 137.20
  Q 126.53 137.27 126.71 137.45
  Q 133.09 143.82 139.36 150.32
  Q 139.73 150.70 139.59 151.21
  Q 139.52 151.44 139.55 151.68
  Q 139.63 152.29 140.07 151.86
  L 153.85 138.50
  A 0.71 0.70 36.4 0 1 154.66 138.38
  Q 154.95 138.54 155.25 138.48
  Q 155.90 138.36 155.35 138.00
  Q 153.37 136.67 152.10 134.65
  Q 151.52 133.72 151.35 134.84
  Q 151.33 134.92 151.54 135.21
  Q 151.74 135.51 151.48 135.77
  L 141.67 145.42
  Q 141.40 145.68 141.14 145.40
  L 137.63 141.67"
/>
<path stroke="#fbd99a" vector-effect="non-scaling-stroke" d="
  M 309.50 180.50
  Q 309.42 180.66 309.34 180.82
  A 0.22 0.21 -78.4 0 0 309.54 181.13
  L 313.36 180.91
  Q 314.04 180.87 313.71 180.27
  C 282.87 123.34 206.60 111.78 159.71 155.71
  Q 142.15 172.17 134.07 195.60
  Q 133.88 196.16 134.47 196.19
  Q 136.52 196.28 138.49 195.64
  A 0.25 0.25 0.0 0 0 138.64 195.29
  Q 138.55 195.12 138.47 194.96
  Q 138.30 194.66 138.42 194.34
  C 160.70 134.62 233.57 113.27 284.40 151.59
  Q 299.58 163.03 309.50 180.21
  Q 309.58 180.35 309.50 180.50"
/>
<path stroke="#7b5a1a" vector-effect="non-scaling-stroke" d="
  M 322.63 132.65
  L 320.48 134.53
  A 0.34 0.34 0.0 0 0 320.70 135.12
  Q 321.51 135.11 322.19 134.70
  Q 322.59 134.45 323.03 134.60
  L 327.01 135.91
  Q 327.80 136.17 327.23 135.57
  L 323.12 131.13
  A 0.30 0.30 0.0 0 0 322.65 131.16
  Q 322.39 131.55 322.70 131.94
  A 0.51 0.51 0.0 0 1 322.63 132.65"
/>
<path stroke="#7b5a1a" vector-effect="non-scaling-stroke" d="
  M 312.64 148.71
  L 324.57 137.35
  A 0.54 0.54 0.0 0 0 324.29 136.43
  L 320.59 135.77
  Q 319.59 135.59 318.84 136.28
  C 315.80 139.10 311.01 144.89 308.03 145.72
  Q 307.77 145.79 307.95 145.99
  L 311.72 150.13
  A 0.36 0.36 0.0 0 0 312.35 149.86
  L 312.32 149.56
  Q 312.28 149.05 312.64 148.71"
/>
<path stroke="#fbd99a" vector-effect="non-scaling-stroke" d="
  M 305.97 181.22
  C 267.20 115.35 169.05 123.73 142.02 194.92
  A 0.51 0.51 0.0 0 0 142.54 195.61
  L 305.79 181.57
  A 0.23 0.23 0.0 0 0 305.97 181.22"
/>
<path stroke="#7b5a1a" vector-effect="non-scaling-stroke" d="
  M 120.88 146.54
  A 0.26 0.26 0.0 0 0 120.38 146.64
  Q 120.36 147.03 120.09 147.33
  Q 119.56 147.91 119.31 148.02
  C 112.39 151.05 106.51 160.15 110.91 167.29
  Q 113.66 171.75 118.67 172.37
  C 125.14 173.16 130.08 168.53 132.17 162.71
  Q 132.76 161.05 133.37 155.01
  Q 133.41 154.62 133.02 154.63
  L 128.99 154.71
  Q 128.31 154.73 128.68 155.29
  L 129.28 156.20
  Q 129.59 156.67 129.57 157.23
  C 129.42 162.69 125.85 168.53 119.73 167.71
  Q 116.25 167.24 114.55 164.03
  Q 113.11 161.33 114.12 158.31
  C 115.10 155.37 118.61 150.74 122.34 151.23
  Q 122.97 151.31 122.72 150.73
  L 120.88 146.54"
/>
<path stroke="#7b5a1a" vector-effect="non-scaling-stroke" d="
  M 326.61 167.76
  Q 326.30 167.76 326.02 167.63
  A 0.46 0.46 0.0 0 0 325.45 168.30
  L 329.04 173.71
  Q 330.08 175.28 329.96 173.52
  Q 329.91 172.92 330.48 171.86
  Q 334.88 163.62 339.60 155.52
  Q 339.88 155.04 340.44 155.00
  L 341.22 154.95
  Q 342.07 154.89 341.59 154.18
  L 338.25 149.26
  Q 337.37 147.95 337.11 149.35
  Q 337.04 149.73 336.61 150.08
  Q 336.32 150.31 335.84 150.39
  Q 326.39 151.80 316.91 153.11
  A 0.82 0.80 60.3 0 1 316.25 152.92
  Q 316.00 152.70 315.66 152.65
  Q 314.82 152.52 315.29 153.23
  L 318.68 158.34
  Q 319.06 158.91 319.35 158.30
  Q 319.53 157.92 319.56 157.48
  A 0.81 0.80 -2.3 0 1 320.24 156.75
  L 323.13 156.27
  A 0.88 0.88 0.0 0 1 324.01 156.64
  L 328.85 163.64
  A 1.01 1.01 0.0 0 1 328.89 164.73
  L 327.39 167.32
  Q 327.13 167.77 326.61 167.76"
/>
<path stroke="#7b5a1a" vector-effect="non-scaling-stroke" d="
  M 155.10 116.68
  L 157.41 120.54
  A 0.50 0.50 0.0 0 0 158.10 120.71
  L 165.04 116.53
  A 2.96 2.61 -31.0 0 0 166.24 112.77
  L 166.09 112.53
  A 2.96 2.61 -31.0 0 0 162.21 111.82
  L 155.27 115.99
  A 0.50 0.50 0.0 0 0 155.10 116.68"
/>
<path stroke="#7b5a1a" vector-effect="non-scaling-stroke" d="
  M 300.95 118.08
  L 298.33 121.64
  A 0.57 0.57 0.0 0 0 298.45 122.43
  L 304.58 126.95
  A 3.32 2.47 36.4 0 0 308.71 126.93
  L 309.08 126.43
  A 3.32 2.47 36.4 0 0 307.88 122.47
  L 301.75 117.96
  A 0.57 0.57 0.0 0 0 300.95 118.08"
/>
<path stroke="#7b5a1a" vector-effect="non-scaling-stroke" d="
  M 327.59 155.69
  A 0.31 0.31 0.0 0 0 327.38 156.17
  L 330.64 161.05
  A 0.31 0.31 0.0 0 0 331.17 161.04
  L 334.76 155.10
  A 0.31 0.31 0.0 0 0 334.45 154.63
  L 327.59 155.69"
/>
<path stroke="#c8898d" vector-effect="non-scaling-stroke" d="
  M 323.01 220.74
  L 324.48 207.70
  Q 324.53 207.21 324.15 207.53
  Q 323.98 207.66 323.86 207.91
  Q 320.56 214.51 317.10 221.15
  Q 316.71 221.89 317.54 221.83
  L 322.27 221.46
  Q 322.93 221.40 323.01 220.74"
/>
<path stroke="#c8898d" vector-effect="non-scaling-stroke" d="
  M 238.09 214.19
  C 232.26 211.86 228.11 227.09 227.26 231.00
  Q 226.67 233.73 228.65 234.64
  A 1.75 1.74 43.0 0 0 230.22 234.59
  C 235.54 231.65 238.25 221.82 239.25 216.28
  A 1.88 1.88 0.0 0 0 238.09 214.19"
/>
<path stroke="#c8898d" vector-effect="non-scaling-stroke" d="
  M 97.53 233.60
  L 99.45 232.92
  Q 101.90 232.06 103.52 230.03
  Q 104.95 228.23 104.95 225.92
  A 0.94 0.93 12.3 0 0 104.40 225.07
  Q 101.63 223.83 98.92 225.21
  Q 98.53 225.41 98.39 225.82
  L 96.13 232.21
  Q 95.37 234.37 97.53 233.60"
/>
<path stroke="#fbd99a" vector-effect="non-scaling-stroke" d="
  M 151.72 278.23
  Q 166.42 299.71 190.22 310.25
  A 0.26 0.26 0.0 0 0 190.58 310.06
  Q 193.91 291.88 208.48 283.14
  C 228.61 271.07 253.17 280.32 261.69 301.53
  C 262.74 304.13 263.31 307.08 263.84 309.97
  Q 263.95 310.56 264.50 310.30
  Q 298.49 294.44 312.29 259.42
  Q 312.98 257.68 313.94 256.04
  A 1.04 1.04 0.0 0 0 312.95 254.48
  C 282.65 257.32 252.30 259.56 221.97 262.06
  C 197.25 264.10 172.57 266.91 147.84 269.87
  A 0.55 0.55 0.0 0 0 147.40 270.65
  Q 149.20 274.54 151.72 278.23"
/>
<path stroke="#fbd99a" vector-effect="non-scaling-stroke" d="
  M 320.38 255.52
  L 318.96 255.56
  Q 317.74 255.60 317.34 256.75
  Q 303.27 296.87 264.59 314.39
  Q 264.04 314.64 264.02 315.24
  L 263.91 317.93
  Q 263.89 318.53 264.44 318.29
  Q 306.40 299.99 321.24 256.69
  Q 321.65 255.48 320.38 255.52"
/>
<path stroke="#fbd99a" vector-effect="non-scaling-stroke" d="
  M 142.62 276.91
  Q 142.62 277.05 142.63 277.19
  Q 142.66 277.45 142.82 277.72
  Q 159.98 305.64 190.18 318.21
  Q 190.52 318.35 190.51 317.99
  L 190.48 314.99
  Q 190.48 314.56 190.08 314.38
  Q 159.18 300.71 143.20 270.91
  Q 142.94 270.43 142.39 270.46
  L 139.74 270.61
  Q 139.16 270.65 139.39 271.19
  Q 140.59 273.99 142.44 276.38
  Q 142.62 276.61 142.62 276.91"
/>
<path stroke="#c46327" vector-effect="non-scaling-stroke" d="
  M 261.66 314.62
  A 34.39 34.39 0.0 0 0 227.27 280.23
  A 34.39 34.39 0.0 0 0 192.88 314.62
  A 34.39 34.39 0.0 0 0 227.27 349.01
  A 34.39 34.39 0.0 0 0 261.66 314.62"
/>
<path stroke="#7b5a1a" vector-effect="non-scaling-stroke" d="
  M 136.60 329.49
  A 2.03 2.03 0.0 0 0 134.57 327.46
  A 2.03 2.03 0.0 0 0 132.54 329.49
  A 2.03 2.03 0.0 0 0 134.57 331.52
  A 2.03 2.03 0.0 0 0 136.60 329.49"
/>
<path stroke="#7b5a1a" vector-effect="non-scaling-stroke" d="
  M 321.8356 329.2238
  A 2.11 2.00 -6.7 0 0 319.5067 327.4837
  A 2.11 2.00 -6.7 0 0 317.6444 329.7162
  A 2.11 2.00 -6.7 0 0 319.9733 331.4563
  A 2.11 2.00 -6.7 0 0 321.8356 329.2238"
/>
<path stroke="#7b5a1a" vector-effect="non-scaling-stroke" d="
  M 148.31 334.38
  L 142.86 342.55
  A 0.24 0.24 0.0 0 0 142.92 342.88
  L 147.64 346.03
  A 4.95 4.93 33.7 0 0 154.50 344.68
  L 154.74 344.31
  A 4.95 4.93 33.7 0 0 153.36 337.46
  L 148.64 334.32
  A 0.24 0.24 0.0 0 0 148.31 334.38"
/>
<path stroke="#7b5a1a" vector-effect="non-scaling-stroke" d="
  M 307.87 340.62
  C 308.69 343.07 306.56 345.12 304.15 344.80
  Q 303.70 344.74 303.69 345.19
  L 303.66 346.74
  Q 303.65 347.11 304.01 347.01
  C 308.85 345.64 313.39 341.24 307.93 336.76
  C 301.75 331.69 295.61 343.75 303.35 343.35
  C 305.10 343.26 306.40 341.91 307.26 340.55
  Q 307.64 339.94 307.87 340.62"
/>
<path stroke="#7b5a1a" vector-effect="non-scaling-stroke" d="
  M 164.57 351.41
  A 0.64 0.64 0.0 0 1 165.45 351.03
  L 168.72 352.60
  Q 169.38 352.92 169.81 352.32
  L 170.06 351.98
  Q 170.46 351.42 169.82 351.15
  L 166.60 349.82
  Q 165.80 349.48 166.06 348.65
  L 166.35 347.73
  A 0.69 0.69 0.0 0 1 167.33 347.33
  L 172.90 350.31
  Q 173.11 350.43 173.21 350.21
  L 174.00 348.52
  Q 174.04 348.42 173.94 348.39
  Q 169.53 346.73 165.34 344.53
  A 0.30 0.30 0.0 0 0 164.96 344.62
  Q 164.78 344.87 164.97 345.05
  A 0.31 0.31 0.0 0 1 165.04 345.40
  L 161.16 353.45
  Q 160.99 353.80 161.34 353.98
  L 169.76 358.16
  Q 169.85 358.21 169.88 358.11
  L 170.43 356.47
  Q 170.47 356.35 170.36 356.29
  L 164.54 353.65
  Q 163.93 353.37 164.14 352.74
  L 164.57 351.41"
/>
<path stroke="#7b5a1a" vector-effect="non-scaling-stroke" d="
  M 289.17 353.07
  C 290.67 350.90 294.39 347.69 290.92 345.31
  C 288.09 343.37 284.87 346.37 283.77 348.82
  Q 283.60 349.22 283.98 349.41
  L 285.29 350.08
  Q 285.89 350.39 285.93 349.71
  Q 286.07 347.49 288.13 346.92
  Q 288.85 346.73 289.37 347.09
  Q 290.06 347.57 289.94 348.41
  Q 289.86 349.00 289.12 349.87
  C 287.27 352.05 286.09 353.82 286.91 356.66
  Q 287.01 357.00 287.33 356.84
  L 295.31 352.82
  Q 295.82 352.57 295.54 352.08
  L 295.03 351.19
  Q 294.87 350.91 294.57 351.06
  L 289.67 353.64
  A 0.39 0.39 0.0 0 1 289.17 353.07"
/>
<path stroke="#7b5a1a" vector-effect="non-scaling-stroke" d="
  M 274.64 357.94
  Q 274.71 358.67 274.28 359.27
  Q 272.51 361.71 269.62 360.79
  Q 269.10 360.62 268.90 361.13
  Q 268.77 361.44 268.80 361.98
  A 1.33 1.33 0.0 0 0 270.43 363.23
  Q 276.15 361.87 276.46 357.80
  C 276.80 353.27 272.12 350.30 268.25 353.11
  C 263.06 356.88 269.80 362.33 274.11 357.36
  A 0.28 0.28 0.0 0 1 274.60 357.52
  L 274.64 357.94"
/>
<path stroke="#7b5a1a" vector-effect="non-scaling-stroke" d="
  M 186.01 361.69
  C 183.90 362.08 181.85 360.53 180.77 358.93
  Q 180.63 358.72 180.45 358.91
  L 179.24 360.23
  Q 179.09 360.40 179.25 360.56
  Q 181.56 362.92 184.74 363.45
  C 186.86 363.80 189.53 362.74 189.22 360.25
  C 188.95 358.16 185.85 357.07 184.09 356.36
  A 0.95 0.95 0.0 0 1 183.57 355.11
  Q 184.46 352.94 189.05 356.88
  Q 189.78 357.51 190.18 356.63
  L 190.39 356.18
  Q 190.71 355.48 190.07 355.05
  Q 182.53 349.88 181.28 355.63
  A 2.19 2.19 0.0 0 0 182.47 358.07
  L 186.25 359.89
  A 0.95 0.95 0.0 0 1 186.01 361.69"
/>
<path stroke="#7b5a1a" vector-effect="non-scaling-stroke" d="
  M 252.71 358.61
  Q 252.53 358.59 252.35 358.50
  Q 251.91 358.30 251.94 358.79
  L 252.03 360.27
  Q 252.06 360.78 252.52 360.55
  L 253.02 360.31
  Q 253.58 360.03 253.79 360.62
  Q 254.84 363.73 254.81 367.00
  Q 254.81 367.22 255.03 367.17
  L 257.24 366.72
  Q 257.40 366.68 257.37 366.52
  L 255.30 356.65
  Q 255.25 356.41 255.01 356.51
  Q 254.30 356.81 253.51 356.84
  A 0.54 0.54 0.0 0 0 253.01 357.53
  L 253.18 358.06
  Q 253.38 358.70 252.71 358.61"
/>
<path stroke="#7b5a1a" vector-effect="non-scaling-stroke" d="
  M 199.85 357.06
  L 198.27 366.74
  A 0.29 0.29 0.0 0 0 198.51 367.07
  L 203.88 367.95
  A 5.29 5.11 9.3 0 0 209.92 363.76
  L 209.95 363.60
  A 5.29 5.11 9.3 0 0 205.56 357.70
  L 200.19 356.82
  A 0.29 0.29 0.0 0 0 199.85 357.06"
/>
<path stroke="#7b5a1a" vector-effect="non-scaling-stroke" d="
  M 222.01 363.25
  L 222.00 361.67
  Q 222.00 361.08 222.59 361.10
  L 229.06 361.31
  Q 229.18 361.31 229.19 361.19
  L 229.24 359.81
  Q 229.25 359.62 229.06 359.62
  L 220.14 359.46
  Q 219.72 359.45 219.72 359.87
  L 219.63 369.25
  Q 219.62 369.71 220.08 369.65
  Q 224.42 369.05 228.62 370.17
  Q 229.21 370.33 229.20 369.72
  L 229.19 368.46
  Q 229.19 367.99 228.72 367.98
  L 222.69 367.89
  Q 222.01 367.88 222.00 367.19
  L 222.00 365.95
  Q 222.00 365.27 222.67 365.20
  Q 224.57 364.98 226.44 365.40
  Q 226.99 365.52 227.00 364.96
  L 227.01 364.02
  Q 227.02 363.53 226.53 363.55
  L 222.51 363.73
  Q 222.01 363.75 222.01 363.25"
/>
<path stroke="#c46327" vector-effect="non-scaling-stroke" d="
  M 220.44 298.02
  L 221.59 303.97
  A 1.16 1.13 -80.9 0 0 222.14 304.75
  Q 225.83 306.93 227.05 310.99
  Q 227.33 311.90 227.57 310.98
  Q 228.46 307.64 230.69 305.95
  C 231.95 304.99 232.76 304.74 233.09 303.07
  Q 233.63 300.33 234.14 297.59
  Q 234.18 297.37 234.40 297.40
  L 234.65 297.44
  Q 234.66 297.44 234.66 297.45
  L 233.19 310.29
  A 1.18 1.17 35.7 0 0 233.30 310.94
  Q 233.67 311.68 233.74 312.47
  Q 234.52 321.08 228.47 326.96
  A 1.15 1.12 67.2 0 0 228.13 327.82
  L 228.35 332.40
  Q 228.38 332.98 228.96 332.99
  Q 238.86 333.14 248.54 335.21
  A 1.20 1.19 -63.6 0 0 249.72 334.81
  Q 256.76 326.42 257.35 316.47
  C 258.43 298.35 243.19 282.92 224.68 284.48
  C 199.49 286.61 188.67 316.50 204.99 334.95
  Q 205.37 335.38 205.93 335.27
  C 212.08 334.08 218.34 333.17 225.69 333.01
  Q 226.20 332.99 226.24 332.49
  L 226.58 328.03
  Q 226.62 327.51 226.29 327.12
  C 224.06 324.47 222.46 323.46 221.40 319.37
  Q 220.82 317.12 220.27 310.92
  A 0.21 0.21 0.0 0 1 220.48 310.69
  L 220.79 310.69
  A 0.05 0.05 0.0 0 1 220.84 310.73
  Q 221.07 313.16 221.99 315.43
  Q 222.19 315.91 222.64 316.15
  Q 225.88 317.91 227.10 321.38
  A 0.32 0.32 0.0 0 0 227.72 321.32
  C 228.27 316.98 234.04 316.86 233.01 311.93
  Q 232.61 310.00 232.16 311.92
  C 231.73 313.72 228.69 317.75 226.34 316.65
  C 220.70 314.00 220.08 303.48 220.42 298.02
  Q 220.42 297.92 220.44 298.02"
/>
<path stroke="#c46327" vector-effect="non-scaling-stroke" d="
  M 227.41 289.30
  C 226.20 295.65 221.90 300.80 227.14 306.81
  A 0.24 0.23 42.9 0 0 227.50 306.80
  C 230.07 303.44 230.66 300.19 228.99 296.13
  Q 227.65 292.90 227.72 289.34
  Q 227.72 289.20 227.58 289.18
  L 227.57 289.18
  Q 227.44 289.17 227.41 289.30"
/>
<path stroke="#c46327" vector-effect="non-scaling-stroke" d="
  M 217.97 307.65
  C 211.09 303.26 198.36 303.98 198.15 314.23
  C 197.93 325.09 210.37 326.54 217.45 321.97
  Q 217.88 321.69 218.39 321.64
  L 219.01 321.58
  Q 219.78 321.51 219.35 320.87
  L 217.28 317.83
  Q 216.85 317.20 216.51 317.88
  L 216.26 318.40
  Q 216.02 318.88 215.58 319.19
  Q 210.55 322.73 205.54 319.97
  C 201.88 317.94 201.66 312.82 204.78 310.17
  C 207.97 307.47 214.10 307.89 216.66 311.51
  Q 216.98 311.97 217.30 311.51
  L 219.54 308.22
  A 0.38 0.38 0.0 0 0 219.10 307.64
  L 218.81 307.75
  Q 218.36 307.90 217.97 307.65"
/>
<path stroke="#c46327" vector-effect="non-scaling-stroke" d="
  M 241.00 316.47
  L 244.44 316.48
  A 1.12 1.11 -16.7 0 1 245.37 316.98
  L 248.61 321.74
  Q 248.90 322.17 248.79 322.67
  Q 248.76 322.83 248.71 322.97
  Q 248.49 323.52 249.09 323.52
  L 254.01 323.52
  Q 254.84 323.51 254.34 322.85
  L 249.88 316.97
  Q 249.44 316.41 250.13 316.21
  C 255.79 314.56 254.92 306.43 249.99 306.07
  Q 247.08 305.86 236.36 306.07
  A 0.42 0.42 0.0 0 0 236.04 306.76
  L 236.28 307.07
  A 1.13 1.10 26.3 0 1 236.53 307.77
  L 236.53 321.76
  Q 236.53 322.31 236.19 322.73
  L 235.99 322.98
  A 0.31 0.31 0.0 0 0 236.23 323.49
  L 241.04 323.46
  Q 241.71 323.45 241.25 322.96
  L 240.85 322.53
  Q 240.47 322.13 240.47 321.58
  L 240.47 317.00
  Q 240.47 316.47 241.00 316.47"
/>
<path stroke="#c46327" vector-effect="non-scaling-stroke" d="
  M 240.45 309.54
  L 240.45 312.70
  A 0.59 0.59 0.0 0 0 241.04 313.29
  L 247.42 313.29
  A 2.33 2.04 0.0 0 0 249.75 311.25
  L 249.75 310.99
  A 2.33 2.04 -0.0 0 0 247.42 308.95
  L 241.04 308.95
  A 0.59 0.59 0.0 0 0 240.45 309.54"
/>
<path stroke="#7b5a1a" vector-effect="non-scaling-stroke" d="
  M 149.05 337.52
  L 146.04 341.97
  A 0.73 0.73 0.0 0 0 146.23 342.99
  L 147.99 344.18
  A 3.37 3.26 34.1 0 0 152.61 343.37
  L 152.78 343.10
  A 3.37 3.26 34.1 0 0 151.82 338.51
  L 150.07 337.32
  A 0.73 0.73 0.0 0 0 149.05 337.52"
/>
<path stroke="#7b5a1a" vector-effect="non-scaling-stroke" d="
  M 305.8275 337.9154
  A 2.33 1.64 -39.9 0 0 302.9880 338.1518
  A 2.33 1.64 -39.9 0 0 302.2525 340.9046
  A 2.33 1.64 -39.9 0 0 305.0920 340.6682
  A 2.33 1.64 -39.9 0 0 305.8275 337.9154"
/>
<path stroke="#7b5a1a" vector-effect="non-scaling-stroke" d="
  M 273.0525 354.9882
  A 2.34 1.67 -19.0 0 0 270.2963 354.1710
  A 2.34 1.67 -19.0 0 0 268.6275 356.5118
  A 2.34 1.67 -19.0 0 0 271.3837 357.3290
  A 2.34 1.67 -19.0 0 0 273.0525 354.9882"
/>
<path stroke="#7b5a1a" vector-effect="non-scaling-stroke" d="
  M 201.67 359.83
  L 201.02 364.72
  A 0.95 0.95 0.0 0 0 201.84 365.79
  L 203.95 366.07
  A 3.28 3.03 7.5 0 0 207.60 363.49
  L 207.70 362.72
  A 3.28 3.03 7.5 0 0 204.85 359.29
  L 202.74 359.01
  A 0.95 0.95 0.0 0 0 201.67 359.83"
/>
</g>
<path fill="#91121a" d="
  M 375.62 171.88
  L 370.82 172.93
  Q 370.30 173.05 370.10 172.55
  C 348.40 116.58 297.30 78.58 237.50 74.43
  C 156.16 68.78 84.76 128.73 75.41 209.56
  Q 75.34 210.13 75.84 209.85
  Q 85.89 204.11 95.00 202.59
  Q 109.87 200.11 135.25 198.01
  Q 184.21 193.95 233.24 190.93
  Q 284.68 187.76 335.98 182.75
  Q 355.12 180.88 373.99 177.15
  C 386.62 174.65 400.50 170.98 412.19 164.22
  Q 401.19 195.56 390.00 226.51
  C 389.01 229.25 384.82 232.89 384.90 236.91
  Q 384.97 239.74 384.88 240.61
  Q 379.62 296.06 342.47 335.46
  C 288.69 392.47 200.90 401.53 136.58 356.67
  Q 96.79 328.92 78.84 281.97
  L 83.57 280.68
  Q 84.11 280.53 84.31 281.05
  C 105.62 336.42 155.31 374.16 214.26 379.34
  C 256.90 383.09 299.35 368.55 330.65 339.54
  Q 373.77 299.55 379.76 239.35
  Q 379.81 238.84 379.40 239.13
  Q 369.31 245.95 357.24 248.00
  C 341.41 250.70 322.92 252.24 309.25 253.23
  C 249.07 257.57 188.86 260.86 128.76 266.29
  C 104.11 268.51 78.56 272.94 55.07 280.86
  L 40.51 286.33
  A 0.39 0.39 0.0 0 1 40.01 285.83
  Q 48.86 260.87 57.60 236.40
  C 61.31 226.05 62.62 221.00 69.13 214.88
  Q 69.73 214.32 69.83 213.26
  Q 75.50 154.07 116.76 113.76
  C 172.43 59.37 259.82 53.89 322.14 100.35
  Q 358.77 127.66 375.62 171.88
  Z
  M 358.26 221.44
  Q 357.31 221.67 357.64 220.75
  L 367.80 192.24
  A 0.38 0.38 0.0 0 0 367.35 191.74
  C 358.04 194.00 354.36 194.05 350.74 204.06
  Q 345.21 219.32 339.90 234.74
  Q 339.71 235.30 340.30 235.24
  Q 353.72 233.81 366.88 230.91
  A 1.60 1.59 -86.2 0 0 368.03 229.90
  L 372.18 218.54
  A 0.31 0.30 3.5 0 0 371.82 218.14
  L 358.26 221.44
  Z
  M 322.38 231.77
  L 321.93 236.48
  Q 321.86 237.10 322.48 237.04
  L 336.91 235.61
  Q 337.39 235.57 337.39 235.08
  L 336.96 196.53
  Q 336.96 196.31 336.75 196.33
  Q 330.66 196.83 324.53 197.48
  Q 321.13 197.84 318.95 199.30
  Q 315.87 201.35 314.28 204.04
  Q 303.83 221.76 292.39 238.92
  A 0.37 0.37 0.0 0 0 292.73 239.49
  L 307.06 238.29
  A 1.40 1.37 11.3 0 0 308.15 237.58
  L 310.88 232.62
  Q 311.17 232.09 311.76 232.04
  L 321.76 231.13
  Q 322.45 231.07 322.38 231.77
  Z
  M 281.49 221.53
  L 280.32 201.73
  Q 280.29 201.33 279.89 201.33
  C 273.69 201.36 267.06 201.59 262.90 206.19
  Q 261.03 208.25 259.10 213.78
  Q 254.22 227.73 249.04 241.75
  A 0.46 0.45 7.7 0 0 249.51 242.36
  L 261.61 241.43
  Q 262.13 241.39 262.31 240.90
  L 270.04 219.07
  Q 270.68 217.26 270.76 219.18
  L 271.59 240.33
  Q 271.61 240.81 272.09 240.78
  L 288.18 239.74
  A 0.96 0.95 -82.1 0 0 289.02 239.10
  L 303.02 199.73
  A 0.29 0.29 0.0 0 0 302.72 199.35
  L 290.45 200.34
  Q 289.97 200.38 289.81 200.84
  L 282.38 221.66
  Q 281.62 223.77 281.49 221.53
  Z
  M 251.7491 207.1357
  A 25.24 16.48 -42.6 0 0 222.0151 212.0891
  A 25.24 16.48 -42.6 0 0 214.5909 241.3043
  A 25.24 16.48 -42.6 0 0 244.3249 236.3509
  A 25.24 16.48 -42.6 0 0 251.7491 207.1357
  Z
  M 203.82 244.84
  L 217.61 206.17
  Q 217.86 205.47 217.12 205.50
  C 211.78 205.71 206.45 205.92 202.43 209.76
  Q 200.21 211.88 198.26 217.39
  Q 193.22 231.70 188.10 245.94
  Q 187.91 246.49 188.49 246.44
  L 203.22 245.30
  A 0.71 0.68 -81.2 0 0 203.82 244.84
  Z
  M 175.36 233.99
  L 174.10 237.30
  Q 173.91 237.78 173.44 237.98
  C 170.27 239.30 164.87 240.06 166.33 234.75
  C 167.84 229.26 171.21 215.39 179.40 218.08
  A 1.56 1.56 0.0 0 1 180.34 220.20
  L 179.89 221.19
  A 0.38 0.37 10.0 0 0 180.26 221.71
  L 193.05 220.85
  A 1.31 1.30 -77.9 0 0 194.11 220.16
  C 199.53 209.97 188.44 206.83 180.99 207.50
  Q 161.70 209.25 153.30 226.68
  C 149.70 234.15 149.07 243.66 157.35 247.41
  C 164.18 250.49 176.75 247.89 184.63 245.85
  Q 185.13 245.73 185.30 245.24
  L 192.52 225.08
  Q 192.74 224.46 192.08 224.49
  Q 186.33 224.82 180.91 225.23
  C 174.68 225.70 171.52 227.33 169.11 232.91
  A 0.61 0.61 0.0 0 0 169.72 233.76
  L 174.89 233.36
  A 0.46 0.46 0.0 0 1 175.36 233.99
  Z
  M 139.50 222.29
  A 1.14 1.14 0.0 0 1 140.48 221.54
  L 153.86 220.45
  Q 154.55 220.39 154.78 219.75
  L 158.25 210.01
  A 0.31 0.31 0.0 0 0 157.93 209.60
  Q 147.65 210.35 137.51 211.37
  C 129.96 212.12 127.26 216.11 124.72 223.24
  Q 119.55 237.77 114.42 252.19
  Q 114.26 252.62 114.72 252.58
  L 143.65 249.78
  Q 144.09 249.73 144.24 249.32
  L 147.62 239.95
  Q 147.85 239.31 147.18 239.37
  L 133.38 240.56
  A 0.25 0.24 -83.0 0 1 133.13 240.23
  L 134.40 236.63
  Q 134.49 236.38 134.75 236.36
  L 141.69 235.94
  A 2.19 2.19 0.0 0 0 143.62 234.48
  L 146.64 225.98
  A 0.40 0.39 -83.0 0 0 146.24 225.46
  L 138.75 226.07
  Q 138.11 226.12 138.33 225.52
  L 139.50 222.29
  Z
  M 110.50 235.35
  Q 108.81 235.35 110.31 234.62
  Q 117.40 231.20 119.66 223.28
  C 121.66 216.26 114.14 213.26 108.47 214.04
  C 97.11 215.61 88.19 215.31 83.71 227.64
  Q 78.00 243.36 72.21 259.79
  Q 71.95 260.50 72.69 260.34
  L 86.85 257.14
  Q 87.28 257.04 87.43 256.62
  L 91.46 245.27
  Q 92.28 242.94 94.73 242.53
  L 96.57 242.23
  A 1.84 1.84 0.0 0 1 98.61 244.66
  L 96.01 251.99
  A 2.78 2.70 -57.4 0 0 96.59 254.82
  Q 97.07 255.31 98.52 255.07
  Q 104.67 254.01 110.94 253.13
  Q 111.45 253.06 111.15 252.64
  C 108.19 248.40 115.30 241.56 113.21 236.69
  Q 113.00 236.21 112.56 235.94
  Q 111.61 235.35 110.50 235.35
  Z"
/>
<path fill="#f6b334" d="
  M 375.62 171.88
  C 388.26 169.30 403.29 165.08 413.97 157.60
  Q 414.53 157.21 414.31 157.86
  L 412.19 164.22
  C 400.50 170.98 386.62 174.65 373.99 177.15
  Q 355.12 180.88 335.98 182.75
  Q 284.68 187.76 233.24 190.93
  Q 184.21 193.95 135.25 198.01
  Q 109.87 200.11 95.00 202.59
  Q 85.89 204.11 75.84 209.85
  Q 75.34 210.13 75.41 209.56
  C 84.76 128.73 156.16 68.78 237.50 74.43
  C 297.30 78.58 348.40 116.58 370.10 172.55
  Q 370.30 173.05 370.82 172.93
  L 375.62 171.88
  Z
  M 212.44 95.59
  L 225.19 94.80
  Q 225.74 94.76 226.19 95.10
  L 226.54 95.37
  A 0.38 0.38 0.0 0 0 227.16 95.05
  L 226.94 90.72
  Q 226.92 90.27 226.49 90.44
  C 225.15 90.97 224.11 91.44 222.63 91.49
  Q 214.78 91.77 206.94 92.71
  Q 206.32 92.79 206.73 93.26
  C 207.33 93.94 207.54 94.22 207.59 95.18
  Q 208.00 103.43 208.89 111.65
  Q 208.95 112.17 208.67 112.62
  Q 208.47 112.95 208.14 113.13
  Q 206.91 113.82 208.25 113.72
  L 226.89 112.31
  Q 227.43 112.27 227.83 112.63
  L 228.38 113.11
  Q 229.33 113.95 228.97 112.73
  Q 228.27 110.41 228.48 107.96
  A 0.28 0.28 0.0 0 0 228.08 107.68
  Q 227.89 107.78 227.85 107.93
  Q 227.72 108.65 226.99 108.72
  L 213.72 109.87
  Q 213.27 109.91 213.25 109.46
  L 213.02 104.51
  Q 213.00 104.19 213.31 104.16
  L 221.37 103.29
  Q 221.92 103.23 222.24 103.69
  L 222.58 104.19
  A 0.33 0.33 0.0 0 0 223.18 103.99
  L 222.95 100.09
  Q 222.92 99.61 222.44 99.67
  L 212.95 100.84
  Q 212.48 100.90 212.46 100.43
  L 212.23 95.82
  A 0.22 0.22 0.0 0 1 212.44 95.59
  Z
  M 258.54 97.43
  C 251.34 90.73 235.96 89.98 235.31 103.07
  C 234.75 114.29 247.49 116.46 255.96 113.19
  A 1.21 1.18 -45.7 0 1 256.78 113.17
  L 257.24 113.32
  Q 257.91 113.54 257.63 112.90
  L 255.86 108.77
  Q 255.60 108.17 255.25 108.72
  C 253.26 111.78 247.44 111.63 244.76 110.53
  C 233.19 105.77 244.15 89.39 255.51 99.57
  C 256.12 100.11 256.17 100.48 256.30 101.26
  Q 256.42 102.01 256.96 101.47
  L 259.82 98.60
  Q 260.63 97.79 259.48 97.78
  Q 259.34 97.78 259.21 97.76
  Q 258.82 97.70 258.54 97.43
  Z
  M 190.09 111.42
  L 181.23 101.57
  Q 180.91 101.22 181.03 100.76
  L 181.31 99.77
  Q 181.46 99.22 180.91 99.38
  L 174.62 101.22
  A 0.36 0.36 0.0 0 0 174.52 101.86
  Q 174.76 102.02 175.06 102.07
  Q 175.53 102.15 175.86 102.51
  L 188.70 116.55
  A 0.77 0.09 73.1 0 1 188.91 117.03
  Q 189.07 117.53 188.93 117.96
  Q 188.53 119.21 189.79 118.82
  L 195.22 117.10
  Q 196.52 116.69 195.27 116.15
  L 194.76 115.92
  Q 194.25 115.71 194.34 115.16
  Q 195.66 106.36 196.60 97.50
  Q 196.70 96.52 197.73 94.56
  Q 198.06 93.94 197.39 94.15
  L 191.29 96.02
  Q 190.45 96.28 191.16 96.81
  L 191.75 97.24
  Q 192.23 97.60 192.17 98.19
  L 190.71 111.23
  Q 190.62 112.01 190.09 111.42
  Z
  M 272.61 108.00
  L 274.41 104.01
  Q 274.52 103.75 274.78 103.86
  Q 280.89 106.37 286.46 108.86
  Q 287.43 109.29 287.41 109.55
  Q 287.33 111.47 288.09 109.71
  L 289.70 105.96
  Q 290.18 104.85 289.08 105.36
  Q 288.99 105.41 288.85 105.47
  Q 288.34 105.70 287.82 105.48
  L 271.09 98.39
  Q 270.58 98.17 270.68 98.72
  C 270.86 99.73 270.92 100.21 270.49 101.20
  Q 267.49 108.11 264.78 115.14
  Q 264.14 116.79 262.58 117.39
  A 0.25 0.25 0.0 0 0 262.57 117.86
  L 280.35 125.38
  Q 280.66 125.51 280.62 125.85
  Q 280.59 126.10 280.63 126.21
  A 0.49 0.48 -42.9 0 0 281.54 126.23
  L 283.18 122.23
  Q 283.44 121.59 282.76 121.73
  L 281.82 121.93
  Q 281.42 122.01 281.05 121.85
  L 269.27 116.82
  Q 268.98 116.70 269.10 116.41
  L 271.05 111.75
  Q 271.16 111.49 271.42 111.59
  C 274.33 112.72 277.57 113.63 280.02 115.86
  Q 280.33 116.15 280.49 115.76
  L 282.12 111.94
  Q 282.37 111.34 281.74 111.45
  L 281.15 111.54
  Q 280.51 111.64 279.91 111.39
  L 272.74 108.32
  Q 272.51 108.23 272.61 108.00
  Z
  M 169.06 117.95
  C 172.91 114.03 171.35 108.68 166.35 107.39
  C 162.61 106.42 154.52 112.21 148.62 115.90
  Q 148.24 116.14 148.49 116.51
  Q 148.58 116.66 148.75 116.58
  Q 149.40 116.24 149.78 116.87
  Q 154.15 124.24 158.56 131.60
  C 159.07 132.44 159.07 133.08 158.80 133.97
  A 0.29 0.28 -7.8 0 0 159.23 134.29
  L 164.27 131.16
  Q 165.05 130.68 164.14 130.61
  Q 163.97 130.60 163.79 130.59
  A 0.89 0.86 75.8 0 1 163.10 130.16
  L 159.81 124.55
  Q 159.53 124.07 159.99 123.78
  L 163.84 121.36
  A 0.93 0.92 40.8 0 1 164.74 121.30
  L 171.52 124.47
  Q 172.14 124.76 172.27 125.43
  Q 172.30 125.60 172.34 125.76
  Q 172.48 126.28 172.95 126.01
  L 178.25 122.98
  Q 179.12 122.48 178.15 122.22
  Q 173.43 120.98 169.15 118.61
  Q 168.67 118.34 169.06 117.95
  Z
  M 305.02 131.26
  C 310.32 134.42 315.91 128.46 313.71 123.73
  Q 312.85 121.87 309.58 119.40
  Q 304.49 115.54 299.28 111.76
  Q 298.85 111.45 298.75 111.97
  Q 298.69 112.27 298.76 112.57
  A 1.20 1.20 0.0 0 1 298.56 113.56
  L 288.12 127.68
  Q 287.78 128.13 287.22 128.26
  L 286.87 128.34
  Q 286.09 128.51 286.74 128.98
  L 291.20 132.16
  Q 291.62 132.46 291.64 131.94
  Q 291.65 131.74 291.60 131.54
  A 1.08 1.03 56.9 0 1 291.77 130.64
  L 295.64 125.44
  Q 295.95 125.04 296.36 125.34
  L 300.03 127.99
  Q 300.45 128.30 300.47 128.81
  C 300.56 131.09 301.01 136.05 299.24 137.74
  Q 298.97 138.00 299.27 138.22
  L 304.15 141.83
  Q 305.49 142.81 305.01 141.23
  Q 304.99 141.14 304.60 140.73
  Q 304.28 140.40 304.29 139.93
  L 304.54 131.52
  A 0.32 0.32 0.0 0 1 305.02 131.26
  Z
  M 137.63 141.67
  Q 137.41 141.43 137.65 141.21
  L 143.53 135.60
  Q 143.93 135.22 144.47 135.30
  L 144.95 135.37
  A 0.33 0.33 0.0 0 0 145.23 134.82
  L 142.08 131.58
  Q 141.63 131.12 141.44 131.73
  Q 141.35 132.00 141.40 132.34
  Q 141.45 132.81 141.11 133.14
  L 135.37 138.66
  Q 134.96 139.06 134.56 138.65
  L 131.94 136.01
  Q 131.55 135.61 131.93 135.21
  C 134.47 132.56 138.98 127.06 142.36 125.91
  Q 142.91 125.73 142.50 125.33
  L 139.24 122.18
  Q 138.76 121.71 138.74 122.38
  Q 138.73 122.62 138.78 122.87
  Q 138.87 123.39 138.50 123.76
  L 125.48 136.49
  Q 124.66 137.30 125.81 137.09
  Q 125.89 137.07 126.30 137.20
  Q 126.53 137.27 126.71 137.45
  Q 133.09 143.82 139.36 150.32
  Q 139.73 150.70 139.59 151.21
  Q 139.52 151.44 139.55 151.68
  Q 139.63 152.29 140.07 151.86
  L 153.85 138.50
  A 0.71 0.70 36.4 0 1 154.66 138.38
  Q 154.95 138.54 155.25 138.48
  Q 155.90 138.36 155.35 138.00
  Q 153.37 136.67 152.10 134.65
  Q 151.52 133.72 151.35 134.84
  Q 151.33 134.92 151.54 135.21
  Q 151.74 135.51 151.48 135.77
  L 141.67 145.42
  Q 141.40 145.68 141.14 145.40
  L 137.63 141.67
  Z
  M 309.50 180.50
  Q 309.42 180.66 309.34 180.82
  A 0.22 0.21 -78.4 0 0 309.54 181.13
  L 313.36 180.91
  Q 314.04 180.87 313.71 180.27
  C 282.87 123.34 206.60 111.78 159.71 155.71
  Q 142.15 172.17 134.07 195.60
  Q 133.88 196.16 134.47 196.19
  Q 136.52 196.28 138.49 195.64
  A 0.25 0.25 0.0 0 0 138.64 195.29
  Q 138.55 195.12 138.47 194.96
  Q 138.30 194.66 138.42 194.34
  C 160.70 134.62 233.57 113.27 284.40 151.59
  Q 299.58 163.03 309.50 180.21
  Q 309.58 180.35 309.50 180.50
  Z
  M 322.63 132.65
  L 320.48 134.53
  A 0.34 0.34 0.0 0 0 320.70 135.12
  Q 321.51 135.11 322.19 134.70
  Q 322.59 134.45 323.03 134.60
  L 327.01 135.91
  Q 327.80 136.17 327.23 135.57
  L 323.12 131.13
  A 0.30 0.30 0.0 0 0 322.65 131.16
  Q 322.39 131.55 322.70 131.94
  A 0.51 0.51 0.0 0 1 322.63 132.65
  Z
  M 312.64 148.71
  L 324.57 137.35
  A 0.54 0.54 0.0 0 0 324.29 136.43
  L 320.59 135.77
  Q 319.59 135.59 318.84 136.28
  C 315.80 139.10 311.01 144.89 308.03 145.72
  Q 307.77 145.79 307.95 145.99
  L 311.72 150.13
  A 0.36 0.36 0.0 0 0 312.35 149.86
  L 312.32 149.56
  Q 312.28 149.05 312.64 148.71
  Z
  M 305.97 181.22
  C 267.20 115.35 169.05 123.73 142.02 194.92
  A 0.51 0.51 0.0 0 0 142.54 195.61
  L 305.79 181.57
  A 0.23 0.23 0.0 0 0 305.97 181.22
  Z
  M 120.88 146.54
  A 0.26 0.26 0.0 0 0 120.38 146.64
  Q 120.36 147.03 120.09 147.33
  Q 119.56 147.91 119.31 148.02
  C 112.39 151.05 106.51 160.15 110.91 167.29
  Q 113.66 171.75 118.67 172.37
  C 125.14 173.16 130.08 168.53 132.17 162.71
  Q 132.76 161.05 133.37 155.01
  Q 133.41 154.62 133.02 154.63
  L 128.99 154.71
  Q 128.31 154.73 128.68 155.29
  L 129.28 156.20
  Q 129.59 156.67 129.57 157.23
  C 129.42 162.69 125.85 168.53 119.73 167.71
  Q 116.25 167.24 114.55 164.03
  Q 113.11 161.33 114.12 158.31
  C 115.10 155.37 118.61 150.74 122.34 151.23
  Q 122.97 151.31 122.72 150.73
  L 120.88 146.54
  Z
  M 326.61 167.76
  Q 326.30 167.76 326.02 167.63
  A 0.46 0.46 0.0 0 0 325.45 168.30
  L 329.04 173.71
  Q 330.08 175.28 329.96 173.52
  Q 329.91 172.92 330.48 171.86
  Q 334.88 163.62 339.60 155.52
  Q 339.88 155.04 340.44 155.00
  L 341.22 154.95
  Q 342.07 154.89 341.59 154.18
  L 338.25 149.26
  Q 337.37 147.95 337.11 149.35
  Q 337.04 149.73 336.61 150.08
  Q 336.32 150.31 335.84 150.39
  Q 326.39 151.80 316.91 153.11
  A 0.82 0.80 60.3 0 1 316.25 152.92
  Q 316.00 152.70 315.66 152.65
  Q 314.82 152.52 315.29 153.23
  L 318.68 158.34
  Q 319.06 158.91 319.35 158.30
  Q 319.53 157.92 319.56 157.48
  A 0.81 0.80 -2.3 0 1 320.24 156.75
  L 323.13 156.27
  A 0.88 0.88 0.0 0 1 324.01 156.64
  L 328.85 163.64
  A 1.01 1.01 0.0 0 1 328.89 164.73
  L 327.39 167.32
  Q 327.13 167.77 326.61 167.76
  Z"
/>
<path fill="#000000" d="
  M 212.44 95.59
  A 0.22 0.22 0.0 0 0 212.23 95.82
  L 212.46 100.43
  Q 212.48 100.90 212.95 100.84
  L 222.44 99.67
  Q 222.92 99.61 222.95 100.09
  L 223.18 103.99
  A 0.33 0.33 0.0 0 1 222.58 104.19
  L 222.24 103.69
  Q 221.92 103.23 221.37 103.29
  L 213.31 104.16
  Q 213.00 104.19 213.02 104.51
  L 213.25 109.46
  Q 213.27 109.91 213.72 109.87
  L 226.99 108.72
  Q 227.72 108.65 227.85 107.93
  Q 227.89 107.78 228.08 107.68
  A 0.28 0.28 0.0 0 1 228.48 107.96
  Q 228.27 110.41 228.97 112.73
  Q 229.33 113.95 228.38 113.11
  L 227.83 112.63
  Q 227.43 112.27 226.89 112.31
  L 208.25 113.72
  Q 206.91 113.82 208.14 113.13
  Q 208.47 112.95 208.67 112.62
  Q 208.95 112.17 208.89 111.65
  Q 208.00 103.43 207.59 95.18
  C 207.54 94.22 207.33 93.94 206.73 93.26
  Q 206.32 92.79 206.94 92.71
  Q 214.78 91.77 222.63 91.49
  C 224.11 91.44 225.15 90.97 226.49 90.44
  Q 226.92 90.27 226.94 90.72
  L 227.16 95.05
  A 0.38 0.38 0.0 0 1 226.54 95.37
  L 226.19 95.10
  Q 225.74 94.76 225.19 94.80
  L 212.44 95.59
  Z"
/>
<path fill="#000000" d="
  M 259.21 97.76
  Q 259.34 97.78 259.48 97.78
  Q 260.63 97.79 259.82 98.60
  L 256.96 101.47
  Q 256.42 102.01 256.30 101.26
  C 256.17 100.48 256.12 100.11 255.51 99.57
  C 244.15 89.39 233.19 105.77 244.76 110.53
  C 247.44 111.63 253.26 111.78 255.25 108.72
  Q 255.60 108.17 255.86 108.77
  L 257.63 112.90
  Q 257.91 113.54 257.24 113.32
  L 256.78 113.17
  A 1.21 1.18 -45.7 0 0 255.96 113.19
  C 247.49 116.46 234.75 114.29 235.31 103.07
  C 235.96 89.98 251.34 90.73 258.54 97.43
  Q 258.82 97.70 259.21 97.76
  Z"
/>
<path fill="#000000" d="
  M 190.71 111.23
  L 192.17 98.19
  Q 192.23 97.60 191.75 97.24
  L 191.16 96.81
  Q 190.45 96.28 191.29 96.02
  L 197.39 94.15
  Q 198.06 93.94 197.73 94.56
  Q 196.70 96.52 196.60 97.50
  Q 195.66 106.36 194.34 115.16
  Q 194.25 115.71 194.76 115.92
  L 195.27 116.15
  Q 196.52 116.69 195.22 117.10
  L 189.79 118.82
  Q 188.53 119.21 188.93 117.96
  Q 189.07 117.53 188.91 117.03
  A 0.77 0.09 73.1 0 0 188.70 116.55
  L 175.86 102.51
  Q 175.53 102.15 175.06 102.07
  Q 174.76 102.02 174.52 101.86
  A 0.36 0.36 0.0 0 1 174.62 101.22
  L 180.91 99.38
  Q 181.46 99.22 181.31 99.77
  L 181.03 100.76
  Q 180.91 101.22 181.23 101.57
  L 190.09 111.42
  Q 190.62 112.01 190.71 111.23
  Z"
/>
<path fill="#000000" d="
  M 272.74 108.32
  L 279.91 111.39
  Q 280.51 111.64 281.15 111.54
  L 281.74 111.45
  Q 282.37 111.34 282.12 111.94
  L 280.49 115.76
  Q 280.33 116.15 280.02 115.86
  C 277.57 113.63 274.33 112.72 271.42 111.59
  Q 271.16 111.49 271.05 111.75
  L 269.10 116.41
  Q 268.98 116.70 269.27 116.82
  L 281.05 121.85
  Q 281.42 122.01 281.82 121.93
  L 282.76 121.73
  Q 283.44 121.59 283.18 122.23
  L 281.54 126.23
  A 0.49 0.48 -42.9 0 1 280.63 126.21
  Q 280.59 126.10 280.62 125.85
  Q 280.66 125.51 280.35 125.38
  L 262.57 117.86
  A 0.25 0.25 0.0 0 1 262.58 117.39
  Q 264.14 116.79 264.78 115.14
  Q 267.49 108.11 270.49 101.20
  C 270.92 100.21 270.86 99.73 270.68 98.72
  Q 270.58 98.17 271.09 98.39
  L 287.82 105.48
  Q 288.34 105.70 288.85 105.47
  Q 288.99 105.41 289.08 105.36
  Q 290.18 104.85 289.70 105.96
  L 288.09 109.71
  Q 287.33 111.47 287.41 109.55
  Q 287.43 109.29 286.46 108.86
  Q 280.89 106.37 274.78 103.86
  Q 274.52 103.75 274.41 104.01
  L 272.61 108.00
  Q 272.51 108.23 272.74 108.32
  Z"
/>
<path fill="#000000" d="
  M 169.15 118.61
  Q 173.43 120.98 178.15 122.22
  Q 179.12 122.48 178.25 122.98
  L 172.95 126.01
  Q 172.48 126.28 172.34 125.76
  Q 172.30 125.60 172.27 125.43
  Q 172.14 124.76 171.52 124.47
  L 164.74 121.30
  A 0.93 0.92 40.8 0 0 163.84 121.36
  L 159.99 123.78
  Q 159.53 124.07 159.81 124.55
  L 163.10 130.16
  A 0.89 0.86 75.8 0 0 163.79 130.59
  Q 163.97 130.60 164.14 130.61
  Q 165.05 130.68 164.27 131.16
  L 159.23 134.29
  A 0.29 0.28 -7.8 0 1 158.80 133.97
  C 159.07 133.08 159.07 132.44 158.56 131.60
  Q 154.15 124.24 149.78 116.87
  Q 149.40 116.24 148.75 116.58
  Q 148.58 116.66 148.49 116.51
  Q 148.24 116.14 148.62 115.90
  C 154.52 112.21 162.61 106.42 166.35 107.39
  C 171.35 108.68 172.91 114.03 169.06 117.95
  Q 168.67 118.34 169.15 118.61
  Z
  M 155.10 116.68
  L 157.41 120.54
  A 0.50 0.50 0.0 0 0 158.10 120.71
  L 165.04 116.53
  A 2.96 2.61 -31.0 0 0 166.24 112.77
  L 166.09 112.53
  A 2.96 2.61 -31.0 0 0 162.21 111.82
  L 155.27 115.99
  A 0.50 0.50 0.0 0 0 155.10 116.68
  Z"
/>
<path fill="#f6b334" d="
  M 155.10 116.68
  A 0.50 0.50 0.0 0 1 155.27 115.99
  L 162.21 111.82
  A 2.96 2.61 -31.0 0 1 166.09 112.53
  L 166.24 112.77
  A 2.96 2.61 -31.0 0 1 165.04 116.53
  L 158.10 120.71
  A 0.50 0.50 0.0 0 1 157.41 120.54
  L 155.10 116.68
  Z"
/>
<path fill="#000000" d="
  M 305.02 131.26
  A 0.32 0.32 0.0 0 0 304.54 131.52
  L 304.29 139.93
  Q 304.28 140.40 304.60 140.73
  Q 304.99 141.14 305.01 141.23
  Q 305.49 142.81 304.15 141.83
  L 299.27 138.22
  Q 298.97 138.00 299.24 137.74
  C 301.01 136.05 300.56 131.09 300.47 128.81
  Q 300.45 128.30 300.03 127.99
  L 296.36 125.34
  Q 295.95 125.04 295.64 125.44
  L 291.77 130.64
  A 1.08 1.03 56.9 0 0 291.60 131.54
  Q 291.65 131.74 291.64 131.94
  Q 291.62 132.46 291.20 132.16
  L 286.74 128.98
  Q 286.09 128.51 286.87 128.34
  L 287.22 128.26
  Q 287.78 128.13 288.12 127.68
  L 298.56 113.56
  A 1.20 1.20 0.0 0 0 298.76 112.57
  Q 298.69 112.27 298.75 111.97
  Q 298.85 111.45 299.28 111.76
  Q 304.49 115.54 309.58 119.40
  Q 312.85 121.87 313.71 123.73
  C 315.91 128.46 310.32 134.42 305.02 131.26
  Z
  M 300.95 118.08
  L 298.33 121.64
  A 0.57 0.57 0.0 0 0 298.45 122.43
  L 304.58 126.95
  A 3.32 2.47 36.4 0 0 308.71 126.93
  L 309.08 126.43
  A 3.32 2.47 36.4 0 0 307.88 122.47
  L 301.75 117.96
  A 0.57 0.57 0.0 0 0 300.95 118.08
  Z"
/>
<path fill="#f6b334" d="
  M 300.95 118.08
  A 0.57 0.57 0.0 0 1 301.75 117.96
  L 307.88 122.47
  A 3.32 2.47 36.4 0 1 309.08 126.43
  L 308.71 126.93
  A 3.32 2.47 36.4 0 1 304.58 126.95
  L 298.45 122.43
  A 0.57 0.57 0.0 0 1 298.33 121.64
  L 300.95 118.08
  Z"
/>
<path fill="#000000" d="
  M 141.67 145.42
  L 151.48 135.77
  Q 151.74 135.51 151.54 135.21
  Q 151.33 134.92 151.35 134.84
  Q 151.52 133.72 152.10 134.65
  Q 153.37 136.67 155.35 138.00
  Q 155.90 138.36 155.25 138.48
  Q 154.95 138.54 154.66 138.38
  A 0.71 0.70 36.4 0 0 153.85 138.50
  L 140.07 151.86
  Q 139.63 152.29 139.55 151.68
  Q 139.52 151.44 139.59 151.21
  Q 139.73 150.70 139.36 150.32
  Q 133.09 143.82 126.71 137.45
  Q 126.53 137.27 126.30 137.20
  Q 125.89 137.07 125.81 137.09
  Q 124.66 137.30 125.48 136.49
  L 138.50 123.76
  Q 138.87 123.39 138.78 122.87
  Q 138.73 122.62 138.74 122.38
  Q 138.76 121.71 139.24 122.18
  L 142.50 125.33
  Q 142.91 125.73 142.36 125.91
  C 138.98 127.06 134.47 132.56 131.93 135.21
  Q 131.55 135.61 131.94 136.01
  L 134.56 138.65
  Q 134.96 139.06 135.37 138.66
  L 141.11 133.14
  Q 141.45 132.81 141.40 132.34
  Q 141.35 132.00 141.44 131.73
  Q 141.63 131.12 142.08 131.58
  L 145.23 134.82
  A 0.33 0.33 0.0 0 1 144.95 135.37
  L 144.47 135.30
  Q 143.93 135.22 143.53 135.60
  L 137.65 141.21
  Q 137.41 141.43 137.63 141.67
  L 141.14 145.40
  Q 141.40 145.68 141.67 145.42
  Z"
/>
<path fill="#ffffff" d="
  M 309.50 180.21
  Q 299.58 163.03 284.40 151.59
  C 233.57 113.27 160.70 134.62 138.42 194.34
  Q 138.30 194.66 138.47 194.96
  Q 138.55 195.12 138.64 195.29
  A 0.25 0.25 0.0 0 1 138.49 195.64
  Q 136.52 196.28 134.47 196.19
  Q 133.88 196.16 134.07 195.60
  Q 142.15 172.17 159.71 155.71
  C 206.60 111.78 282.87 123.34 313.71 180.27
  Q 314.04 180.87 313.36 180.91
  L 309.54 181.13
  A 0.22 0.21 -78.4 0 1 309.34 180.82
  Q 309.42 180.66 309.50 180.50
  Q 309.58 180.35 309.50 180.21
  Z"
/>
<path fill="#000000" d="
  M 322.70 131.94
  Q 322.39 131.55 322.65 131.16
  A 0.30 0.30 0.0 0 1 323.12 131.13
  L 327.23 135.57
  Q 327.80 136.17 327.01 135.91
  L 323.03 134.60
  Q 322.59 134.45 322.19 134.70
  Q 321.51 135.11 320.70 135.12
  A 0.34 0.34 0.0 0 1 320.48 134.53
  L 322.63 132.65
  A 0.51 0.51 0.0 0 0 322.70 131.94
  Z"
/>
<path fill="#000000" d="
  M 312.32 149.56
  L 312.35 149.86
  A 0.36 0.36 0.0 0 1 311.72 150.13
  L 307.95 145.99
  Q 307.77 145.79 308.03 145.72
  C 311.01 144.89 315.80 139.10 318.84 136.28
  Q 319.59 135.59 320.59 135.77
  L 324.29 136.43
  A 0.54 0.54 0.0 0 1 324.57 137.35
  L 312.64 148.71
  Q 312.28 149.05 312.32 149.56
  Z"
/>
<path fill="#ffffff" d="
  M 142.02 194.92
  C 169.05 123.73 267.20 115.35 305.97 181.22
  A 0.23 0.23 0.0 0 1 305.79 181.57
  L 142.54 195.61
  A 0.51 0.51 0.0 0 1 142.02 194.92
  Z"
/>
<path fill="#000000" d="
  M 120.88 146.54
  L 122.72 150.73
  Q 122.97 151.31 122.34 151.23
  C 118.61 150.74 115.10 155.37 114.12 158.31
  Q 113.11 161.33 114.55 164.03
  Q 116.25 167.24 119.73 167.71
  C 125.85 168.53 129.42 162.69 129.57 157.23
  Q 129.59 156.67 129.28 156.20
  L 128.68 155.29
  Q 128.31 154.73 128.99 154.71
  L 133.02 154.63
  Q 133.41 154.62 133.37 155.01
  Q 132.76 161.05 132.17 162.71
  C 130.08 168.53 125.14 173.16 118.67 172.37
  Q 113.66 171.75 110.91 167.29
  C 106.51 160.15 112.39 151.05 119.31 148.02
  Q 119.56 147.91 120.09 147.33
  Q 120.36 147.03 120.38 146.64
  A 0.26 0.26 0.0 0 1 120.88 146.54
  Z"
/>
<path fill="#000000" d="
  M 327.39 167.32
  L 328.89 164.73
  A 1.01 1.01 0.0 0 0 328.85 163.64
  L 324.01 156.64
  A 0.88 0.88 0.0 0 0 323.13 156.27
  L 320.24 156.75
  A 0.81 0.80 -2.3 0 0 319.56 157.48
  Q 319.53 157.92 319.35 158.30
  Q 319.06 158.91 318.68 158.34
  L 315.29 153.23
  Q 314.82 152.52 315.66 152.65
  Q 316.00 152.70 316.25 152.92
  A 0.82 0.80 60.3 0 0 316.91 153.11
  Q 326.39 151.80 335.84 150.39
  Q 336.32 150.31 336.61 150.08
  Q 337.04 149.73 337.11 149.35
  Q 337.37 147.95 338.25 149.26
  L 341.59 154.18
  Q 342.07 154.89 341.22 154.95
  L 340.44 155.00
  Q 339.88 155.04 339.60 155.52
  Q 334.88 163.62 330.48 171.86
  Q 329.91 172.92 329.96 173.52
  Q 330.08 175.28 329.04 173.71
  L 325.45 168.30
  A 0.46 0.46 0.0 0 1 326.02 167.63
  Q 326.30 167.76 326.61 167.76
  Q 327.13 167.77 327.39 167.32
  Z
  M 327.59 155.69
  A 0.31 0.31 0.0 0 0 327.38 156.17
  L 330.64 161.05
  A 0.31 0.31 0.0 0 0 331.17 161.04
  L 334.76 155.10
  A 0.31 0.31 0.0 0 0 334.45 154.63
  L 327.59 155.69
  Z"
/>
<path fill="#f6b334" d="
  M 327.59 155.69
  L 334.45 154.63
  A 0.31 0.31 0.0 0 1 334.76 155.10
  L 331.17 161.04
  A 0.31 0.31 0.0 0 1 330.64 161.05
  L 327.38 156.17
  A 0.31 0.31 0.0 0 1 327.59 155.69
  Z"
/>
<path fill="#91121a" d="
  M 386.02 162.66
  A 5.42 5.42 0.0 0 1 380.60 168.08
  A 5.42 5.42 0.0 0 1 375.18 162.66
  A 5.42 5.42 0.0 0 1 380.60 157.24
  A 5.42 5.42 0.0 0 1 386.02 162.66
  Z
  M 382.33 165.79
  Q 381.63 164.32 380.31 163.38
  Q 379.64 162.91 379.74 163.72
  Q 379.88 164.86 379.38 165.90
  A 0.42 0.41 -33.4 0 1 378.59 165.74
  L 378.45 160.59
  Q 378.44 160.11 378.89 159.97
  Q 381.09 159.26 382.75 160.79
  A 0.69 0.69 0.0 0 1 382.79 161.76
  L 382.32 162.27
  Q 381.92 162.71 382.25 163.19
  Q 382.91 164.14 383.00 165.29
  Q 383.04 165.84 383.48 165.51
  C 386.32 163.39 383.71 158.26 380.28 158.48
  C 373.94 158.88 376.66 169.80 382.67 166.14
  A 0.09 0.08 42.0 0 0 382.66 165.99
  L 382.42 165.88
  Q 382.36 165.85 382.33 165.79
  Z
  M 379.78 161.18
  Q 379.73 161.36 379.73 161.56
  Q 379.73 162.12 380.29 162.12
  Q 380.66 162.13 380.95 161.92
  A 0.52 0.52 0.0 0 0 380.91 161.05
  L 380.55 160.84
  Q 379.94 160.49 379.78 161.18
  Z"
/>
<path fill="#ffffff" d="
  M 358.26 221.44
  L 371.82 218.14
  A 0.31 0.30 3.5 0 1 372.18 218.54
  L 368.03 229.90
  A 1.60 1.59 -86.2 0 1 366.88 230.91
  Q 353.72 233.81 340.30 235.24
  Q 339.71 235.30 339.90 234.74
  Q 345.21 219.32 350.74 204.06
  C 354.36 194.05 358.04 194.00 367.35 191.74
  A 0.38 0.38 0.0 0 1 367.80 192.24
  L 357.64 220.75
  Q 357.31 221.67 358.26 221.44
  Z"
/>
<path fill="#ffffff" d="
  M 321.76 231.13
  L 311.76 232.04
  Q 311.17 232.09 310.88 232.62
  L 308.15 237.58
  A 1.40 1.37 11.3 0 1 307.06 238.29
  L 292.73 239.49
  A 0.37 0.37 0.0 0 1 292.39 238.92
  Q 303.83 221.76 314.28 204.04
  Q 315.87 201.35 318.95 199.30
  Q 321.13 197.84 324.53 197.48
  Q 330.66 196.83 336.75 196.33
  Q 336.96 196.31 336.96 196.53
  L 337.39 235.08
  Q 337.39 235.57 336.91 235.61
  L 322.48 237.04
  Q 321.86 237.10 321.93 236.48
  L 322.38 231.77
  Q 322.45 231.07 321.76 231.13
  Z
  M 323.01 220.74
  L 324.48 207.70
  Q 324.53 207.21 324.15 207.53
  Q 323.98 207.66 323.86 207.91
  Q 320.56 214.51 317.10 221.15
  Q 316.71 221.89 317.54 221.83
  L 322.27 221.46
  Q 322.93 221.40 323.01 220.74
  Z"
/>
<path fill="#ffffff" d="
  M 281.49 221.53
  Q 281.62 223.77 282.38 221.66
  L 289.81 200.84
  Q 289.97 200.38 290.45 200.34
  L 302.72 199.35
  A 0.29 0.29 0.0 0 1 303.02 199.73
  L 289.02 239.10
  A 0.96 0.95 -82.1 0 1 288.18 239.74
  L 272.09 240.78
  Q 271.61 240.81 271.59 240.33
  L 270.76 219.18
  Q 270.68 217.26 270.04 219.07
  L 262.31 240.90
  Q 262.13 241.39 261.61 241.43
  L 249.51 242.36
  A 0.46 0.45 7.7 0 1 249.04 241.75
  Q 254.22 227.73 259.10 213.78
  Q 261.03 208.25 262.90 206.19
  C 267.06 201.59 273.69 201.36 279.89 201.33
  Q 280.29 201.33 280.32 201.73
  L 281.49 221.53
  Z"
/>
<path fill="#ffffff" d="
  M 251.7491 207.1357
  A 25.24 16.48 -42.6 0 1 244.3249 236.3509
  A 25.24 16.48 -42.6 0 1 214.5909 241.3043
  A 25.24 16.48 -42.6 0 1 222.0151 212.0891
  A 25.24 16.48 -42.6 0 1 251.7491 207.1357
  Z
  M 238.09 214.19
  C 232.26 211.86 228.11 227.09 227.26 231.00
  Q 226.67 233.73 228.65 234.64
  A 1.75 1.74 43.0 0 0 230.22 234.59
  C 235.54 231.65 238.25 221.82 239.25 216.28
  A 1.88 1.88 0.0 0 0 238.09 214.19
  Z"
/>
<path fill="#ffffff" d="
  M 217.61 206.17
  L 203.82 244.84
  A 0.71 0.68 -81.2 0 1 203.22 245.30
  L 188.49 246.44
  Q 187.91 246.49 188.10 245.94
  Q 193.22 231.70 198.26 217.39
  Q 200.21 211.88 202.43 209.76
  C 206.45 205.92 211.78 205.71 217.12 205.50
  Q 217.86 205.47 217.61 206.17
  Z"
/>
<path fill="#91121a" d="
  M 324.48 207.70
  L 323.01 220.74
  Q 322.93 221.40 322.27 221.46
  L 317.54 221.83
  Q 316.71 221.89 317.10 221.15
  Q 320.56 214.51 323.86 207.91
  Q 323.98 207.66 324.15 207.53
  Q 324.53 207.21 324.48 207.70
  Z"
/>
<path fill="#ffffff" d="
  M 174.89 233.36
  L 169.72 233.76
  A 0.61 0.61 0.0 0 1 169.11 232.91
  C 171.52 227.33 174.68 225.70 180.91 225.23
  Q 186.33 224.82 192.08 224.49
  Q 192.74 224.46 192.52 225.08
  L 185.30 245.24
  Q 185.13 245.73 184.63 245.85
  C 176.75 247.89 164.18 250.49 157.35 247.41
  C 149.07 243.66 149.70 234.15 153.30 226.68
  Q 161.70 209.25 180.99 207.50
  C 188.44 206.83 199.53 209.97 194.11 220.16
  A 1.31 1.30 -77.9 0 1 193.05 220.85
  L 180.26 221.71
  A 0.38 0.37 10.0 0 1 179.89 221.19
  L 180.34 220.20
  A 1.56 1.56 0.0 0 0 179.40 218.08
  C 171.21 215.39 167.84 229.26 166.33 234.75
  C 164.87 240.06 170.27 239.30 173.44 237.98
  Q 173.91 237.78 174.10 237.30
  L 175.36 233.99
  A 0.46 0.46 0.0 0 0 174.89 233.36
  Z"
/>
<path fill="#ffffff" d="
  M 138.75 226.07
  L 146.24 225.46
  A 0.40 0.39 -83.0 0 1 146.64 225.98
  L 143.62 234.48
  A 2.19 2.19 0.0 0 1 141.69 235.94
  L 134.75 236.36
  Q 134.49 236.38 134.40 236.63
  L 133.13 240.23
  A 0.25 0.24 -83.0 0 0 133.38 240.56
  L 147.18 239.37
  Q 147.85 239.31 147.62 239.95
  L 144.24 249.32
  Q 144.09 249.73 143.65 249.78
  L 114.72 252.58
  Q 114.26 252.62 114.42 252.19
  Q 119.55 237.77 124.72 223.24
  C 127.26 216.11 129.96 212.12 137.51 211.37
  Q 147.65 210.35 157.93 209.60
  A 0.31 0.31 0.0 0 1 158.25 210.01
  L 154.78 219.75
  Q 154.55 220.39 153.86 220.45
  L 140.48 221.54
  A 1.14 1.14 0.0 0 0 139.50 222.29
  L 138.33 225.52
  Q 138.11 226.12 138.75 226.07
  Z"
/>
<path fill="#ffffff" d="
  M 110.50 235.35
  Q 111.61 235.35 112.56 235.94
  Q 113.00 236.21 113.21 236.69
  C 115.30 241.56 108.19 248.40 111.15 252.64
  Q 111.45 253.06 110.94 253.13
  Q 104.67 254.01 98.52 255.07
  Q 97.07 255.31 96.59 254.82
  A 2.78 2.70 -57.4 0 1 96.01 251.99
  L 98.61 244.66
  A 1.84 1.84 0.0 0 0 96.57 242.23
  L 94.73 242.53
  Q 92.28 242.94 91.46 245.27
  L 87.43 256.62
  Q 87.28 257.04 86.85 257.14
  L 72.69 260.34
  Q 71.95 260.50 72.21 259.79
  Q 78.00 243.36 83.71 227.64
  C 88.19 215.31 97.11 215.61 108.47 214.04
  C 114.14 213.26 121.66 216.26 119.66 223.28
  Q 117.40 231.20 110.31 234.62
  Q 108.81 235.35 110.50 235.35
  Z
  M 97.53 233.60
  L 99.45 232.92
  Q 101.90 232.06 103.52 230.03
  Q 104.95 228.23 104.95 225.92
  A 0.94 0.93 12.3 0 0 104.40 225.07
  Q 101.63 223.83 98.92 225.21
  Q 98.53 225.41 98.39 225.82
  L 96.13 232.21
  Q 95.37 234.37 97.53 233.60
  Z"
/>
<path fill="#91121a" d="
  M 227.26 231.00
  C 228.11 227.09 232.26 211.86 238.09 214.19
  A 1.88 1.88 0.0 0 1 239.25 216.28
  C 238.25 221.82 235.54 231.65 230.22 234.59
  A 1.75 1.74 43.0 0 1 228.65 234.64
  Q 226.67 233.73 227.26 231.00
  Z"
/>
<path fill="#91121a" d="
  M 96.13 232.21
  L 98.39 225.82
  Q 98.53 225.41 98.92 225.21
  Q 101.63 223.83 104.40 225.07
  A 0.94 0.93 12.3 0 1 104.95 225.92
  Q 104.95 228.23 103.52 230.03
  Q 101.90 232.06 99.45 232.92
  L 97.53 233.60
  Q 95.37 234.37 96.13 232.21
  Z"
/>
<path fill="#f6b334" d="
  M 78.84 281.97
  Q 65.46 285.59 52.31 291.23
  Q 51.81 291.44 51.97 290.93
  L 55.07 280.86
  C 78.56 272.94 104.11 268.51 128.76 266.29
  C 188.86 260.86 249.07 257.57 309.25 253.23
  C 322.92 252.24 341.41 250.70 357.24 248.00
  Q 369.31 245.95 379.40 239.13
  Q 379.81 238.84 379.76 239.35
  Q 373.77 299.55 330.65 339.54
  C 299.35 368.55 256.90 383.09 214.26 379.34
  C 155.31 374.16 105.62 336.42 84.31 281.05
  Q 84.11 280.53 83.57 280.68
  L 78.84 281.97
  Z
  M 151.72 278.23
  Q 166.42 299.71 190.22 310.25
  A 0.26 0.26 0.0 0 0 190.58 310.06
  Q 193.91 291.88 208.48 283.14
  C 228.61 271.07 253.17 280.32 261.69 301.53
  C 262.74 304.13 263.31 307.08 263.84 309.97
  Q 263.95 310.56 264.50 310.30
  Q 298.49 294.44 312.29 259.42
  Q 312.98 257.68 313.94 256.04
  A 1.04 1.04 0.0 0 0 312.95 254.48
  C 282.65 257.32 252.30 259.56 221.97 262.06
  C 197.25 264.10 172.57 266.91 147.84 269.87
  A 0.55 0.55 0.0 0 0 147.40 270.65
  Q 149.20 274.54 151.72 278.23
  Z
  M 320.38 255.52
  L 318.96 255.56
  Q 317.74 255.60 317.34 256.75
  Q 303.27 296.87 264.59 314.39
  Q 264.04 314.64 264.02 315.24
  L 263.91 317.93
  Q 263.89 318.53 264.44 318.29
  Q 306.40 299.99 321.24 256.69
  Q 321.65 255.48 320.38 255.52
  Z
  M 142.62 276.91
  Q 142.62 277.05 142.63 277.19
  Q 142.66 277.45 142.82 277.72
  Q 159.98 305.64 190.18 318.21
  Q 190.52 318.35 190.51 317.99
  L 190.48 314.99
  Q 190.48 314.56 190.08 314.38
  Q 159.18 300.71 143.20 270.91
  Q 142.94 270.43 142.39 270.46
  L 139.74 270.61
  Q 139.16 270.65 139.39 271.19
  Q 140.59 273.99 142.44 276.38
  Q 142.62 276.61 142.62 276.91
  Z
  M 261.66 314.62
  A 34.39 34.39 0.0 0 0 227.27 280.23
  A 34.39 34.39 0.0 0 0 192.88 314.62
  A 34.39 34.39 0.0 0 0 227.27 349.01
  A 34.39 34.39 0.0 0 0 261.66 314.62
  Z
  M 136.60 329.49
  A 2.03 2.03 0.0 0 0 134.57 327.46
  A 2.03 2.03 0.0 0 0 132.54 329.49
  A 2.03 2.03 0.0 0 0 134.57 331.52
  A 2.03 2.03 0.0 0 0 136.60 329.49
  Z
  M 321.8356 329.2238
  A 2.11 2.00 -6.7 0 0 319.5067 327.4837
  A 2.11 2.00 -6.7 0 0 317.6444 329.7162
  A 2.11 2.00 -6.7 0 0 319.9733 331.4563
  A 2.11 2.00 -6.7 0 0 321.8356 329.2238
  Z
  M 148.31 334.38
  L 142.86 342.55
  A 0.24 0.24 0.0 0 0 142.92 342.88
  L 147.64 346.03
  A 4.95 4.93 33.7 0 0 154.50 344.68
  L 154.74 344.31
  A 4.95 4.93 33.7 0 0 153.36 337.46
  L 148.64 334.32
  A 0.24 0.24 0.0 0 0 148.31 334.38
  Z
  M 307.87 340.62
  C 308.69 343.07 306.56 345.12 304.15 344.80
  Q 303.70 344.74 303.69 345.19
  L 303.66 346.74
  Q 303.65 347.11 304.01 347.01
  C 308.85 345.64 313.39 341.24 307.93 336.76
  C 301.75 331.69 295.61 343.75 303.35 343.35
  C 305.10 343.26 306.40 341.91 307.26 340.55
  Q 307.64 339.94 307.87 340.62
  Z
  M 164.57 351.41
  A 0.64 0.64 0.0 0 1 165.45 351.03
  L 168.72 352.60
  Q 169.38 352.92 169.81 352.32
  L 170.06 351.98
  Q 170.46 351.42 169.82 351.15
  L 166.60 349.82
  Q 165.80 349.48 166.06 348.65
  L 166.35 347.73
  A 0.69 0.69 0.0 0 1 167.33 347.33
  L 172.90 350.31
  Q 173.11 350.43 173.21 350.21
  L 174.00 348.52
  Q 174.04 348.42 173.94 348.39
  Q 169.53 346.73 165.34 344.53
  A 0.30 0.30 0.0 0 0 164.96 344.62
  Q 164.78 344.87 164.97 345.05
  A 0.31 0.31 0.0 0 1 165.04 345.40
  L 161.16 353.45
  Q 160.99 353.80 161.34 353.98
  L 169.76 358.16
  Q 169.85 358.21 169.88 358.11
  L 170.43 356.47
  Q 170.47 356.35 170.36 356.29
  L 164.54 353.65
  Q 163.93 353.37 164.14 352.74
  L 164.57 351.41
  Z
  M 289.17 353.07
  C 290.67 350.90 294.39 347.69 290.92 345.31
  C 288.09 343.37 284.87 346.37 283.77 348.82
  Q 283.60 349.22 283.98 349.41
  L 285.29 350.08
  Q 285.89 350.39 285.93 349.71
  Q 286.07 347.49 288.13 346.92
  Q 288.85 346.73 289.37 347.09
  Q 290.06 347.57 289.94 348.41
  Q 289.86 349.00 289.12 349.87
  C 287.27 352.05 286.09 353.82 286.91 356.66
  Q 287.01 357.00 287.33 356.84
  L 295.31 352.82
  Q 295.82 352.57 295.54 352.08
  L 295.03 351.19
  Q 294.87 350.91 294.57 351.06
  L 289.67 353.64
  A 0.39 0.39 0.0 0 1 289.17 353.07
  Z
  M 274.64 357.94
  Q 274.71 358.67 274.28 359.27
  Q 272.51 361.71 269.62 360.79
  Q 269.10 360.62 268.90 361.13
  Q 268.77 361.44 268.80 361.98
  A 1.33 1.33 0.0 0 0 270.43 363.23
  Q 276.15 361.87 276.46 357.80
  C 276.80 353.27 272.12 350.30 268.25 353.11
  C 263.06 356.88 269.80 362.33 274.11 357.36
  A 0.28 0.28 0.0 0 1 274.60 357.52
  L 274.64 357.94
  Z
  M 186.01 361.69
  C 183.90 362.08 181.85 360.53 180.77 358.93
  Q 180.63 358.72 180.45 358.91
  L 179.24 360.23
  Q 179.09 360.40 179.25 360.56
  Q 181.56 362.92 184.74 363.45
  C 186.86 363.80 189.53 362.74 189.22 360.25
  C 188.95 358.16 185.85 357.07 184.09 356.36
  A 0.95 0.95 0.0 0 1 183.57 355.11
  Q 184.46 352.94 189.05 356.88
  Q 189.78 357.51 190.18 356.63
  L 190.39 356.18
  Q 190.71 355.48 190.07 355.05
  Q 182.53 349.88 181.28 355.63
  A 2.19 2.19 0.0 0 0 182.47 358.07
  L 186.25 359.89
  A 0.95 0.95 0.0 0 1 186.01 361.69
  Z
  M 252.71 358.61
  Q 252.53 358.59 252.35 358.50
  Q 251.91 358.30 251.94 358.79
  L 252.03 360.27
  Q 252.06 360.78 252.52 360.55
  L 253.02 360.31
  Q 253.58 360.03 253.79 360.62
  Q 254.84 363.73 254.81 367.00
  Q 254.81 367.22 255.03 367.17
  L 257.24 366.72
  Q 257.40 366.68 257.37 366.52
  L 255.30 356.65
  Q 255.25 356.41 255.01 356.51
  Q 254.30 356.81 253.51 356.84
  A 0.54 0.54 0.0 0 0 253.01 357.53
  L 253.18 358.06
  Q 253.38 358.70 252.71 358.61
  Z
  M 199.85 357.06
  L 198.27 366.74
  A 0.29 0.29 0.0 0 0 198.51 367.07
  L 203.88 367.95
  A 5.29 5.11 9.3 0 0 209.92 363.76
  L 209.95 363.60
  A 5.29 5.11 9.3 0 0 205.56 357.70
  L 200.19 356.82
  A 0.29 0.29 0.0 0 0 199.85 357.06
  Z
  M 222.01 363.25
  L 222.00 361.67
  Q 222.00 361.08 222.59 361.10
  L 229.06 361.31
  Q 229.18 361.31 229.19 361.19
  L 229.24 359.81
  Q 229.25 359.62 229.06 359.62
  L 220.14 359.46
  Q 219.72 359.45 219.72 359.87
  L 219.63 369.25
  Q 219.62 369.71 220.08 369.65
  Q 224.42 369.05 228.62 370.17
  Q 229.21 370.33 229.20 369.72
  L 229.19 368.46
  Q 229.19 367.99 228.72 367.98
  L 222.69 367.89
  Q 222.01 367.88 222.00 367.19
  L 222.00 365.95
  Q 222.00 365.27 222.67 365.20
  Q 224.57 364.98 226.44 365.40
  Q 226.99 365.52 227.00 364.96
  L 227.01 364.02
  Q 227.02 363.53 226.53 363.55
  L 222.51 363.73
  Q 222.01 363.75 222.01 363.25
  Z"
/>
<path fill="#ffffff" d="
  M 151.72 278.23
  Q 149.20 274.54 147.40 270.65
  A 0.55 0.55 0.0 0 1 147.84 269.87
  C 172.57 266.91 197.25 264.10 221.97 262.06
  C 252.30 259.56 282.65 257.32 312.95 254.48
  A 1.04 1.04 0.0 0 1 313.94 256.04
  Q 312.98 257.68 312.29 259.42
  Q 298.49 294.44 264.50 310.30
  Q 263.95 310.56 263.84 309.97
  C 263.31 307.08 262.74 304.13 261.69 301.53
  C 253.17 280.32 228.61 271.07 208.48 283.14
  Q 193.91 291.88 190.58 310.06
  A 0.26 0.26 0.0 0 1 190.22 310.25
  Q 166.42 299.71 151.72 278.23
  Z"
/>
<path fill="#ffffff" d="
  M 320.38 255.52
  Q 321.65 255.48 321.24 256.69
  Q 306.40 299.99 264.44 318.29
  Q 263.89 318.53 263.91 317.93
  L 264.02 315.24
  Q 264.04 314.64 264.59 314.39
  Q 303.27 296.87 317.34 256.75
  Q 317.74 255.60 318.96 255.56
  L 320.38 255.52
  Z"
/>
<path fill="#ffffff" d="
  M 142.44 276.38
  Q 140.59 273.99 139.39 271.19
  Q 139.16 270.65 139.74 270.61
  L 142.39 270.46
  Q 142.94 270.43 143.20 270.91
  Q 159.18 300.71 190.08 314.38
  Q 190.48 314.56 190.48 314.99
  L 190.51 317.99
  Q 190.52 318.35 190.18 318.21
  Q 159.98 305.64 142.82 277.72
  Q 142.66 277.45 142.63 277.19
  Q 142.62 277.05 142.62 276.91
  Q 142.62 276.61 142.44 276.38
  Z"
/>
<path fill="#91121a" d="
  M 261.66 314.62
  A 34.39 34.39 0.0 0 1 227.27 349.01
  A 34.39 34.39 0.0 0 1 192.88 314.62
  A 34.39 34.39 0.0 0 1 227.27 280.23
  A 34.39 34.39 0.0 0 1 261.66 314.62
  Z
  M 220.44 298.02
  L 221.59 303.97
  A 1.16 1.13 -80.9 0 0 222.14 304.75
  Q 225.83 306.93 227.05 310.99
  Q 227.33 311.90 227.57 310.98
  Q 228.46 307.64 230.69 305.95
  C 231.95 304.99 232.76 304.74 233.09 303.07
  Q 233.63 300.33 234.14 297.59
  Q 234.18 297.37 234.40 297.40
  L 234.65 297.44
  Q 234.66 297.44 234.66 297.45
  L 233.19 310.29
  A 1.18 1.17 35.7 0 0 233.30 310.94
  Q 233.67 311.68 233.74 312.47
  Q 234.52 321.08 228.47 326.96
  A 1.15 1.12 67.2 0 0 228.13 327.82
  L 228.35 332.40
  Q 228.38 332.98 228.96 332.99
  Q 238.86 333.14 248.54 335.21
  A 1.20 1.19 -63.6 0 0 249.72 334.81
  Q 256.76 326.42 257.35 316.47
  C 258.43 298.35 243.19 282.92 224.68 284.48
  C 199.49 286.61 188.67 316.50 204.99 334.95
  Q 205.37 335.38 205.93 335.27
  C 212.08 334.08 218.34 333.17 225.69 333.01
  Q 226.20 332.99 226.24 332.49
  L 226.58 328.03
  Q 226.62 327.51 226.29 327.12
  C 224.06 324.47 222.46 323.46 221.40 319.37
  Q 220.82 317.12 220.27 310.92
  A 0.21 0.21 0.0 0 1 220.48 310.69
  L 220.79 310.69
  A 0.05 0.05 0.0 0 1 220.84 310.73
  Q 221.07 313.16 221.99 315.43
  Q 222.19 315.91 222.64 316.15
  Q 225.88 317.91 227.10 321.38
  A 0.32 0.32 0.0 0 0 227.72 321.32
  C 228.27 316.98 234.04 316.86 233.01 311.93
  Q 232.61 310.00 232.16 311.92
  C 231.73 313.72 228.69 317.75 226.34 316.65
  C 220.70 314.00 220.08 303.48 220.42 298.02
  Q 220.42 297.92 220.44 298.02
  Z"
/>
<path fill="#f6b334" d="
  M 220.42 298.02
  C 220.08 303.48 220.70 314.00 226.34 316.65
  C 228.69 317.75 231.73 313.72 232.16 311.92
  Q 232.61 310.00 233.01 311.93
  C 234.04 316.86 228.27 316.98 227.72 321.32
  A 0.32 0.32 0.0 0 1 227.10 321.38
  Q 225.88 317.91 222.64 316.15
  Q 222.19 315.91 221.99 315.43
  Q 221.07 313.16 220.84 310.73
  A 0.05 0.05 0.0 0 0 220.79 310.69
  L 220.48 310.69
  A 0.21 0.21 0.0 0 0 220.27 310.92
  Q 220.82 317.12 221.40 319.37
  C 222.46 323.46 224.06 324.47 226.29 327.12
  Q 226.62 327.51 226.58 328.03
  L 226.24 332.49
  Q 226.20 332.99 225.69 333.01
  C 218.34 333.17 212.08 334.08 205.93 335.27
  Q 205.37 335.38 204.99 334.95
  C 188.67 316.50 199.49 286.61 224.68 284.48
  C 243.19 282.92 258.43 298.35 257.35 316.47
  Q 256.76 326.42 249.72 334.81
  A 1.20 1.19 -63.6 0 1 248.54 335.21
  Q 238.86 333.14 228.96 332.99
  Q 228.38 332.98 228.35 332.40
  L 228.13 327.82
  A 1.15 1.12 67.2 0 1 228.47 326.96
  Q 234.52 321.08 233.74 312.47
  Q 233.67 311.68 233.30 310.94
  A 1.18 1.17 35.7 0 1 233.19 310.29
  L 234.66 297.45
  Q 234.66 297.44 234.65 297.44
  L 234.40 297.40
  Q 234.18 297.37 234.14 297.59
  Q 233.63 300.33 233.09 303.07
  C 232.76 304.74 231.95 304.99 230.69 305.95
  Q 228.46 307.64 227.57 310.98
  Q 227.33 311.90 227.05 310.99
  Q 225.83 306.93 222.14 304.75
  A 1.16 1.13 -80.9 0 1 221.59 303.97
  L 220.44 298.02
  Q 220.42 297.92 220.42 298.02
  Z
  M 227.41 289.30
  C 226.20 295.65 221.90 300.80 227.14 306.81
  A 0.24 0.23 42.9 0 0 227.50 306.80
  C 230.07 303.44 230.66 300.19 228.99 296.13
  Q 227.65 292.90 227.72 289.34
  Q 227.72 289.20 227.58 289.18
  L 227.57 289.18
  Q 227.44 289.17 227.41 289.30
  Z
  M 217.97 307.65
  C 211.09 303.26 198.36 303.98 198.15 314.23
  C 197.93 325.09 210.37 326.54 217.45 321.97
  Q 217.88 321.69 218.39 321.64
  L 219.01 321.58
  Q 219.78 321.51 219.35 320.87
  L 217.28 317.83
  Q 216.85 317.20 216.51 317.88
  L 216.26 318.40
  Q 216.02 318.88 215.58 319.19
  Q 210.55 322.73 205.54 319.97
  C 201.88 317.94 201.66 312.82 204.78 310.17
  C 207.97 307.47 214.10 307.89 216.66 311.51
  Q 216.98 311.97 217.30 311.51
  L 219.54 308.22
  A 0.38 0.38 0.0 0 0 219.10 307.64
  L 218.81 307.75
  Q 218.36 307.90 217.97 307.65
  Z
  M 241.00 316.47
  L 244.44 316.48
  A 1.12 1.11 -16.7 0 1 245.37 316.98
  L 248.61 321.74
  Q 248.90 322.17 248.79 322.67
  Q 248.76 322.83 248.71 322.97
  Q 248.49 323.52 249.09 323.52
  L 254.01 323.52
  Q 254.84 323.51 254.34 322.85
  L 249.88 316.97
  Q 249.44 316.41 250.13 316.21
  C 255.79 314.56 254.92 306.43 249.99 306.07
  Q 247.08 305.86 236.36 306.07
  A 0.42 0.42 0.0 0 0 236.04 306.76
  L 236.28 307.07
  A 1.13 1.10 26.3 0 1 236.53 307.77
  L 236.53 321.76
  Q 236.53 322.31 236.19 322.73
  L 235.99 322.98
  A 0.31 0.31 0.0 0 0 236.23 323.49
  L 241.04 323.46
  Q 241.71 323.45 241.25 322.96
  L 240.85 322.53
  Q 240.47 322.13 240.47 321.58
  L 240.47 317.00
  Q 240.47 316.47 241.00 316.47
  Z"
/>
<path fill="#91121a" d="
  M 227.41 289.30
  Q 227.44 289.17 227.57 289.18
  L 227.58 289.18
  Q 227.72 289.20 227.72 289.34
  Q 227.65 292.90 228.99 296.13
  C 230.66 300.19 230.07 303.44 227.50 306.80
  A 0.24 0.23 42.9 0 1 227.14 306.81
  C 221.90 300.80 226.20 295.65 227.41 289.30
  Z"
/>
<path fill="#91121a" d="
  M 218.81 307.75
  L 219.10 307.64
  A 0.38 0.38 0.0 0 1 219.54 308.22
  L 217.30 311.51
  Q 216.98 311.97 216.66 311.51
  C 214.10 307.89 207.97 307.47 204.78 310.17
  C 201.66 312.82 201.88 317.94 205.54 319.97
  Q 210.55 322.73 215.58 319.19
  Q 216.02 318.88 216.26 318.40
  L 216.51 317.88
  Q 216.85 317.20 217.28 317.83
  L 219.35 320.87
  Q 219.78 321.51 219.01 321.58
  L 218.39 321.64
  Q 217.88 321.69 217.45 321.97
  C 210.37 326.54 197.93 325.09 198.15 314.23
  C 198.36 303.98 211.09 303.26 217.97 307.65
  Q 218.36 307.90 218.81 307.75
  Z"
/>
<path fill="#91121a" d="
  M 240.47 317.00
  L 240.47 321.58
  Q 240.47 322.13 240.85 322.53
  L 241.25 322.96
  Q 241.71 323.45 241.04 323.46
  L 236.23 323.49
  A 0.31 0.31 0.0 0 1 235.99 322.98
  L 236.19 322.73
  Q 236.53 322.31 236.53 321.76
  L 236.53 307.77
  A 1.13 1.10 26.3 0 0 236.28 307.07
  L 236.04 306.76
  A 0.42 0.42 0.0 0 1 236.36 306.07
  Q 247.08 305.86 249.99 306.07
  C 254.92 306.43 255.79 314.56 250.13 316.21
  Q 249.44 316.41 249.88 316.97
  L 254.34 322.85
  Q 254.84 323.51 254.01 323.52
  L 249.09 323.52
  Q 248.49 323.52 248.71 322.97
  Q 248.76 322.83 248.79 322.67
  Q 248.90 322.17 248.61 321.74
  L 245.37 316.98
  A 1.12 1.11 -16.7 0 0 244.44 316.48
  L 241.00 316.47
  Q 240.47 316.47 240.47 317.00
  Z
  M 240.45 309.54
  L 240.45 312.70
  A 0.59 0.59 0.0 0 0 241.04 313.29
  L 247.42 313.29
  A 2.33 2.04 0.0 0 0 249.75 311.25
  L 249.75 310.99
  A 2.33 2.04 -0.0 0 0 247.42 308.95
  L 241.04 308.95
  A 0.59 0.59 0.0 0 0 240.45 309.54
  Z"
/>
<path fill="#f6b334" d="
  M 240.45 309.54
  A 0.59 0.59 0.0 0 1 241.04 308.95
  L 247.42 308.95
  A 2.33 2.04 -0.0 0 1 249.75 310.99
  L 249.75 311.25
  A 2.33 2.04 -0.0 0 1 247.42 313.29
  L 241.04 313.29
  A 0.59 0.59 0.0 0 1 240.45 312.70
  L 240.45 309.54
  Z"
/>
<circle fill="#000000" cx="134.57" cy="329.49" r="2.03"/>
<ellipse fill="#000000" cx="0.00" cy="0.00" transform="translate(319.74,329.47) rotate(-6.7)" rx="2.11" ry="2.00"/>
<path fill="#000000" d="
  M 148.31 334.38
  A 0.24 0.24 0.0 0 1 148.64 334.32
  L 153.36 337.46
  A 4.95 4.93 33.7 0 1 154.74 344.31
  L 154.50 344.68
  A 4.95 4.93 33.7 0 1 147.64 346.03
  L 142.92 342.88
  A 0.24 0.24 0.0 0 1 142.86 342.55
  L 148.31 334.38
  Z
  M 149.05 337.52
  L 146.04 341.97
  A 0.73 0.73 0.0 0 0 146.23 342.99
  L 147.99 344.18
  A 3.37 3.26 34.1 0 0 152.61 343.37
  L 152.78 343.10
  A 3.37 3.26 34.1 0 0 151.82 338.51
  L 150.07 337.32
  A 0.73 0.73 0.0 0 0 149.05 337.52
  Z"
/>
<path fill="#000000" d="
  M 307.26 340.55
  C 306.40 341.91 305.10 343.26 303.35 343.35
  C 295.61 343.75 301.75 331.69 307.93 336.76
  C 313.39 341.24 308.85 345.64 304.01 347.01
  Q 303.65 347.11 303.66 346.74
  L 303.69 345.19
  Q 303.70 344.74 304.15 344.80
  C 306.56 345.12 308.69 343.07 307.87 340.62
  Q 307.64 339.94 307.26 340.55
  Z
  M 305.8275 337.9154
  A 2.33 1.64 -39.9 0 0 302.9880 338.1518
  A 2.33 1.64 -39.9 0 0 302.2525 340.9046
  A 2.33 1.64 -39.9 0 0 305.0920 340.6682
  A 2.33 1.64 -39.9 0 0 305.8275 337.9154
  Z"
/>
<path fill="#f6b334" d="
  M 149.05 337.52
  A 0.73 0.73 0.0 0 1 150.07 337.32
  L 151.82 338.51
  A 3.37 3.26 34.1 0 1 152.78 343.10
  L 152.61 343.37
  A 3.37 3.26 34.1 0 1 147.99 344.18
  L 146.23 342.99
  A 0.73 0.73 0.0 0 1 146.04 341.97
  L 149.05 337.52
  Z"
/>
<ellipse fill="#f6b334" cx="0.00" cy="0.00" transform="translate(304.04,339.41) rotate(-39.9)" rx="2.33" ry="1.64"/>
<path fill="#000000" d="
  M 164.54 353.65
  L 170.36 356.29
  Q 170.47 356.35 170.43 356.47
  L 169.88 358.11
  Q 169.85 358.21 169.76 358.16
  L 161.34 353.98
  Q 160.99 353.80 161.16 353.45
  L 165.04 345.40
  A 0.31 0.31 0.0 0 0 164.97 345.05
  Q 164.78 344.87 164.96 344.62
  A 0.30 0.30 0.0 0 1 165.34 344.53
  Q 169.53 346.73 173.94 348.39
  Q 174.04 348.42 174.00 348.52
  L 173.21 350.21
  Q 173.11 350.43 172.90 350.31
  L 167.33 347.33
  A 0.69 0.69 0.0 0 0 166.35 347.73
  L 166.06 348.65
  Q 165.80 349.48 166.60 349.82
  L 169.82 351.15
  Q 170.46 351.42 170.06 351.98
  L 169.81 352.32
  Q 169.38 352.92 168.72 352.60
  L 165.45 351.03
  A 0.64 0.64 0.0 0 0 164.57 351.41
  L 164.14 352.74
  Q 163.93 353.37 164.54 353.65
  Z"
/>
<path fill="#000000" d="
  M 289.67 353.64
  L 294.57 351.06
  Q 294.87 350.91 295.03 351.19
  L 295.54 352.08
  Q 295.82 352.57 295.31 352.82
  L 287.33 356.84
  Q 287.01 357.00 286.91 356.66
  C 286.09 353.82 287.27 352.05 289.12 349.87
  Q 289.86 349.00 289.94 348.41
  Q 290.06 347.57 289.37 347.09
  Q 288.85 346.73 288.13 346.92
  Q 286.07 347.49 285.93 349.71
  Q 285.89 350.39 285.29 350.08
  L 283.98 349.41
  Q 283.60 349.22 283.77 348.82
  C 284.87 346.37 288.09 343.37 290.92 345.31
  C 294.39 347.69 290.67 350.90 289.17 353.07
  A 0.39 0.39 0.0 0 0 289.67 353.64
  Z"
/>
<path fill="#000000" d="
  M 274.11 357.36
  C 269.80 362.33 263.06 356.88 268.25 353.11
  C 272.12 350.30 276.80 353.27 276.46 357.80
  Q 276.15 361.87 270.43 363.23
  A 1.33 1.33 0.0 0 1 268.80 361.98
  Q 268.77 361.44 268.90 361.13
  Q 269.10 360.62 269.62 360.79
  Q 272.51 361.71 274.28 359.27
  Q 274.71 358.67 274.64 357.94
  L 274.60 357.52
  A 0.28 0.28 0.0 0 0 274.11 357.36
  Z
  M 273.0525 354.9882
  A 2.34 1.67 -19.0 0 0 270.2963 354.1710
  A 2.34 1.67 -19.0 0 0 268.6275 356.5118
  A 2.34 1.67 -19.0 0 0 271.3837 357.3290
  A 2.34 1.67 -19.0 0 0 273.0525 354.9882
  Z"
/>
<path fill="#000000" d="
  M 186.01 361.69
  A 0.95 0.95 0.0 0 0 186.25 359.89
  L 182.47 358.07
  A 2.19 2.19 0.0 0 1 181.28 355.63
  Q 182.53 349.88 190.07 355.05
  Q 190.71 355.48 190.39 356.18
  L 190.18 356.63
  Q 189.78 357.51 189.05 356.88
  Q 184.46 352.94 183.57 355.11
  A 0.95 0.95 0.0 0 0 184.09 356.36
  C 185.85 357.07 188.95 358.16 189.22 360.25
  C 189.53 362.74 186.86 363.80 184.74 363.45
  Q 181.56 362.92 179.25 360.56
  Q 179.09 360.40 179.24 360.23
  L 180.45 358.91
  Q 180.63 358.72 180.77 358.93
  C 181.85 360.53 183.90 362.08 186.01 361.69
  Z"
/>
<ellipse fill="#f6b334" cx="0.00" cy="0.00" transform="translate(270.84,355.75) rotate(-19.0)" rx="2.34" ry="1.67"/>
<path fill="#000000" d="
  M 253.18 358.06
  L 253.01 357.53
  A 0.54 0.54 0.0 0 1 253.51 356.84
  Q 254.30 356.81 255.01 356.51
  Q 255.25 356.41 255.30 356.65
  L 257.37 366.52
  Q 257.40 366.68 257.24 366.72
  L 255.03 367.17
  Q 254.81 367.22 254.81 367.00
  Q 254.84 363.73 253.79 360.62
  Q 253.58 360.03 253.02 360.31
  L 252.52 360.55
  Q 252.06 360.78 252.03 360.27
  L 251.94 358.79
  Q 251.91 358.30 252.35 358.50
  Q 252.53 358.59 252.71 358.61
  Q 253.38 358.70 253.18 358.06
  Z"
/>
<path fill="#000000" d="
  M 199.85 357.06
  A 0.29 0.29 0.0 0 1 200.19 356.82
  L 205.56 357.70
  A 5.29 5.11 9.3 0 1 209.95 363.60
  L 209.92 363.76
  A 5.29 5.11 9.3 0 1 203.88 367.95
  L 198.51 367.07
  A 0.29 0.29 0.0 0 1 198.27 366.74
  L 199.85 357.06
  Z
  M 201.67 359.83
  L 201.02 364.72
  A 0.95 0.95 0.0 0 0 201.84 365.79
  L 203.95 366.07
  A 3.28 3.03 7.5 0 0 207.60 363.49
  L 207.70 362.72
  A 3.28 3.03 7.5 0 0 204.85 359.29
  L 202.74 359.01
  A 0.95 0.95 0.0 0 0 201.67 359.83
  Z"
/>
<path fill="#f6b334" d="
  M 201.67 359.83
  A 0.95 0.95 0.0 0 1 202.74 359.01
  L 204.85 359.29
  A 3.28 3.03 7.5 0 1 207.70 362.72
  L 207.60 363.49
  A 3.28 3.03 7.5 0 1 203.95 366.07
  L 201.84 365.79
  A 0.95 0.95 0.0 0 1 201.02 364.72
  L 201.67 359.83
  Z"
/>
<path fill="#000000" d="
  M 222.51 363.73
  L 226.53 363.55
  Q 227.02 363.53 227.01 364.02
  L 227.00 364.96
  Q 226.99 365.52 226.44 365.40
  Q 224.57 364.98 222.67 365.20
  Q 222.00 365.27 222.00 365.95
  L 222.00 367.19
  Q 222.01 367.88 222.69 367.89
  L 228.72 367.98
  Q 229.19 367.99 229.19 368.46
  L 229.20 369.72
  Q 229.21 370.33 228.62 370.17
  Q 224.42 369.05 220.08 369.65
  Q 219.62 369.71 219.63 369.25
  L 219.72 359.87
  Q 219.72 359.45 220.14 359.46
  L 229.06 359.62
  Q 229.25 359.62 229.24 359.81
  L 229.19 361.19
  Q 229.18 361.31 229.06 361.31
  L 222.59 361.10
  Q 222.00 361.08 222.00 361.67
  L 222.01 363.25
  Q 222.01 363.75 222.51 363.73
  Z"
/>
</svg>
