<svg width="60" height="60" viewBox="0 0 60 60" fill="none" xmlns="http://www.w3.org/2000/svg">
<ellipse cx="25.4327" cy="34.2162" rx="6.88361" ry="6.98634" fill="#FF5210"/>
<path d="M31.7398 30.1291L30.1652 31.5962L25.8262 36.011C25.559 36.0366 25.291 35.9637 25.0713 35.8055L24.8562 35.657C24.7934 35.6114 24.7412 35.5526 24.703 35.4845C24.6649 35.4164 24.6417 35.3407 24.6352 35.2627C24.6286 35.1847 24.6388 35.1061 24.6651 35.0325C24.6914 34.9588 24.7331 34.8918 24.7873 34.8361L30.1652 29.413L30.9137 28.6445C36.7304 22.5955 42.5671 16.564 48.4239 10.5499C48.6362 10.3286 48.7652 10.0667 48.8111 9.76392L49.3446 6.06116C49.3835 5.79461 49.5072 5.54658 49.6974 5.35379L54.7827 0.201371C55.1039 -0.124658 55.2789 -0.054795 55.3076 0.410961L55.4366 2.4108C55.4596 2.73101 55.6259 2.87364 55.9357 2.83871L56.5982 2.77758C56.7291 2.76311 56.861 2.79743 56.9699 2.87433C57.0788 2.95123 57.1576 3.06562 57.1919 3.19676C57.2436 3.40053 57.2407 3.6043 57.1833 3.80807C57.1623 3.88646 57.1593 3.96869 57.1744 4.04847C57.1895 4.12825 57.2224 4.20346 57.2706 4.26836C57.3187 4.33325 57.3809 4.3861 57.4523 4.42287C57.5236 4.45964 57.6024 4.47935 57.6824 4.4805L59.6528 4.5067C60.0486 4.51252 60.106 4.65807 59.8249 4.94335L54.3783 10.48C54.1718 10.6838 53.9251 10.7915 53.6383 10.8031C51.8141 10.8468 50.4374 10.9429 49.0779 12.3576C43.3415 18.3251 37.5622 24.2489 31.7398 30.1291Z" fill="#3E3E3E"/>
<path d="M3.9644 44.2063C8.45596 54.7993 21.0874 60.467 32.0495 57.0524C38.4599 55.0526 43.7087 50.267 46.4707 43.988C50.0158 35.9246 49.1381 27.9107 43.8377 19.9463C43.738 19.7969 43.696 19.6154 43.7198 19.4366C43.7436 19.2577 43.8316 19.0941 43.9668 18.9769L44.2593 18.7236C44.3416 18.6523 44.4379 18.5995 44.5419 18.5686C44.6458 18.5377 44.7553 18.5293 44.8631 18.5442C44.9709 18.559 45.0747 18.5966 45.1679 18.6546C45.261 18.7126 45.3413 18.7896 45.4037 18.8808C53.4576 30.8275 51.7539 45.7171 40.7315 54.5898C28.341 64.5628 9.78966 60.205 2.75977 45.9704C-5.11337 30.0066 4.66997 11.5539 21.8274 8.99517C28.8659 7.94722 35.5286 9.93251 41.8157 14.951C42.2688 15.3178 42.309 15.7224 41.9361 16.1649L41.6694 16.488C41.5476 16.6326 41.3747 16.7228 41.1879 16.7391C41.0012 16.7554 40.8156 16.6966 40.6713 16.5753C21.2681 0.183656 -5.95661 20.7759 3.9644 44.2063Z" fill="#3E3E3E"/>
<path d="M9.6778 25.2647C14.8061 16.0689 28.5819 12.6107 36.6099 20.3481C36.8279 20.5577 36.891 20.808 36.7992 21.0991C36.6443 21.594 36.3747 21.8618 35.9904 21.9025C35.7552 21.9258 35.4741 21.8094 35.1472 21.5532C24.6152 13.3093 9.09269 20.7323 9.17013 34.3557C9.26478 50.6513 30.3975 56.7731 38.7525 43.1759C42.3319 37.354 42.2774 31.3836 38.589 25.2647C38.539 25.1843 38.506 25.0942 38.492 25.0002C38.478 24.9062 38.4832 24.8103 38.5075 24.7184C38.5317 24.6266 38.5744 24.5408 38.6328 24.4665C38.6913 24.3922 38.7642 24.3309 38.8471 24.2866L39.0536 24.1644C39.5814 23.8733 40.0087 23.9868 40.3357 24.5049C49.0349 38.4514 36.9455 55.4457 21.3369 52.1359C9.45408 49.6208 3.73208 35.9276 9.6778 25.2647Z" fill="#3E3E3E"/>
<path d="M30.5444 27.6303C30.0869 27.8974 29.4988 27.7375 29.0208 27.509V27.509C25.4642 25.809 22.3322 26.3766 19.6246 29.2119C13.3433 35.7704 21.9134 45.7521 29.408 40.9402C32.1244 39.1981 33.7457 35.3719 32.6037 32.1717C32.4012 31.6042 32.2984 30.916 32.7465 30.5131V30.5131C32.8876 30.3891 33.0581 30.3045 33.2412 30.2676C33.4243 30.2307 33.6137 30.2428 33.7908 30.3027C33.9679 30.3626 34.1266 30.4683 34.2513 30.6093C34.3759 30.7503 34.4623 30.9218 34.5018 31.107C35.5745 36.1022 34.3756 39.8399 30.9051 42.32C22.7739 48.1362 12.741 39.8399 16.243 30.5393C18.4716 24.6184 25.3122 23.2561 30.604 26.0157C30.738 26.0859 30.852 26.19 30.9348 26.3179C31.0177 26.4458 31.0667 26.5932 31.077 26.746C31.0874 26.8987 31.0588 27.0515 30.9941 27.1898C30.9293 27.328 30.8305 27.447 30.7072 27.5352L30.5444 27.6303Z" fill="#3E3E3E"/>
</svg>
