<svg width="60" height="60" viewBox="0 0 60 60" fill="none" xmlns="http://www.w3.org/2000/svg">
<path d="M30.6976 19.5028L29.1087 27.5449C29.0925 27.6183 29.1 27.6943 29.1301 27.7641C29.1603 27.8338 29.2119 27.8943 29.2789 27.9384C29.3459 27.9825 29.4255 28.0085 29.5083 28.0131C29.5911 28.0178 29.6737 28.0011 29.7463 27.9648L37.3871 24.35C37.6241 24.2375 37.8891 24.1795 38.159 24.1811C38.4289 24.1827 38.6955 24.2438 38.9355 24.3591L46.718 28.0835C46.7698 28.1059 46.8273 28.1151 46.8845 28.11C46.9416 28.1049 46.9961 28.0858 47.042 28.0548C47.0879 28.0237 47.1235 27.9818 47.1449 27.9338C47.1663 27.8857 47.1726 27.8333 47.1633 27.7822L45.5339 19.6214C45.5092 19.4832 45.5221 19.3419 45.5715 19.2098C45.6209 19.0778 45.7053 18.9589 45.8173 18.8638L52.2234 13.2772C52.2909 13.2192 52.3389 13.1452 52.3619 13.0637C52.3849 12.9822 52.382 12.8966 52.3535 12.8165C52.3249 12.7365 52.272 12.6653 52.2006 12.6111C52.1293 12.557 52.0425 12.5221 51.9502 12.5104L43.9653 11.4972C43.5576 11.4464 43.1704 11.3056 42.8384 11.0874C42.5063 10.8691 42.2398 10.5802 42.0627 10.2466L38.5307 3.68325C38.4917 3.61419 38.4324 3.55619 38.3591 3.51569C38.2859 3.47518 38.2017 3.45374 38.1158 3.45374C38.0299 3.45374 37.9456 3.47518 37.8724 3.51569C37.7992 3.55619 37.7398 3.61419 37.7008 3.68325L34.3207 10.0914C34.1218 10.4696 33.8225 10.797 33.4496 11.0441C33.0768 11.2911 32.6422 11.45 32.1853 11.5063L24.7266 12.4283C23.7821 12.5439 23.6505 12.8999 24.3319 13.4963L30.4547 18.8181C30.5543 18.9048 30.6285 19.0126 30.6709 19.132C30.7132 19.2514 30.7224 19.3788 30.6976 19.5028Z" stroke="#9F6B49" stroke-width="2"/>
<path d="M44.0563 47.737C43.6043 47.6153 43.2939 47.3505 43.1253 46.9428C43.1044 46.8917 43.0689 46.8465 43.0225 46.8117C42.9762 46.7769 42.9204 46.7537 42.861 46.7445C42.8015 46.7352 42.7404 46.7403 42.6838 46.759C42.6271 46.7778 42.577 46.8097 42.5383 46.8515C39.482 50.1377 33.4199 47.2988 29.6552 46.3312C28.9872 46.1547 28.7039 45.7531 28.8051 45.1262L28.8557 44.8341C28.87 44.7369 28.9077 44.6437 28.966 44.5609C29.0243 44.4782 29.1019 44.4078 29.1934 44.3548C29.2849 44.3019 29.3881 44.2675 29.4958 44.2541C29.6035 44.2407 29.7131 44.2486 29.8171 44.2773L38.3789 46.6416C38.8762 46.7789 39.4125 46.7437 39.8825 46.5427C40.3525 46.3417 40.7222 45.9895 40.9191 45.5553L41.0911 45.1719C41.1664 45.0052 41.2029 44.8264 41.1984 44.6464C41.194 44.4665 41.1486 44.2893 41.0651 44.1259C40.9816 43.9624 40.8618 43.8162 40.7131 43.6962C40.5643 43.5762 40.3899 43.485 40.2005 43.4284L23.7348 38.426C23.3818 38.3198 23.0082 38.282 22.6385 38.3151C22.2687 38.3481 21.9112 38.4512 21.5893 38.6177L12.2888 43.4375C11.884 43.6444 11.7895 43.9335 12.0054 44.3047L16.0434 51.3153C16.2728 51.7109 16.6135 51.8204 17.0655 51.6439C17.946 51.297 19.12 51.1419 20.1826 51.434C25.4114 52.8276 30.6267 54.2151 35.8286 55.5965C36.1635 55.6855 36.5156 55.7104 36.8624 55.6695C37.2092 55.6286 37.543 55.5229 37.8425 55.3592L57.5467 44.3595C57.7088 44.2698 57.8462 44.148 57.9487 44.0033C58.0511 43.8585 58.1159 43.6945 58.1383 43.5235C58.1606 43.3524 58.14 43.1787 58.0779 43.0152C58.0157 42.8518 57.9137 42.7028 57.7794 42.5794L57.4455 42.2782C57.0725 41.9397 56.583 41.7261 56.0582 41.6729C55.5335 41.6198 55.0053 41.7303 54.5612 41.9861L44.6939 47.6639C44.5986 47.7156 44.4926 47.7487 44.3828 47.7613C44.273 47.7739 44.1618 47.7656 44.0563 47.737Z" stroke="#9F9E9F" stroke-width="2"/>
<path d="M8.76479 42.8014C8.73736 42.7534 8.69973 42.7108 8.65405 42.676C8.60837 42.6412 8.55553 42.6148 8.49855 42.5984C8.44157 42.582 8.38157 42.5759 8.32197 42.5804C8.26237 42.5849 8.20434 42.6 8.15119 42.6247L2.77338 45.1285C2.66606 45.1784 2.58515 45.2648 2.54842 45.3686C2.5117 45.4724 2.52218 45.585 2.57755 45.6818L9.33577 57.4925C9.3632 57.5404 9.40083 57.583 9.44651 57.6178C9.49219 57.6526 9.54503 57.679 9.60201 57.6954C9.65899 57.7118 9.71899 57.7179 9.77859 57.7134C9.83819 57.7089 9.89622 57.6938 9.94937 57.6691L15.3272 55.1653C15.4345 55.1154 15.5154 55.029 15.5521 54.9252C15.5889 54.8215 15.5784 54.7088 15.523 54.612L8.76479 42.8014Z" stroke="#9F9E9F" stroke-width="2"/>
<path d="M12.2786 53.9716C12.2786 53.6714 12.1464 53.3835 11.9111 53.1712C11.6757 52.959 11.3565 52.8397 11.0237 52.8397C10.6909 52.8397 10.3717 52.959 10.1364 53.1712C9.90101 53.3835 9.7688 53.6714 9.7688 53.9716C9.7688 54.2718 9.90101 54.5598 10.1364 54.772C10.3717 54.9843 10.6909 55.1036 11.0237 55.1036C11.3565 55.1036 11.6757 54.9843 11.9111 54.772C12.1464 54.5598 12.2786 54.2718 12.2786 53.9716Z" stroke="#9F9E9F" stroke-width="2"/>
<path d="M29.2228 5.12674L24.1474 0.56476C23.807 0.258717 23.2559 0.259584 22.9166 0.566697L22.8594 0.618425C22.5201 0.925538 22.5211 1.4226 22.8616 1.72864L27.937 6.29063C28.2774 6.59667 28.8285 6.5958 29.1678 6.28869L29.225 6.23696C29.5643 5.92985 29.5633 5.43279 29.2228 5.12674Z" fill="#3E3D3E"/>
<path d="M53.8094 0.5928L53.7663 0.554139C53.4259 0.248097 52.8748 0.248964 52.5355 0.556077L47.4778 5.13401C47.1385 5.44113 47.1395 5.93819 47.48 6.24423L47.523 6.28289C47.8634 6.58893 48.4145 6.58807 48.7538 6.28095L53.8115 1.70302C54.1508 1.3959 54.1498 0.898843 53.8094 0.5928Z" fill="#3E3D3E"/>
<path d="M32.6002 9.30631L36.5269 2.18616C36.6742 1.91831 36.9017 1.69325 37.1837 1.53629C37.4657 1.37932 37.7912 1.29667 38.1234 1.29762C38.4556 1.29856 38.7815 1.38308 39.0644 1.54165C39.3474 1.70023 39.5761 1.92659 39.7249 2.19529L43.6111 9.27893C43.6953 9.43358 43.8193 9.5675 43.9727 9.66924C44.126 9.77097 44.304 9.83751 44.4915 9.86315L53.1747 11.0133C53.5056 11.0567 53.8164 11.1827 54.072 11.3772C54.3276 11.5716 54.5178 11.8267 54.621 12.1136C54.7242 12.4004 54.7363 12.7076 54.656 13.0004C54.5757 13.2931 54.4061 13.5598 54.1665 13.7701L47.9122 19.2745C47.7717 19.3983 47.667 19.5512 47.607 19.7198C47.547 19.8885 47.5337 20.0678 47.5681 20.2421L49.0356 28.0743C49.0906 28.3724 49.0523 28.6783 48.9252 28.9579C48.798 29.2374 48.587 29.4794 48.3158 29.6568C48.0445 29.8341 47.7239 29.9397 47.3898 29.9617C47.0557 29.9837 46.7214 29.9212 46.4245 29.7813L38.6926 26.0752C38.5244 25.9963 38.3376 25.9559 38.1487 25.9574C37.9598 25.959 37.7747 26.0026 37.6098 26.0843C34.9987 27.338 32.2797 28.5429 29.4528 29.6992C28.4205 30.1252 27.7054 29.6931 27.3073 28.4029C27.2408 28.2051 27.2269 27.9956 27.2668 27.7913L28.7039 20.0687C28.723 19.9555 28.7128 19.8403 28.6741 19.7325C28.6355 19.6246 28.5694 19.5271 28.4813 19.448L21.9436 13.6697C21.7152 13.4666 21.5538 13.2101 21.4776 12.9291C21.4015 12.648 21.4135 12.3537 21.5125 12.0793C21.6114 11.8049 21.7933 11.5614 22.0376 11.3762C22.2819 11.1911 22.5788 11.0717 22.8949 11.0316L31.7501 9.86315C32.1414 9.81446 32.4248 9.62885 32.6002 9.30631ZM30.6976 19.5027L29.1087 27.5449C29.0925 27.6183 29.1 27.6943 29.1301 27.764C29.1603 27.8337 29.2119 27.8942 29.2789 27.9384C29.3459 27.9825 29.4255 28.0084 29.5083 28.0131C29.5911 28.0178 29.6737 28.001 29.7463 27.9648L37.3871 24.3499C37.6241 24.2374 37.8891 24.1795 38.159 24.1811C38.4289 24.1827 38.6955 24.2438 38.9355 24.3591L46.718 28.0834C46.7698 28.1058 46.8273 28.115 46.8845 28.11C46.9416 28.1049 46.9961 28.0858 47.042 28.0547C47.0879 28.0236 47.1235 27.9818 47.1449 27.9338C47.1663 27.8857 47.1727 27.8333 47.1633 27.7822L45.5339 19.6214C45.5092 19.4832 45.5221 19.3419 45.5715 19.2098C45.6209 19.0777 45.7053 18.9589 45.8173 18.8638L52.2234 13.2772C52.2909 13.2192 52.3389 13.1452 52.3619 13.0637C52.3849 12.9822 52.382 12.8965 52.3535 12.8165C52.3249 12.7364 52.272 12.6652 52.2006 12.6111C52.1293 12.557 52.0425 12.5221 51.9502 12.5104L43.9653 11.4971C43.5576 11.4464 43.1704 11.3056 42.8384 11.0874C42.5063 10.8691 42.2398 10.5802 42.0627 10.2465L38.5307 3.68322C38.4917 3.61415 38.4324 3.55616 38.3591 3.51565C38.2859 3.47514 38.2017 3.4537 38.1158 3.4537C38.0299 3.4537 37.9456 3.47514 37.8724 3.51565C37.7992 3.55616 37.7398 3.61415 37.7008 3.68322L34.3207 10.0914C34.1219 10.4696 33.8225 10.797 33.4497 11.044C33.0768 11.2911 32.6423 11.4499 32.1853 11.5063L24.7266 12.4282C23.7821 12.5439 23.6505 12.8999 24.3319 13.4963L30.4547 18.8181C30.5543 18.9047 30.6285 19.0125 30.6709 19.132C30.7133 19.2514 30.7224 19.3787 30.6976 19.5027Z" fill="#3E3D3E"/>
<path d="M30.4547 18.8181L24.3319 13.4963C23.6505 12.8999 23.7821 12.5439 24.7266 12.4283L32.1853 11.5063C32.6422 11.45 33.0768 11.2911 33.4496 11.0441C33.8225 10.797 34.1218 10.4696 34.3207 10.0914L37.7008 3.68325C37.7398 3.61419 37.7992 3.55619 37.8724 3.51569C37.9456 3.47518 38.0299 3.45374 38.1158 3.45374C38.2017 3.45374 38.2859 3.47518 38.3591 3.51569C38.4324 3.55619 38.4917 3.61419 38.5307 3.68325L42.0627 10.2466C42.2398 10.5802 42.5063 10.8691 42.8384 11.0874C43.1704 11.3056 43.5576 11.4464 43.9653 11.4972L51.9502 12.5104C52.0425 12.5221 52.1293 12.557 52.2006 12.6111C52.272 12.6653 52.3249 12.7365 52.3535 12.8165C52.382 12.8966 52.3849 12.9822 52.3619 13.0637C52.3389 13.1452 52.2909 13.2192 52.2234 13.2772L45.8173 18.8638C45.7053 18.9589 45.6209 19.0778 45.5715 19.2098C45.5221 19.3419 45.5092 19.4832 45.5339 19.6214L47.1633 27.7822C47.1726 27.8333 47.1663 27.8857 47.1449 27.9338C47.1235 27.9818 47.0879 28.0237 47.042 28.0548C46.9961 28.0858 46.9416 28.1049 46.8845 28.11C46.8273 28.1151 46.7698 28.1059 46.718 28.0835L38.9355 24.3591C38.6955 24.2438 38.4289 24.1827 38.159 24.1811C37.8891 24.1795 37.6241 24.2375 37.3871 24.35L29.7463 27.9648C29.6737 28.0011 29.5911 28.0178 29.5083 28.0131C29.4255 28.0085 29.3459 27.9825 29.2789 27.9384C29.2119 27.8943 29.1603 27.8338 29.1301 27.7641C29.1 27.6943 29.0925 27.6183 29.1087 27.5449L30.6976 19.5028C30.7224 19.3788 30.7132 19.2514 30.6709 19.132C30.6285 19.0126 30.5543 18.9048 30.4547 18.8181Z" fill="#FF5210"/>
<path d="M23.7714 20.9741L17.9542 24.6209C17.5686 24.8625 17.4733 25.3404 17.7413 25.6881L17.799 25.7631C18.067 26.1108 18.5967 26.1968 18.9823 25.9551L24.7994 22.3083C25.185 22.0666 25.2803 21.5888 25.0123 21.2411L24.9546 21.1661C24.6866 20.8184 24.1569 20.7324 23.7714 20.9741Z" fill="#3E3D3E"/>
<path d="M58.9499 24.6281L53.1232 20.9617C52.7381 20.7194 52.2082 20.8045 51.9396 21.1518L51.9048 21.1968C51.6362 21.5441 51.7306 22.022 52.1157 22.2643L57.9424 25.9307C58.3274 26.173 58.8574 26.0879 59.126 25.7406L59.1607 25.6956C59.4293 25.3483 59.335 24.8703 58.9499 24.6281Z" fill="#3E3D3E"/>
<path d="M38.597 29.1876L38.3743 29.1883C37.944 29.1897 37.5963 29.5055 37.5978 29.8937L37.6216 36.0462C37.6231 36.4344 37.9732 36.748 38.4036 36.7466L38.6262 36.7459C39.0566 36.7446 39.4043 36.4288 39.4028 36.0406L39.379 29.8881C39.3775 29.4999 39.0274 29.1863 38.597 29.1876Z" fill="#3E3D3E"/>
<path d="M43.6009 46.1668L54.3385 39.996C55.0059 39.612 55.8073 39.464 56.5896 39.5802C57.3718 39.6964 58.0801 40.0687 58.5789 40.6259L59.2165 41.347C59.5312 41.6987 59.7593 42.1068 59.8857 42.5441C60.0121 42.9814 60.034 43.438 59.9497 43.8835C59.8655 44.329 59.6771 44.7532 59.3972 45.128C59.1172 45.5028 58.7521 45.8196 58.3259 46.0573L38.6521 57.0023C38.2034 57.2521 37.7003 57.4137 37.1755 57.4766C36.6507 57.5396 36.1159 57.5023 35.6059 57.3674L18.9378 52.9949C18.7479 52.9441 18.546 52.9422 18.3549 52.9893C18.1639 53.0365 17.9912 53.131 17.8565 53.262C17.7218 53.393 17.6303 53.5554 17.5925 53.7308C17.5547 53.9062 17.572 54.0876 17.6424 54.2546L18.0776 55.3044C18.2193 55.6573 18.1046 55.919 17.7335 56.0894L9.28305 59.9325C9.11683 60.008 8.92386 60.0207 8.74584 59.9677C8.56783 59.9148 8.41908 59.8005 8.33174 59.6495L0.114073 45.2266C0.0508535 45.1169 0.0129977 44.9968 0.00280305 44.8735C-0.00739158 44.7502 0.0102877 44.6263 0.0547665 44.5094C0.0992453 44.3924 0.169596 44.2849 0.261555 44.1932C0.353513 44.1015 0.465161 44.0276 0.589725 43.976L8.58475 40.5894C8.71384 40.5354 8.85373 40.5056 8.99595 40.5018C9.13817 40.498 9.27978 40.5202 9.41221 40.5671C9.54464 40.614 9.66515 40.6847 9.76645 40.7748C9.86775 40.8649 9.94774 40.9727 10.0016 41.0914L10.285 41.7213C10.4469 42.0743 10.71 42.1564 11.0743 41.9678L20.7493 37.0019C21.2772 36.7292 21.8644 36.5613 22.4716 36.5094C23.0789 36.4574 23.6923 36.5227 24.2712 36.7007C29.6282 38.356 34.9245 39.9504 40.16 41.484C42.373 42.1351 43.3243 43.5865 43.014 45.8382C42.9465 46.3251 43.1421 46.4346 43.6009 46.1668ZM44.0563 47.7369C43.6043 47.6152 43.2939 47.3505 43.1253 46.9428C43.1044 46.8917 43.0689 46.8465 43.0225 46.8117C42.9762 46.7769 42.9204 46.7537 42.861 46.7445C42.8015 46.7352 42.7404 46.7402 42.6838 46.759C42.6271 46.7778 42.577 46.8097 42.5383 46.8515C39.482 50.1377 33.4199 47.2988 29.6552 46.3312C28.9872 46.1547 28.7039 45.753 28.8051 45.1262L28.8557 44.8341C28.87 44.7369 28.9077 44.6437 28.966 44.5609C29.0243 44.4781 29.1019 44.4078 29.1934 44.3548C29.2849 44.3018 29.3881 44.2674 29.4958 44.254C29.6035 44.2407 29.7131 44.2486 29.8171 44.2773L38.3789 46.6415C38.8762 46.7789 39.4125 46.7436 39.8825 46.5427C40.3525 46.3417 40.7222 45.9895 40.9191 45.5552L41.0911 45.1718C41.1664 45.0052 41.2029 44.8263 41.1984 44.6464C41.194 44.4665 41.1486 44.2893 41.0651 44.1258C40.9816 43.9624 40.8618 43.8161 40.7131 43.6962C40.5643 43.5762 40.3899 43.485 40.2005 43.4283L23.7348 38.426C23.3818 38.3198 23.0082 38.282 22.6385 38.315C22.2687 38.3481 21.9112 38.4512 21.5893 38.6177L12.2888 43.4374C11.884 43.6444 11.7895 43.9334 12.0054 44.3046L16.0434 51.3153C16.2728 51.7108 16.6135 51.8204 17.0655 51.6439C17.946 51.297 19.12 51.1418 20.1826 51.4339C25.4114 52.8275 30.6267 54.2151 35.8286 55.5965C36.1635 55.6855 36.5156 55.7103 36.8624 55.6695C37.2092 55.6286 37.543 55.5229 37.8425 55.3591L57.5467 44.3594C57.7088 44.2697 57.8462 44.148 57.9487 44.0032C58.0511 43.8585 58.1159 43.6945 58.1383 43.5234C58.1606 43.3524 58.14 43.1786 58.0779 43.0152C58.0157 42.8518 57.9137 42.7028 57.7794 42.5794L57.4455 42.2781C57.0725 41.9396 56.583 41.726 56.0582 41.6729C55.5335 41.6198 55.0053 41.7303 54.5612 41.986L44.6939 47.6639C44.5986 47.7155 44.4926 47.7487 44.3828 47.7613C44.273 47.7738 44.1618 47.7655 44.0563 47.7369ZM8.76479 42.8013C8.73736 42.7534 8.69973 42.7108 8.65405 42.6759C8.60837 42.6411 8.55553 42.6147 8.49855 42.5983C8.44158 42.5819 8.38157 42.5758 8.32197 42.5803C8.26237 42.5848 8.20434 42.5999 8.1512 42.6247L2.77338 45.1284C2.66606 45.1784 2.58515 45.2647 2.54842 45.3685C2.5117 45.4723 2.52218 45.585 2.57755 45.6818L9.33577 57.4924C9.3632 57.5403 9.40083 57.5829 9.44651 57.6177C9.49219 57.6525 9.54503 57.6789 9.60201 57.6953C9.65899 57.7117 9.71899 57.7178 9.77859 57.7133C9.83819 57.7088 9.89622 57.6937 9.94937 57.669L15.3272 55.1653C15.4345 55.1153 15.5154 55.0289 15.5521 54.9252C15.5889 54.8214 15.5784 54.7087 15.523 54.6119L8.76479 42.8013Z" fill="#3E3D3E"/>
<path d="M44.0563 47.737C44.1618 47.7656 44.273 47.7739 44.3828 47.7613C44.4926 47.7487 44.5986 47.7156 44.6939 47.6639L54.5612 41.9861C55.0053 41.7303 55.5335 41.6198 56.0582 41.6729C56.583 41.7261 57.0725 41.9397 57.4455 42.2782L57.7794 42.5794C57.9137 42.7028 58.0157 42.8518 58.0779 43.0152C58.14 43.1787 58.1606 43.3524 58.1383 43.5235C58.1159 43.6945 58.0511 43.8585 57.9487 44.0033C57.8462 44.148 57.7088 44.2698 57.5467 44.3595L37.8425 55.3592C37.543 55.5229 37.2092 55.6286 36.8624 55.6695C36.5156 55.7104 36.1635 55.6855 35.8286 55.5965C30.6267 54.2151 25.4114 52.8276 20.1826 51.434C19.12 51.1419 17.946 51.297 17.0655 51.6439C16.6135 51.8204 16.2728 51.7109 16.0434 51.3153L12.0054 44.3047C11.7895 43.9335 11.884 43.6444 12.2888 43.4375L21.5893 38.6177C21.9112 38.4512 22.2687 38.3481 22.6385 38.3151C23.0082 38.282 23.3818 38.3198 23.7348 38.426L40.2005 43.4284C40.3899 43.485 40.5643 43.5762 40.7131 43.6962C40.8618 43.8162 40.9816 43.9624 41.0651 44.1259C41.1486 44.2893 41.194 44.4665 41.1984 44.6464C41.2029 44.8264 41.1664 45.0052 41.0911 45.1719L40.9191 45.5553C40.7222 45.9895 40.3525 46.3417 39.8825 46.5427C39.4125 46.7437 38.8762 46.7789 38.3789 46.6416L29.8171 44.2773C29.7131 44.2486 29.6035 44.2407 29.4958 44.2541C29.3881 44.2675 29.2849 44.3019 29.1934 44.3548C29.1019 44.4078 29.0243 44.4782 28.966 44.5609C28.9077 44.6437 28.87 44.7369 28.8557 44.8341L28.8051 45.1262C28.7039 45.7531 28.9872 46.1547 29.6552 46.3312C33.4199 47.2988 39.482 50.1377 42.5383 46.8515C42.577 46.8097 42.6271 46.7778 42.6838 46.759C42.7404 46.7403 42.8015 46.7352 42.861 46.7445C42.9204 46.7537 42.9762 46.7769 43.0225 46.8117C43.0689 46.8465 43.1044 46.8917 43.1253 46.9428C43.2939 47.3505 43.6043 47.6153 44.0563 47.737Z" fill="white"/>
<path d="M15.523 54.6119C15.5784 54.7087 15.5889 54.8213 15.5521 54.9251C15.5154 55.0289 15.4345 55.1153 15.3272 55.1652L9.94937 57.669C9.89622 57.6937 9.83819 57.7088 9.77859 57.7133C9.71899 57.7178 9.65899 57.7117 9.60201 57.6953C9.54503 57.6789 9.49219 57.6525 9.44651 57.6177C9.40083 57.5829 9.3632 57.5403 9.33577 57.4923L2.57755 45.6817C2.52218 45.5849 2.5117 45.4722 2.54842 45.3685C2.58515 45.2647 2.66606 45.1783 2.77338 45.1284L8.15119 42.6246C8.20434 42.5999 8.26237 42.5848 8.32197 42.5803C8.38157 42.5758 8.44157 42.5819 8.49855 42.5983C8.55553 42.6147 8.60837 42.6411 8.65405 42.6759C8.69973 42.7107 8.73736 42.7533 8.76479 42.8013L15.523 54.6119ZM12.2787 53.9716C12.2787 53.6714 12.1464 53.3835 11.9111 53.1712C11.6758 52.9589 11.3566 52.8397 11.0237 52.8397C10.6909 52.8397 10.3717 52.9589 10.1364 53.1712C9.90103 53.3835 9.76882 53.6714 9.76882 53.9716C9.76882 54.2718 9.90103 54.5597 10.1364 54.772C10.3717 54.9843 10.6909 55.1035 11.0237 55.1035C11.3566 55.1035 11.6758 54.9843 11.9111 54.772C12.1464 54.5597 12.2787 54.2718 12.2787 53.9716Z" fill="white"/>
<path d="M11.0237 55.1036C11.7168 55.1036 12.2786 54.5968 12.2786 53.9716C12.2786 53.3465 11.7168 52.8397 11.0237 52.8397C10.3306 52.8397 9.7688 53.3465 9.7688 53.9716C9.7688 54.5968 10.3306 55.1036 11.0237 55.1036Z" fill="#3E3D3E"/>
</svg>
