<svg width="60" height="60" viewBox="0 0 60 60" fill="none" xmlns="http://www.w3.org/2000/svg">
<path d="M22.6517 15.3815C17.7494 17.9372 14.8481 23.2423 15.4984 28.409C15.6518 29.6207 16.4889 31.6997 18.0096 34.646C19.8437 38.2135 21.0309 41.9501 21.5712 45.8559C21.593 46.0111 21.676 46.1537 21.8048 46.2572C21.9336 46.3607 22.0995 46.4181 22.2715 46.4187H37.7485C38.0553 46.4249 38.2354 46.2865 38.2888 46.0036C39.0558 42.0732 40.3097 38.3027 42.0505 34.6921C43.5779 31.5306 44.4016 29.2732 44.5216 27.92C45.5221 17.0699 32.7163 10.1225 22.6517 15.3815Z" stroke="#9F6948" stroke-width="2"/>
<path d="M33.4266 17.9556C37.4984 19.6532 39.7594 22.375 40.3097 26.2869C40.3697 26.7114 40.6298 26.902 41.09 26.859L41.6303 26.8128C41.7213 26.8061 41.8098 26.7823 41.8905 26.7429C41.9712 26.7035 42.0422 26.6493 42.0994 26.5836C42.1565 26.5179 42.1985 26.4422 42.2228 26.3611C42.2471 26.2799 42.2531 26.195 42.2406 26.1116C41.4802 21.3017 38.6556 18.0171 33.7667 16.258C33.6379 16.212 33.4947 16.2143 33.3676 16.2643C33.2406 16.3143 33.1397 16.408 33.0864 16.5255L32.9463 16.8484C32.8577 17.0546 32.8581 17.2843 32.9474 17.4902C33.0367 17.6961 33.2082 17.8627 33.4266 17.9556Z" stroke="#9F6948" stroke-width="2"/>
<path d="M30.1463 0.00116626L29.8462 0.0016901C29.4926 0.00230729 29.2064 0.267176 29.2069 0.59329L29.221 8.63861C29.2215 8.96473 29.5087 9.2286 29.8623 9.22798L30.1624 9.22746C30.5161 9.22684 30.8023 8.96197 30.8017 8.63586L30.7876 0.590531C30.7871 0.264417 30.5 0.000549074 30.1463 0.00116626Z" fill="#3E3A3B"/>
<path d="M13.8634 14.0342L7.10844 9.14962C6.76929 8.90437 6.27878 8.95912 6.01285 9.27189L5.97581 9.31545C5.70988 9.62822 5.76924 10.0806 6.10839 10.3258L12.8634 15.2104C13.2025 15.4556 13.693 15.4009 13.959 15.0881L13.996 15.0445C14.2619 14.7318 14.2026 14.2794 13.8634 14.0342Z" fill="#3E3A3B"/>
<path d="M52.049 9.15068L45.3006 14.013C44.9697 14.2514 44.911 14.6921 45.1695 14.9973L45.2311 15.07C45.4897 15.3751 45.9675 15.4292 46.2984 15.1908L53.0468 10.3285C53.3777 10.0901 53.4364 9.6494 53.1779 9.34424L53.1163 9.27153C52.8578 8.96637 52.3799 8.91226 52.049 9.15068Z" fill="#3E3A3B"/>
<path d="M44.3715 34.1663C42.1705 38.3827 40.7699 42.6637 39.9195 47.2768C39.8725 47.5245 39.7324 47.749 39.5239 47.911C39.3153 48.0729 39.0516 48.162 38.779 48.1626H21.271C20.9375 48.1622 20.6161 48.0489 20.3686 47.8445C20.1211 47.6401 19.965 47.359 19.9304 47.0554C19.4902 43.2234 18.3864 39.5421 16.6189 36.0115C14.9115 32.5917 13.9644 30.3589 13.7776 29.3132C12.7371 23.4269 15.8085 17.1345 21.3311 14.0253C33.4566 7.21625 48.8336 16.8208 46.1023 29.8299C45.8689 30.9494 45.2919 32.3948 44.3715 34.1663ZM22.6517 15.3815C17.7494 17.9372 14.8481 23.2423 15.4984 28.4091C15.6518 29.6208 16.4889 31.6998 18.0095 34.646C19.8437 38.2135 21.0309 41.9502 21.5712 45.856C21.593 46.0112 21.676 46.1537 21.8048 46.2572C21.9336 46.3607 22.0994 46.4182 22.2715 46.4188H37.7485C38.0553 46.425 38.2354 46.2866 38.2888 46.0036C39.0558 42.0732 40.3097 38.3027 42.0505 34.6922C43.5778 31.5306 44.4015 29.2733 44.5216 27.9201C45.5221 17.0699 32.7162 10.1225 22.6517 15.3815Z" fill="#3E3A3B"/>
<path d="M22.6517 15.3815C32.7163 10.1225 45.5221 17.0699 44.5216 27.92C44.4016 29.2732 43.5779 31.5306 42.0505 34.6921C40.3097 38.3027 39.0558 42.0732 38.2888 46.0036C38.2354 46.2865 38.0553 46.4249 37.7485 46.4187H22.2715C22.0995 46.4181 21.9336 46.3607 21.8048 46.2572C21.676 46.1537 21.593 46.0111 21.5712 45.8559C21.0309 41.9501 19.8437 38.2135 18.0096 34.646C16.4889 31.6997 15.6518 29.6207 15.4984 28.409C14.8481 23.2423 17.7494 17.9372 22.6517 15.3815ZM33.4266 17.9556C37.4984 19.6532 39.7595 22.375 40.3097 26.287C40.3697 26.7114 40.6298 26.902 41.0901 26.859L41.6303 26.8129C41.7213 26.8061 41.8098 26.7823 41.8905 26.7429C41.9712 26.7035 42.0423 26.6493 42.0994 26.5836C42.1565 26.518 42.1985 26.4422 42.2228 26.3611C42.2471 26.2799 42.2531 26.195 42.2406 26.1117C41.4802 21.3017 38.6556 18.0171 33.7667 16.258C33.6379 16.2121 33.4947 16.2143 33.3676 16.2643C33.2406 16.3143 33.1397 16.408 33.0864 16.5255L32.9464 16.8484C32.8577 17.0546 32.8581 17.2843 32.9474 17.4902C33.0367 17.6961 33.2082 17.8627 33.4266 17.9556Z" fill="#FF5210"/>
<path d="M40.3097 26.2871C39.7594 22.3751 37.4984 19.6534 33.4266 17.9557C33.2082 17.8628 33.0367 17.6963 32.9474 17.4903C32.8581 17.2844 32.8577 17.0547 32.9463 16.8486L33.0864 16.5256C33.1397 16.4081 33.2406 16.3144 33.3676 16.2644C33.4947 16.2144 33.6379 16.2122 33.7667 16.2581C38.6556 18.0172 41.4802 21.3018 42.2406 26.1118C42.2531 26.1952 42.2471 26.28 42.2228 26.3612C42.1985 26.4423 42.1565 26.5181 42.0994 26.5837C42.0422 26.6494 41.9712 26.7036 41.8905 26.743C41.8098 26.7824 41.7213 26.8062 41.6303 26.813L41.09 26.8591C40.6298 26.9022 40.3697 26.7115 40.3097 26.2871Z" fill="#3E3A3B"/>
<path d="M9.56433 25.1726L0.540245 25.1871C0.241876 25.1876 0.000422153 25.411 0.000942906 25.6862L0.00178104 26.1291C0.0023018 26.4042 0.2446 26.6269 0.542969 26.6264L9.56706 26.6119C9.86543 26.6114 10.1069 26.388 10.1064 26.1128L10.1055 25.6699C10.105 25.3948 9.8627 25.1721 9.56433 25.1726Z" fill="#3E3A3B"/>
<path d="M59.337 25.1728L50.513 25.187C50.1483 25.1876 49.8532 25.4607 49.8538 25.797L49.8543 26.0185C49.8549 26.3548 50.151 26.6269 50.5157 26.6263L59.3397 26.6121C59.7044 26.6116 59.9995 26.3385 59.9989 26.0021L59.9984 25.7807C59.9978 25.4444 59.7017 25.1723 59.337 25.1728Z" fill="#3E3A3B"/>
<path d="M12.0223 36.3311L5.36434 41.1802C5.02178 41.4297 4.96339 41.8881 5.23393 42.204L5.25873 42.2329C5.52927 42.5488 6.02628 42.6027 6.36883 42.3532L13.0268 37.5041C13.3693 37.2546 13.4277 36.7963 13.1572 36.4803L13.1324 36.4514C12.8618 36.1355 12.3648 36.0816 12.0223 36.3311Z" fill="#3E3A3B"/>
<path d="M54.2624 41.168L47.5862 36.3404C47.2427 36.092 46.7459 36.1474 46.4766 36.4642L46.4519 36.4932C46.1825 36.81 46.2426 37.2682 46.5861 37.5166L53.2624 42.3442C53.6059 42.5926 54.1027 42.5371 54.372 42.2204L54.3967 42.1913C54.6661 41.8745 54.6059 41.4164 54.2624 41.168Z" fill="#3E3A3B"/>
<path d="M38.2988 49.5096H21.6712C21.1905 49.5096 20.8008 49.869 20.8008 50.3123V50.3677C20.8008 50.811 21.1905 51.1704 21.6712 51.1704H38.2988C38.7795 51.1704 39.1692 50.811 39.1692 50.3677V50.3123C39.1692 49.869 38.7795 49.5096 38.2988 49.5096Z" fill="#3E3A3B"/>
<path d="M36.688 52.5359H23.2219C22.7302 52.5359 22.3315 52.9035 22.3315 53.357V53.4308C22.3315 53.8843 22.7302 54.252 23.2219 54.252H36.688C37.1798 54.252 37.5784 53.8843 37.5784 53.4308V53.357C37.5784 52.9035 37.1798 52.5359 36.688 52.5359Z" fill="#3E3A3B"/>
<path d="M36.3479 55.922C36.3797 55.922 36.4103 55.9337 36.4328 55.9544C36.4553 55.9752 36.468 56.0034 36.468 56.0327V56.125C36.471 57.1469 35.8079 58.129 34.6242 58.8556C33.4406 59.5821 31.8332 59.9938 30.1551 60H29.895C29.0626 60.0031 28.2379 59.9063 27.468 59.715C26.6981 59.5238 25.9981 59.2418 25.408 58.8854C24.818 58.5289 24.3495 58.1049 24.0293 57.6375C23.7091 57.1702 23.5436 56.6688 23.5421 56.1619V56.0696C23.5421 56.0551 23.5452 56.0407 23.5512 56.0272C23.5573 56.0138 23.5661 56.0016 23.5772 55.9913C23.5884 55.9811 23.6016 55.9729 23.6162 55.9673C23.6308 55.9618 23.6464 55.9589 23.6621 55.9589L36.3479 55.922Z" fill="#3E3A3B"/>
</svg>
